<?xml version="1.0" standalone="no"?>
<!DOCTYPE svg PUBLIC "-//W3C//DTD SVG 20010904//EN"
 "http://www.w3.org/TR/2001/REC-SVG-20010904/DTD/svg10.dtd">
<svg version="1.0" xmlns="http://www.w3.org/2000/svg"
 width="1024.000000pt" height="1024.000000pt" viewBox="0 0 1024.000000 1024.000000"
 preserveAspectRatio="xMidYMid meet">
<metadata>
Created by potrace 1.16, written by Peter Selinger 2001-2019
</metadata>
<g transform="translate(0.000000,1024.000000) scale(0.100000,-0.100000)"
fill="#000000" stroke="none">
<path d="M1560 9845 c-312 -53 -584 -194 -805 -419 -251 -257 -388 -564 -415
-931 -13 -181 -13 -6569 0 -6745 5 -69 16 -162 25 -205 124 -599 602 -1056
1205 -1151 83 -13 532 -14 3555 -12 3287 3 3464 4 3535 21 325 78 581 223 802
455 215 225 358 501 424 817 18 87 19 200 19 3420 l0 3330 -23 113 c-93 458
-337 832 -703 1078 -153 102 -314 171 -519 220 -72 18 -231 19 -3550 20 -2772
2 -3490 -1 -3550 -11z m7080 -89 c393 -94 707 -315 926 -651 98 -152 174 -331
222 -525 l26 -105 3 -632 4 -633 -1289 0 -1288 0 140 -143 c272 -275 479 -563
641 -892 225 -457 327 -873 342 -1406 26 -910 -281 -1717 -884 -2325 -513
-516 -1178 -833 -1958 -930 -196 -25 -588 -25 -780 0 -318 40 -600 113 -874
226 -930 382 -1616 1121 -1905 2050 -87 280 -125 527 -133 855 -10 471 55 856
213 1258 175 446 483 888 846 1219 l98 88 -1286 0 -1285 0 4 693 c3 658 4 696
24 782 119 516 504 922 994 1051 168 44 34 42 3669 40 3290 -1 3459 -2 3530
-20z"/>
<path d="M4245 4675 c-389 -73 -721 -314 -884 -641 -78 -156 -110 -291 -111
-460 -1 -258 73 -448 231 -597 161 -153 312 -209 617 -227 433 -26 672 60
1452 525 448 268 598 335 744 335 64 0 82 -5 142 -35 113 -57 196 -127 479
-405 373 -366 414 -395 551 -395 111 1 185 37 280 138 206 216 324 481 378
848 71 475 -107 811 -429 811 -146 0 -256 -54 -693 -346 -396 -264 -543 -342
-678 -360 -114 -16 -273 49 -499 204 -641 439 -795 522 -1095 591 -117 27
-374 34 -485 14z"/>
<path d="M5963 3100 c-139 -25 -277 -109 -446 -269 -80 -75 -97 -133 -56 -185
38 -48 68 -36 219 88 175 144 289 185 485 173 161 -10 234 -54 302 -182 48
-90 56 -99 85 -92 14 4 40 20 57 36 41 38 40 71 -4 174 -65 149 -128 211 -247
243 -66 17 -325 26 -395 14z"/>
<path d="M6730 2333 c-8 -3 -33 -18 -55 -33 -210 -143 -533 -220 -920 -220
-362 0 -594 54 -773 179 -63 45 -95 50 -147 25 -46 -21 -75 -55 -81 -95 -8
-49 26 -93 120 -156 209 -140 529 -199 940 -174 246 15 352 32 499 81 190 64
432 195 473 257 21 33 14 111 -12 130 -19 14 -21 14 -44 6z"/>
</g>
</svg>
