<svg id="svg" version="1.1" xmlns="http://www.w3.org/2000/svg" xmlns:xlink="http://www.w3.org/1999/xlink" width="400" height="400" viewBox="0, 0, 400,400"><g id="svgg"><path id="path0" d="M65.039 18.363 C 50.536 19.918,36.667 27.520,28.164 38.574 L 26.887 40.234 198.661 40.234 C 362.212 40.234,370.406 40.202,369.859 39.551 C 369.543 39.175,368.442 37.860,367.413 36.628 C 360.518 28.377,348.693 21.580,336.858 19.065 L 332.617 18.164 200.195 18.117 C 127.363 18.091,66.543 18.201,65.039 18.363 M188.490 51.373 C 185.275 75.676,178.728 82.934,143.555 101.186 C 79.716 134.312,54.443 204.446,83.311 268.359 C 99.201 303.540,135.598 331.371,175.977 339.215 C 186.527 341.265,206.519 342.006,216.016 340.701 C 288.195 330.776,333.324 274.285,326.005 203.021 C 321.019 154.475,292.474 116.638,243.798 94.054 C 218.540 82.335,213.784 78.746,196.250 58.180 C 193.264 54.677,190.354 51.275,189.784 50.619 L 188.747 49.427 188.490 51.373 M183.925 217.561 C 195.081 219.862,204.359 224.610,222.266 237.183 C 244.630 252.886,246.260 252.811,273.242 234.845 C 296.785 219.170,303.696 217.544,311.731 225.794 C 326.934 241.402,312.315 290.688,292.178 291.714 C 286.551 292.001,284.524 290.607,270.703 276.942 C 247.670 254.168,247.129 254.127,216.016 272.728 C 184.095 291.811,171.853 295.516,152.270 292.017 C 139.322 289.704,129.985 280.995,127.576 268.985 C 121.387 238.129,151.297 210.833,183.925 217.561 M247.330 279.081 C 255.691 280.853,262.621 292.183,257.816 296.226 C 255.549 298.134,254.616 297.676,252.368 293.555 C 249.432 288.173,246.569 286.719,238.908 286.719 C 231.530 286.719,229.134 287.649,222.179 293.214 C 215.484 298.570,214.437 298.930,212.894 296.400 C 211.072 293.411,213.176 290.421,221.571 284.067 C 228.362 278.927,237.896 277.081,247.330 279.081 M265.039 309.375 C 270.312 315.202,250.661 325.705,231.445 327.330 C 210.323 329.116,190.224 324.584,186.067 317.097 C 183.324 312.158,189.707 308.207,194.829 311.674 C 209.947 321.907,245.810 320.798,261.328 309.617 C 262.995 308.416,264.105 308.343,265.039 309.375 " stroke="none" fill="#ebf0f4" fill-rule="evenodd"></path><path id="path1" d="M32.010 33.887 L 30.664 35.352 32.129 34.005 C 32.935 33.265,33.594 32.606,33.594 32.541 C 33.594 32.242,33.263 32.523,32.010 33.887 M369.689 39.362 L 370.434 40.234 198.553 40.234 L 26.673 40.234 25.279 42.334 C 19.207 51.479,16.849 60.237,16.511 74.902 L 16.301 83.984 93.916 83.984 C 155.904 83.984,171.471 84.083,171.236 84.473 C 170.835 85.139,174.375 82.312,176.695 80.112 C 182.947 74.186,186.673 65.108,188.490 51.373 L 188.747 49.427 189.784 50.619 C 190.354 51.275,193.254 54.666,196.229 58.156 C 206.152 69.794,215.054 78.486,221.143 82.481 L 223.732 84.180 303.715 84.080 L 383.699 83.981 383.479 77.049 C 383.155 66.821,381.227 58.908,377.016 50.515 C 374.941 46.381,370.798 39.927,369.645 39.033 C 369.043 38.566,369.049 38.611,369.689 39.362 M71.596 209.961 C 71.599 211.035,71.675 211.428,71.765 210.834 C 71.854 210.241,71.852 209.362,71.759 208.881 C 71.667 208.401,71.593 208.887,71.596 209.961 M326.691 213.867 C 326.692 215.371,326.763 215.938,326.848 215.128 C 326.932 214.318,326.931 213.087,326.844 212.394 C 326.758 211.700,326.689 212.363,326.691 213.867 M172.168 216.692 C 173.081 216.775,174.575 216.775,175.488 216.692 C 176.401 216.610,175.654 216.543,173.828 216.543 C 172.002 216.543,171.255 216.610,172.168 216.692 M326.691 221.680 C 326.692 223.184,326.763 223.751,326.848 222.941 C 326.932 222.130,326.931 220.900,326.844 220.206 C 326.758 219.513,326.689 220.176,326.691 221.680 M71.591 221.094 C 71.591 222.061,71.667 222.456,71.760 221.973 C 71.853 221.489,71.853 220.698,71.760 220.215 C 71.667 219.731,71.591 220.127,71.591 221.094 M139.233 230.957 L 138.086 232.227 139.355 231.079 C 140.054 230.448,140.625 229.877,140.625 229.810 C 140.625 229.508,140.303 229.774,139.233 230.957 M318.105 244.922 C 318.105 246.748,318.173 247.495,318.255 246.582 C 318.337 245.669,318.337 244.175,318.255 243.262 C 318.173 242.349,318.105 243.096,318.105 244.922 M126.691 260.352 C 126.692 261.855,126.763 262.423,126.848 261.612 C 126.932 260.802,126.931 259.571,126.844 258.878 C 126.758 258.185,126.689 258.848,126.691 260.352 M263.656 270.020 C 264.613 271.040,265.448 271.875,265.511 271.875 C 265.804 271.875,265.494 271.524,263.770 269.906 L 261.914 268.164 263.656 270.020 M274.023 280.469 C 275.082 281.543,276.035 282.422,276.143 282.422 C 276.250 282.422,275.472 281.543,274.414 280.469 C 273.356 279.395,272.402 278.516,272.295 278.516 C 272.188 278.516,272.965 279.395,274.023 280.469 M237.793 286.611 C 238.491 286.697,239.634 286.697,240.332 286.611 C 241.030 286.524,240.459 286.453,239.063 286.453 C 237.666 286.453,237.095 286.524,237.793 286.611 M214.624 289.941 L 213.477 291.211 214.746 290.064 C 215.929 288.994,216.195 288.672,215.893 288.672 C 215.826 288.672,215.255 289.243,214.624 289.941 M106.250 301.758 C 106.979 302.510,107.663 303.125,107.770 303.125 C 107.878 303.125,107.369 302.510,106.641 301.758 C 105.912 301.006,105.228 300.391,105.120 300.391 C 105.013 300.391,105.521 301.006,106.250 301.758 M108.594 304.028 C 108.594 304.096,109.165 304.667,109.863 305.298 L 111.133 306.445 109.986 305.176 C 108.916 303.992,108.594 303.727,108.594 304.028 M198.730 341.692 C 199.644 341.775,201.138 341.775,202.051 341.692 C 202.964 341.610,202.217 341.543,200.391 341.543 C 198.564 341.543,197.817 341.610,198.730 341.692 " stroke="none" fill="#81badd" fill-rule="evenodd"></path><path id="path2" d="M60.938 15.417 C 34.469 19.903,15.227 41.206,13.290 68.164 C 12.784 75.216,12.766 324.747,13.272 331.654 C 15.275 359.011,34.720 380.434,61.328 384.599 C 67.570 385.576,334.140 385.231,338.281 384.241 C 363.039 378.320,380.913 359.785,386.180 334.570 C 386.890 331.170,386.914 326.776,386.914 200.977 L 386.914 70.898 386.017 66.471 C 380.736 40.406,363.237 21.822,338.274 15.767 C 334.472 14.845,66.308 14.506,60.938 15.417 M338.895 19.218 C 360.073 24.865,375.288 40.077,381.600 61.914 C 383.539 68.625,383.594 69.676,383.594 100.442 L 383.594 129.297 338.675 129.297 L 293.757 129.297 296.390 132.451 C 322.256 163.435,332.457 204.267,324.366 244.436 C 305.676 337.223,188.491 373.531,114.394 309.494 C 63.249 265.292,56.732 188.169,99.722 135.857 C 101.486 133.709,103.430 131.355,104.042 130.625 L 105.154 129.297 60.780 129.297 L 16.406 129.297 16.408 98.145 C 16.409 72.660,16.513 66.350,16.981 63.465 C 20.756 40.193,39.298 21.809,62.446 18.385 C 63.657 18.206,125.469 18.084,199.805 18.114 L 334.961 18.169 338.895 19.218 M166.406 217.352 C 143.204 221.537,127.181 239.178,127.171 260.547 C 127.164 278.635,137.101 289.966,154.883 292.145 C 173.719 294.453,185.597 290.688,215.039 273.076 C 247.069 253.916,247.568 253.939,269.531 275.572 C 284.338 290.157,286.352 291.613,291.667 291.570 C 303.337 291.477,314.870 273.448,317.608 251.018 C 320.280 229.126,308.150 216.130,292.006 223.589 C 287.987 225.446,286.077 226.626,272.528 235.625 C 247.065 252.536,244.209 252.750,224.805 239.197 C 204.144 224.767,195.691 220.334,183.984 217.788 C 179.965 216.914,170.181 216.671,166.406 217.352 M233.370 278.901 C 228.527 279.582,223.627 282.292,217.405 287.731 C 212.467 292.048,211.449 294.261,213.310 296.627 C 214.822 298.550,215.740 298.149,222.713 292.513 C 228.992 287.438,233.181 286.014,240.600 286.434 C 247.360 286.816,249.732 288.283,252.930 294.058 C 254.773 297.388,255.375 297.690,257.441 296.323 C 260.300 294.431,259.118 288.797,254.689 283.205 C 251.849 279.619,242.165 277.664,233.370 278.901 M260.537 310.415 C 243.127 321.273,209.522 321.886,194.388 311.620 C 189.897 308.573,183.922 312.130,186.047 316.586 C 189.793 324.441,211.014 329.136,233.076 326.990 C 251.295 325.218,271.187 313.912,264.583 309.083 C 263.671 308.417,263.817 308.369,260.537 310.415 " stroke="none" fill="#0572b8" fill-rule="evenodd"></path><path id="path3" d="M16.406 93.555 L 16.406 103.125 77.976 103.125 L 139.547 103.125 147.767 98.797 C 158.548 93.122,168.335 87.099,171.270 84.334 C 171.488 84.128,139.714 83.984,94.023 83.984 L 16.406 83.984 16.406 93.555 M225.391 84.831 C 226.926 85.779,238.498 91.434,247.621 95.696 C 252.992 98.205,259.639 101.678,261.373 102.882 C 261.834 103.202,278.370 103.293,322.799 103.220 L 383.594 103.120 383.594 93.552 L 383.594 83.984 303.809 83.986 L 224.023 83.987 225.391 84.831 M287.891 123.633 C 289.058 124.814,290.100 125.781,290.208 125.781 C 290.315 125.781,289.448 124.814,288.281 123.633 C 287.114 122.451,286.072 121.484,285.964 121.484 C 285.857 121.484,286.724 122.451,287.891 123.633 M108.384 126.270 L 106.445 128.320 108.496 126.382 C 109.624 125.316,110.547 124.393,110.547 124.331 C 110.547 124.040,110.185 124.364,108.384 126.270 " stroke="none" fill="#54a4d3" fill-rule="evenodd"></path><path id="path4" d="M16.406 116.211 L 16.406 129.297 60.803 129.297 L 105.199 129.297 104.490 130.176 C 104.101 130.659,105.172 129.618,106.871 127.863 C 115.284 119.172,126.203 110.567,135.726 105.125 L 139.225 103.125 77.816 103.125 L 16.406 103.125 16.406 116.211 M262.715 103.443 C 262.919 103.618,265.107 105.109,267.578 106.758 C 275.417 111.988,285.580 120.578,290.792 126.379 L 293.414 129.297 338.504 129.297 L 383.594 129.297 383.594 116.211 L 383.594 103.125 322.969 103.125 C 289.625 103.125,262.511 103.268,262.715 103.443 M241.704 278.792 C 242.190 278.885,242.893 278.882,243.266 278.784 C 243.640 278.686,243.242 278.610,242.383 278.614 C 241.523 278.618,241.218 278.698,241.704 278.792 M163.781 292.866 C 164.808 292.946,166.390 292.945,167.297 292.864 C 168.204 292.782,167.363 292.716,165.430 292.717 C 163.496 292.718,162.754 292.785,163.781 292.866 M289.624 307.129 L 288.477 308.398 289.746 307.251 C 290.444 306.620,291.016 306.049,291.016 305.982 C 291.016 305.680,290.693 305.946,289.624 307.129 " stroke="none" fill="#4096cb" fill-rule="evenodd"></path></g></svg>