<svg id="svg" version="1.1" xmlns="http://www.w3.org/2000/svg" xmlns:xlink="http://www.w3.org/1999/xlink" width="400" height="400" viewBox="0, 0, 400,400"><g id="svgg"><path id="path0" d="M189.063 19.355 C 187.602 19.452,192.523 19.531,200.000 19.531 C 207.477 19.531,212.258 19.442,210.625 19.332 C 207.062 19.093,192.790 19.108,189.063 19.355 M183.677 19.914 C 184.239 19.984,185.083 19.982,185.552 19.911 C 186.022 19.839,185.563 19.783,184.531 19.784 C 183.500 19.786,183.116 19.844,183.677 19.914 M188.125 20.027 C 159.339 22.032,132.295 30.430,107.889 44.942 C 103.023 47.835,102.938 47.884,103.594 47.381 C 106.650 45.039,105.184 45.841,99.795 49.459 C 90.602 55.631,72.200 70.741,72.955 71.497 C 73.190 71.732,72.477 72.523,72.190 72.345 C 72.058 72.264,70.387 73.868,68.475 75.911 C 65.245 79.363,64.232 80.660,65.547 79.661 C 65.848 79.433,65.609 79.767,65.017 80.404 C 63.830 81.681,63.292 81.983,64.242 80.839 C 64.573 80.441,63.969 81.038,62.899 82.167 C 61.042 84.126,60.320 85.238,61.484 84.345 C 61.785 84.114,61.690 84.308,61.274 84.775 C 60.432 85.719,59.997 85.934,60.659 85.078 C 61.004 84.633,60.953 84.642,60.385 85.127 C 59.645 85.758,59.419 86.444,60.078 86.058 C 60.293 85.933,60.201 86.135,59.873 86.509 C 59.163 87.319,58.806 87.420,59.409 86.641 C 59.754 86.195,59.703 86.204,59.135 86.689 C 58.395 87.321,58.169 88.006,58.828 87.621 C 59.043 87.495,58.951 87.698,58.623 88.071 C 57.913 88.881,57.556 88.983,58.159 88.203 C 58.504 87.758,58.453 87.767,57.885 88.252 C 57.146 88.882,56.917 89.575,57.578 89.177 C 57.844 89.018,57.831 89.112,57.540 89.471 C 57.040 90.088,56.735 90.177,57.067 89.609 C 57.192 89.395,56.990 89.487,56.616 89.814 C 55.811 90.521,55.693 91.205,56.484 90.585 C 56.982 90.195,56.992 90.207,56.596 90.711 C 56.357 91.016,56.088 91.193,56.000 91.104 C 55.791 90.895,55.000 91.550,55.000 91.932 C 55.000 92.093,55.162 92.124,55.361 92.001 C 55.591 91.859,55.636 91.916,55.486 92.160 C 55.356 92.370,55.171 92.463,55.076 92.367 C 54.851 92.143,54.063 92.792,54.063 93.202 C 54.063 93.373,54.309 93.321,54.609 93.085 C 55.103 92.698,55.115 92.709,54.736 93.193 C 54.504 93.488,54.170 93.699,53.993 93.662 C 53.817 93.624,53.601 93.789,53.514 94.028 C 53.404 94.330,53.488 94.383,53.788 94.202 C 54.153 93.982,54.154 94.023,53.790 94.471 C 53.290 95.087,52.981 95.179,53.323 94.609 C 53.482 94.344,53.388 94.356,53.029 94.648 C 52.419 95.143,52.308 95.772,52.891 95.437 C 53.118 95.306,53.172 95.331,53.021 95.497 C 52.878 95.653,52.608 95.781,52.422 95.781 C 52.236 95.781,52.018 95.977,51.939 96.215 C 51.839 96.516,51.927 96.569,52.225 96.390 C 52.591 96.169,52.591 96.210,52.227 96.659 C 51.728 97.275,51.418 97.366,51.760 96.797 C 51.920 96.531,51.826 96.544,51.466 96.835 C 50.856 97.330,50.746 97.960,51.328 97.625 C 51.555 97.494,51.610 97.519,51.458 97.684 C 51.315 97.841,51.046 97.969,50.859 97.969 C 50.673 97.969,50.456 98.164,50.376 98.403 C 50.277 98.700,50.368 98.758,50.663 98.587 C 50.917 98.440,50.987 98.454,50.833 98.622 C 50.690 98.778,50.421 98.906,50.234 98.906 C 50.048 98.906,49.831 99.102,49.751 99.340 C 49.652 99.637,49.743 99.696,50.038 99.525 C 50.292 99.377,50.362 99.391,50.208 99.559 C 50.065 99.716,49.796 99.844,49.609 99.844 C 49.423 99.844,49.206 100.039,49.126 100.278 C 49.027 100.575,49.118 100.633,49.413 100.462 C 49.667 100.315,49.737 100.329,49.583 100.497 C 49.440 100.653,49.171 100.781,48.984 100.781 C 48.798 100.781,48.581 100.977,48.501 101.215 C 48.402 101.512,48.493 101.571,48.788 101.400 C 49.042 101.252,49.112 101.266,48.958 101.434 C 48.815 101.591,48.546 101.719,48.359 101.719 C 48.173 101.719,47.956 101.914,47.876 102.153 C 47.780 102.442,47.865 102.504,48.133 102.339 C 48.398 102.175,48.457 102.215,48.308 102.457 C 48.184 102.658,47.958 102.746,47.807 102.653 C 47.655 102.559,47.384 102.758,47.203 103.096 C 46.769 103.906,46.789 104.149,47.266 103.875 C 47.493 103.744,47.547 103.769,47.396 103.934 C 47.253 104.091,46.983 104.219,46.797 104.219 C 46.611 104.219,46.393 104.414,46.314 104.653 C 46.217 104.942,46.303 105.004,46.570 104.839 C 46.835 104.675,46.895 104.715,46.745 104.957 C 46.621 105.158,46.395 105.246,46.244 105.153 C 46.093 105.059,45.821 105.258,45.641 105.596 C 45.214 106.393,45.225 106.654,45.673 106.376 C 45.899 106.237,45.949 106.291,45.808 106.519 C 45.684 106.721,45.458 106.809,45.307 106.715 C 45.155 106.622,44.884 106.821,44.703 107.158 C 44.277 107.955,44.287 108.216,44.736 107.939 C 44.961 107.800,45.012 107.853,44.870 108.082 C 44.746 108.283,44.519 108.370,44.367 108.276 C 43.990 108.043,43.044 109.929,43.317 110.370 C 43.446 110.578,43.394 110.635,43.190 110.509 C 42.776 110.253,39.623 115.898,39.844 116.501 C 39.926 116.724,39.858 116.824,39.694 116.723 C 39.299 116.479,36.783 121.498,37.007 122.081 C 37.102 122.329,37.060 122.458,36.913 122.367 C 36.570 122.155,34.386 126.871,31.785 133.438 C 29.594 138.971,29.085 140.487,29.688 139.688 C 29.970 139.313,29.998 139.376,29.829 140.000 C 29.713 140.430,29.484 140.922,29.321 141.094 C 29.132 141.294,29.100 141.209,29.234 140.859 C 29.348 140.559,29.368 140.313,29.278 140.313 C 29.009 140.313,27.419 145.336,27.624 145.541 C 27.728 145.644,27.813 145.503,27.813 145.227 C 27.813 144.950,27.940 144.646,28.096 144.549 C 28.252 144.453,28.227 144.870,28.041 145.476 C 27.855 146.082,27.609 146.426,27.493 146.239 C 27.180 145.733,23.574 158.379,23.821 159.119 C 23.877 159.286,24.321 157.787,24.809 155.788 C 25.296 153.789,25.751 152.209,25.820 152.278 C 25.888 152.346,25.386 154.709,24.703 157.529 C 23.178 163.832,22.081 169.732,21.267 176.004 C 20.019 185.617,19.850 188.493,19.850 200.000 C 19.850 211.507,20.019 214.383,21.267 223.996 C 22.081 230.268,23.178 236.168,24.703 242.471 C 25.386 245.291,25.888 247.654,25.820 247.722 C 25.751 247.791,25.296 246.211,24.809 244.212 C 24.321 242.213,23.877 240.714,23.821 240.881 C 23.574 241.621,27.180 254.267,27.493 253.761 C 27.609 253.574,27.855 253.918,28.041 254.524 C 28.227 255.130,28.252 255.547,28.096 255.451 C 27.940 255.354,27.813 255.050,27.813 254.773 C 27.813 254.497,27.728 254.356,27.624 254.459 C 27.419 254.664,29.009 259.688,29.278 259.688 C 29.368 259.688,29.348 259.441,29.234 259.141 C 29.100 258.791,29.132 258.706,29.321 258.906 C 29.484 259.078,29.713 259.570,29.829 260.000 C 29.998 260.624,29.970 260.687,29.687 260.313 C 29.085 259.513,29.594 261.029,31.785 266.563 C 34.386 273.129,36.570 277.845,36.913 277.633 C 37.060 277.542,37.102 277.671,37.007 277.919 C 36.783 278.502,39.299 283.521,39.694 283.277 C 39.858 283.176,39.926 283.276,39.844 283.499 C 39.623 284.102,42.776 289.747,43.190 289.491 C 43.394 289.365,43.446 289.422,43.317 289.630 C 43.044 290.071,43.990 291.957,44.367 291.724 C 44.519 291.630,44.746 291.717,44.870 291.918 C 45.012 292.147,44.961 292.200,44.736 292.061 C 44.287 291.784,44.277 292.045,44.703 292.842 C 44.884 293.179,45.155 293.378,45.307 293.285 C 45.458 293.191,45.684 293.279,45.808 293.481 C 45.949 293.709,45.899 293.763,45.673 293.624 C 45.225 293.346,45.214 293.607,45.641 294.404 C 45.821 294.742,46.093 294.941,46.244 294.847 C 46.395 294.754,46.621 294.842,46.745 295.043 C 46.895 295.285,46.835 295.325,46.570 295.161 C 46.303 294.996,46.217 295.058,46.314 295.347 C 46.393 295.586,46.611 295.781,46.797 295.781 C 46.983 295.781,47.253 295.909,47.396 296.066 C 47.547 296.231,47.493 296.256,47.266 296.125 C 46.789 295.851,46.769 296.094,47.203 296.904 C 47.384 297.242,47.655 297.441,47.807 297.347 C 47.958 297.254,48.184 297.342,48.308 297.543 C 48.457 297.785,48.398 297.825,48.133 297.661 C 47.865 297.496,47.780 297.558,47.876 297.847 C 47.956 298.086,48.173 298.281,48.359 298.281 C 48.546 298.281,48.815 298.409,48.958 298.566 C 49.112 298.734,49.042 298.748,48.788 298.600 C 48.493 298.429,48.402 298.488,48.501 298.785 C 48.581 299.023,48.798 299.219,48.984 299.219 C 49.171 299.219,49.440 299.347,49.583 299.503 C 49.737 299.671,49.667 299.685,49.413 299.538 C 49.118 299.367,49.027 299.425,49.126 299.722 C 49.206 299.961,49.423 300.156,49.609 300.156 C 49.796 300.156,50.065 300.284,50.208 300.441 C 50.362 300.609,50.292 300.623,50.038 300.475 C 49.743 300.304,49.652 300.363,49.751 300.660 C 49.831 300.898,50.048 301.094,50.234 301.094 C 50.421 301.094,50.690 301.222,50.833 301.378 C 50.987 301.546,50.917 301.560,50.663 301.413 C 50.368 301.242,50.277 301.300,50.376 301.597 C 50.456 301.836,50.673 302.031,50.859 302.031 C 51.046 302.031,51.315 302.159,51.458 302.316 C 51.610 302.481,51.555 302.506,51.328 302.375 C 50.746 302.040,50.856 302.670,51.466 303.165 C 51.922 303.535,51.957 303.529,51.719 303.125 C 51.480 302.721,51.515 302.715,51.971 303.085 C 52.566 303.568,52.688 303.903,52.147 303.569 C 51.933 303.436,51.851 303.521,51.939 303.785 C 52.018 304.023,52.236 304.219,52.422 304.219 C 52.608 304.219,52.878 304.347,53.021 304.503 C 53.172 304.669,53.118 304.694,52.891 304.563 C 52.308 304.228,52.419 304.857,53.029 305.352 C 53.485 305.722,53.520 305.717,53.281 305.313 C 53.043 304.908,53.078 304.903,53.534 305.273 C 54.129 305.755,54.251 306.091,53.709 305.756 C 53.493 305.623,53.418 305.706,53.514 305.972 C 53.601 306.211,53.817 306.376,53.993 306.338 C 54.170 306.301,54.504 306.512,54.736 306.807 C 55.115 307.291,55.103 307.302,54.609 306.915 C 54.309 306.679,54.062 306.627,54.062 306.798 C 54.062 307.156,54.716 307.759,55.104 307.760 C 55.247 307.760,55.458 307.865,55.573 307.993 C 55.687 308.121,55.605 308.124,55.391 308.000 C 55.176 307.877,55.000 307.907,55.000 308.068 C 55.000 308.450,55.791 309.105,56.000 308.896 C 56.088 308.807,56.357 308.984,56.596 309.289 C 56.992 309.793,56.982 309.805,56.484 309.415 C 55.693 308.795,55.811 309.479,56.616 310.186 C 57.040 310.558,57.194 310.605,57.025 310.313 C 56.792 309.908,56.828 309.903,57.284 310.273 C 57.856 310.737,58.009 311.096,57.500 310.781 C 56.896 310.408,57.195 311.160,57.885 311.748 C 58.576 312.338,58.578 312.337,58.125 311.719 C 57.672 311.100,57.674 311.100,58.365 311.689 C 59.080 312.299,59.309 312.689,58.750 312.344 C 58.146 311.970,58.445 312.722,59.135 313.311 C 59.826 313.900,59.828 313.900,59.375 313.281 C 58.922 312.663,58.924 312.662,59.615 313.252 C 60.330 313.861,60.559 314.252,60.000 313.906 C 59.396 313.533,59.695 314.285,60.385 314.873 C 61.076 315.463,61.078 315.462,60.629 314.844 C 60.291 314.378,60.392 314.412,61.025 314.976 C 61.909 315.764,62.228 316.307,61.406 315.625 C 60.251 314.666,61.130 315.967,62.899 317.833 C 63.969 318.962,64.564 319.524,64.222 319.083 C 63.791 318.527,63.959 318.612,64.769 319.358 C 65.905 320.405,66.410 321.094,65.469 320.313 C 65.211 320.099,65.000 320.025,65.000 320.150 C 65.000 320.510,71.952 327.839,72.128 327.664 C 72.362 327.429,73.144 328.154,72.966 328.442 C 72.375 329.398,90.327 344.185,99.795 350.541 C 103.720 353.176,106.673 354.975,104.844 353.616 C 103.348 352.505,102.951 352.111,103.906 352.684 C 104.422 352.994,106.214 354.062,107.889 355.058 C 164.579 388.767,235.421 388.767,292.111 355.058 C 296.977 352.165,297.062 352.116,296.406 352.619 C 293.350 354.961,294.816 354.159,300.205 350.541 C 309.953 343.996,327.669 329.339,327.415 328.028 C 327.376 327.823,327.505 327.687,327.702 327.724 C 327.899 327.761,329.622 326.123,331.530 324.083 C 334.756 320.636,335.767 319.341,334.453 320.339 C 334.152 320.567,334.391 320.233,334.983 319.596 C 336.170 318.319,336.708 318.017,335.758 319.161 C 335.427 319.559,336.031 318.962,337.101 317.833 C 338.958 315.874,339.680 314.762,338.516 315.655 C 338.215 315.886,338.310 315.692,338.726 315.225 C 339.568 314.281,340.003 314.066,339.341 314.922 C 338.996 315.367,339.047 315.358,339.615 314.873 C 340.355 314.242,340.581 313.556,339.922 313.942 C 339.707 314.067,339.799 313.865,340.127 313.491 C 340.837 312.681,341.194 312.580,340.591 313.359 C 340.246 313.805,340.297 313.796,340.865 313.311 C 341.605 312.679,341.831 311.994,341.172 312.379 C 340.957 312.505,341.049 312.302,341.377 311.929 C 342.087 311.119,342.444 311.017,341.841 311.797 C 341.496 312.242,341.547 312.233,342.115 311.748 C 342.805 311.160,343.104 310.408,342.500 310.781 C 341.991 311.096,342.144 310.737,342.716 310.273 C 343.172 309.903,343.208 309.908,342.975 310.313 C 342.806 310.605,342.960 310.558,343.384 310.186 C 344.189 309.479,344.307 308.795,343.516 309.415 C 343.018 309.805,343.008 309.793,343.404 309.289 C 343.643 308.984,343.912 308.807,344.000 308.896 C 344.209 309.105,345.000 308.450,345.000 308.068 C 345.000 307.907,344.838 307.876,344.639 307.999 C 344.409 308.141,344.364 308.084,344.514 307.840 C 344.644 307.630,344.829 307.537,344.924 307.633 C 345.149 307.857,345.938 307.208,345.938 306.798 C 345.938 306.627,345.691 306.679,345.391 306.915 C 344.897 307.302,344.885 307.291,345.264 306.807 C 345.496 306.512,345.830 306.301,346.007 306.338 C 346.183 306.376,346.399 306.211,346.486 305.972 C 346.582 305.706,346.507 305.623,346.291 305.756 C 345.749 306.091,345.871 305.755,346.466 305.273 C 346.922 304.903,346.957 304.908,346.719 305.313 C 346.480 305.717,346.515 305.722,346.971 305.352 C 347.581 304.857,347.692 304.228,347.109 304.563 C 346.882 304.694,346.828 304.669,346.979 304.503 C 347.122 304.347,347.392 304.219,347.578 304.219 C 347.764 304.219,347.982 304.023,348.061 303.785 C 348.149 303.521,348.067 303.436,347.853 303.569 C 347.312 303.903,347.434 303.568,348.029 303.085 C 348.485 302.715,348.520 302.721,348.281 303.125 C 348.043 303.529,348.078 303.535,348.534 303.165 C 349.144 302.670,349.254 302.040,348.672 302.375 C 348.445 302.506,348.390 302.481,348.542 302.316 C 348.685 302.159,348.954 302.031,349.141 302.031 C 349.327 302.031,349.544 301.836,349.624 301.597 C 349.723 301.300,349.632 301.242,349.337 301.413 C 349.083 301.560,349.013 301.546,349.167 301.378 C 349.310 301.222,349.579 301.094,349.766 301.094 C 349.952 301.094,350.169 300.898,350.249 300.660 C 350.348 300.363,350.257 300.304,349.962 300.475 C 349.708 300.623,349.638 300.609,349.792 300.441 C 349.935 300.284,350.204 300.156,350.391 300.156 C 350.577 300.156,350.794 299.961,350.874 299.722 C 350.973 299.425,350.882 299.367,350.587 299.538 C 350.333 299.685,350.263 299.671,350.417 299.503 C 350.560 299.347,350.829 299.219,351.016 299.219 C 351.202 299.219,351.419 299.023,351.499 298.785 C 351.598 298.488,351.507 298.429,351.212 298.600 C 350.958 298.748,350.888 298.734,351.042 298.566 C 351.185 298.409,351.454 298.281,351.641 298.281 C 351.827 298.281,352.044 298.086,352.124 297.847 C 352.220 297.558,352.135 297.496,351.867 297.661 C 351.602 297.825,351.543 297.785,351.692 297.543 C 351.816 297.342,352.042 297.254,352.193 297.347 C 352.345 297.441,352.616 297.242,352.797 296.904 C 353.231 296.094,353.211 295.851,352.734 296.125 C 352.507 296.256,352.453 296.231,352.604 296.066 C 352.747 295.909,353.017 295.781,353.203 295.781 C 353.389 295.781,353.607 295.586,353.686 295.347 C 353.783 295.058,353.697 294.996,353.430 295.161 C 353.165 295.325,353.105 295.285,353.255 295.043 C 353.379 294.842,353.605 294.754,353.756 294.847 C 353.907 294.941,354.179 294.742,354.359 294.404 C 354.786 293.607,354.775 293.346,354.327 293.624 C 354.101 293.763,354.051 293.709,354.192 293.481 C 354.316 293.279,354.542 293.191,354.693 293.285 C 354.845 293.378,355.116 293.179,355.297 292.842 C 355.723 292.045,355.713 291.784,355.264 292.061 C 355.039 292.200,354.988 292.147,355.130 291.918 C 355.254 291.717,355.481 291.630,355.633 291.724 C 356.010 291.957,356.956 290.071,356.683 289.630 C 356.554 289.422,356.606 289.365,356.810 289.491 C 357.224 289.747,360.377 284.102,360.156 283.499 C 360.074 283.276,360.142 283.176,360.306 283.277 C 360.701 283.521,363.217 278.502,362.993 277.919 C 362.898 277.671,362.940 277.542,363.087 277.633 C 363.430 277.845,365.614 273.129,368.215 266.563 C 370.406 261.029,370.915 259.513,370.313 260.313 C 370.030 260.687,370.002 260.624,370.171 260.000 C 370.287 259.570,370.516 259.078,370.679 258.906 C 370.868 258.706,370.900 258.791,370.766 259.141 C 370.652 259.441,370.632 259.687,370.722 259.688 C 370.991 259.688,372.581 254.664,372.376 254.459 C 372.272 254.356,372.188 254.497,372.188 254.773 C 372.188 255.050,372.060 255.354,371.904 255.451 C 371.748 255.547,371.773 255.130,371.959 254.524 C 372.145 253.918,372.391 253.574,372.507 253.761 C 372.820 254.267,376.426 241.621,376.179 240.881 C 376.123 240.714,375.679 242.213,375.191 244.212 C 374.704 246.211,374.249 247.791,374.180 247.722 C 374.112 247.654,374.614 245.291,375.297 242.471 C 376.822 236.168,377.919 230.268,378.733 223.996 C 379.981 214.383,380.150 211.507,380.150 200.000 C 380.150 188.493,379.981 185.617,378.733 176.004 C 377.919 169.732,376.822 163.832,375.297 157.529 C 374.614 154.709,374.112 152.346,374.180 152.278 C 374.249 152.209,374.704 153.789,375.191 155.788 C 375.679 157.787,376.123 159.286,376.179 159.119 C 376.426 158.379,372.820 145.733,372.507 146.239 C 372.391 146.426,372.145 146.082,371.959 145.476 C 371.773 144.870,371.748 144.453,371.904 144.549 C 372.060 144.646,372.188 144.950,372.188 145.227 C 372.188 145.503,372.272 145.644,372.376 145.541 C 372.581 145.336,370.991 140.313,370.722 140.313 C 370.632 140.313,370.652 140.559,370.766 140.859 C 370.900 141.209,370.868 141.294,370.679 141.094 C 370.516 140.922,370.287 140.430,370.171 140.000 C 370.002 139.376,370.030 139.313,370.313 139.688 C 370.915 140.487,370.406 138.971,368.215 133.438 C 365.614 126.871,363.430 122.155,363.087 122.367 C 362.940 122.458,362.898 122.329,362.993 122.081 C 363.217 121.498,360.701 116.479,360.306 116.723 C 360.142 116.824,360.074 116.724,360.156 116.501 C 360.377 115.898,357.224 110.253,356.810 110.509 C 356.606 110.635,356.554 110.578,356.683 110.370 C 356.956 109.929,356.010 108.043,355.633 108.276 C 355.481 108.370,355.254 108.283,355.130 108.082 C 354.988 107.853,355.039 107.800,355.264 107.939 C 355.713 108.216,355.723 107.955,355.297 107.158 C 355.116 106.821,354.845 106.622,354.693 106.715 C 354.542 106.809,354.316 106.721,354.192 106.519 C 354.051 106.291,354.101 106.237,354.327 106.376 C 354.775 106.654,354.786 106.393,354.359 105.596 C 354.179 105.258,353.907 105.059,353.756 105.153 C 353.605 105.246,353.379 105.158,353.255 104.957 C 353.105 104.715,353.165 104.675,353.430 104.839 C 353.697 105.004,353.783 104.942,353.686 104.653 C 353.607 104.414,353.389 104.219,353.203 104.219 C 353.017 104.219,352.747 104.091,352.604 103.934 C 352.453 103.769,352.507 103.744,352.734 103.875 C 353.211 104.149,353.231 103.906,352.797 103.096 C 352.616 102.758,352.345 102.559,352.193 102.653 C 352.042 102.746,351.816 102.658,351.692 102.457 C 351.543 102.215,351.602 102.175,351.867 102.339 C 352.135 102.504,352.220 102.442,352.124 102.153 C 352.044 101.914,351.827 101.719,351.641 101.719 C 351.454 101.719,351.185 101.591,351.042 101.434 C 350.888 101.266,350.958 101.252,351.212 101.400 C 351.507 101.571,351.598 101.512,351.499 101.215 C 351.419 100.977,351.202 100.781,351.016 100.781 C 350.829 100.781,350.560 100.653,350.417 100.497 C 350.263 100.329,350.333 100.315,350.587 100.462 C 350.882 100.633,350.973 100.575,350.874 100.278 C 350.794 100.039,350.577 99.844,350.391 99.844 C 350.204 99.844,349.935 99.716,349.792 99.559 C 349.638 99.391,349.708 99.377,349.962 99.525 C 350.257 99.696,350.348 99.637,350.249 99.340 C 350.169 99.102,349.952 98.906,349.766 98.906 C 349.579 98.906,349.310 98.778,349.167 98.622 C 349.013 98.454,349.083 98.440,349.337 98.587 C 349.632 98.758,349.723 98.700,349.624 98.403 C 349.544 98.164,349.327 97.969,349.141 97.969 C 348.954 97.969,348.685 97.841,348.542 97.684 C 348.390 97.519,348.445 97.494,348.672 97.625 C 349.254 97.960,349.144 97.330,348.534 96.835 C 348.174 96.544,348.080 96.531,348.240 96.797 C 348.582 97.366,348.272 97.275,347.773 96.659 C 347.409 96.210,347.409 96.169,347.775 96.390 C 348.073 96.569,348.161 96.516,348.061 96.215 C 347.982 95.977,347.764 95.781,347.578 95.781 C 347.392 95.781,347.122 95.653,346.979 95.497 C 346.828 95.331,346.882 95.306,347.109 95.437 C 347.692 95.772,347.581 95.143,346.971 94.648 C 346.612 94.356,346.518 94.344,346.677 94.609 C 347.019 95.179,346.710 95.087,346.210 94.471 C 345.846 94.023,345.847 93.982,346.212 94.202 C 346.512 94.383,346.596 94.330,346.486 94.028 C 346.399 93.789,346.183 93.624,346.007 93.662 C 345.830 93.699,345.496 93.488,345.264 93.193 C 344.885 92.709,344.897 92.698,345.391 93.085 C 345.691 93.321,345.938 93.373,345.938 93.202 C 345.938 92.850,344.978 91.974,344.770 92.135 C 344.696 92.193,344.542 92.135,344.427 92.007 C 344.312 91.879,344.395 91.876,344.609 92.000 C 344.824 92.123,345.000 92.093,345.000 91.932 C 345.000 91.550,344.209 90.895,344.000 91.104 C 343.912 91.193,343.643 91.016,343.404 90.711 C 343.008 90.207,343.018 90.195,343.516 90.585 C 344.307 91.205,344.189 90.521,343.384 89.814 C 343.010 89.487,342.808 89.395,342.933 89.609 C 343.265 90.177,342.960 90.088,342.460 89.471 C 342.169 89.112,342.156 89.018,342.422 89.177 C 343.083 89.575,342.854 88.882,342.115 88.252 C 341.424 87.662,341.422 87.663,341.875 88.281 C 342.328 88.900,342.326 88.900,341.635 88.311 C 340.920 87.701,340.691 87.311,341.250 87.656 C 341.854 88.030,341.555 87.278,340.865 86.689 C 340.174 86.100,340.172 86.100,340.625 86.719 C 341.078 87.337,341.076 87.338,340.385 86.748 C 339.670 86.139,339.441 85.748,340.000 86.094 C 340.604 86.467,340.305 85.715,339.615 85.127 C 338.924 84.537,338.922 84.538,339.371 85.156 C 339.709 85.622,339.608 85.588,338.975 85.024 C 338.091 84.236,337.772 83.693,338.594 84.375 C 339.749 85.334,338.870 84.033,337.101 82.167 C 336.031 81.038,335.436 80.476,335.778 80.917 C 336.209 81.473,336.041 81.388,335.231 80.642 C 334.095 79.595,333.590 78.906,334.531 79.688 C 334.789 79.901,335.000 79.975,335.000 79.850 C 335.000 79.443,328.055 72.194,327.810 72.345 C 327.523 72.523,326.810 71.732,327.045 71.497 C 327.800 70.741,309.398 55.631,300.205 49.459 C 296.280 46.824,293.327 45.025,295.156 46.384 C 296.652 47.495,297.049 47.889,296.094 47.316 C 284.434 40.316,276.944 36.517,266.854 32.486 C 242.220 22.643,214.209 18.210,188.125 20.027 M214.615 19.914 C 215.177 19.984,216.020 19.982,216.490 19.911 C 216.960 19.839,216.500 19.783,215.469 19.784 C 214.438 19.786,214.053 19.844,214.615 19.914 M178.438 20.313 C 177.175 20.509,177.143 20.533,178.125 20.547 C 178.727 20.556,179.992 20.456,180.938 20.326 C 182.634 20.091,182.638 20.088,181.250 20.091 C 180.477 20.093,179.211 20.192,178.438 20.313 M219.063 20.326 C 220.008 20.456,221.273 20.558,221.875 20.552 C 222.751 20.544,222.658 20.493,221.406 20.298 C 220.547 20.164,219.281 20.062,218.594 20.071 C 217.505 20.086,217.566 20.119,219.063 20.326 M170.938 21.332 C 168.789 21.686,167.172 22.024,167.344 22.082 C 167.516 22.140,169.766 21.849,172.344 21.434 C 174.922 21.020,176.539 20.682,175.938 20.684 C 175.336 20.686,173.086 20.977,170.938 21.332 M227.656 21.434 C 230.234 21.849,232.483 22.141,232.654 22.084 C 233.051 21.952,224.707 20.616,223.715 20.653 C 223.304 20.668,225.078 21.020,227.656 21.434 M160.938 23.264 C 155.392 24.531,149.944 25.986,150.112 26.154 C 150.181 26.223,151.906 25.833,153.947 25.287 C 155.987 24.742,159.766 23.832,162.344 23.265 C 164.922 22.698,166.680 22.232,166.250 22.231 C 165.820 22.229,163.430 22.694,160.938 23.264 M237.656 23.265 C 240.234 23.832,244.013 24.742,246.053 25.287 C 248.094 25.833,249.821 26.221,249.891 26.151 C 250.190 25.852,234.966 22.176,233.594 22.216 C 233.250 22.225,235.078 22.698,237.656 23.265 M144.375 27.770 C 139.112 29.500,134.309 31.288,134.476 31.455 C 134.539 31.518,135.562 31.197,136.749 30.739 C 137.935 30.282,141.367 29.094,144.375 28.098 C 147.383 27.102,149.633 26.286,149.375 26.284 C 149.117 26.282,146.867 26.951,144.375 27.770 M255.625 28.098 C 258.633 29.094,262.065 30.282,263.251 30.739 C 264.438 31.197,265.464 31.515,265.532 31.447 C 265.805 31.174,251.412 26.218,250.495 26.269 C 250.309 26.279,252.617 27.102,255.625 28.098 M129.063 33.543 C 124.515 35.518,121.819 36.835,122.276 36.861 C 122.411 36.869,123.196 36.533,124.021 36.115 C 124.846 35.697,127.408 34.555,129.714 33.577 C 132.020 32.600,133.965 31.747,134.036 31.681 C 134.479 31.277,133.053 31.811,129.063 33.543 M265.964 31.681 C 266.035 31.747,267.980 32.600,270.286 33.577 C 272.592 34.555,275.172 35.706,276.020 36.136 C 276.868 36.565,277.621 36.859,277.692 36.787 C 277.844 36.635,273.269 34.482,269.144 32.766 C 266.500 31.665,265.616 31.364,265.964 31.681 M119.297 37.988 C 118.137 38.584,117.188 39.141,117.188 39.227 C 117.188 39.367,121.531 37.286,121.849 36.995 C 122.276 36.602,121.123 37.051,119.297 37.988 M278.151 36.995 C 278.469 37.287,282.813 39.367,282.813 39.227 C 282.813 39.052,278.577 36.875,278.237 36.875 C 278.118 36.875,278.079 36.929,278.151 36.995 M114.114 40.784 C 110.386 42.786,105.625 45.614,105.625 45.827 C 105.625 45.927,105.941 45.805,106.328 45.554 C 107.628 44.713,113.578 41.339,115.234 40.504 C 116.137 40.049,116.875 39.609,116.875 39.526 C 116.875 39.299,116.906 39.285,114.114 40.784 M283.125 39.498 C 283.125 39.596,283.863 40.049,284.766 40.504 C 286.422 41.339,292.372 44.713,293.672 45.554 C 294.059 45.805,294.375 45.928,294.375 45.829 C 294.375 45.730,293.145 44.921,291.641 44.031 C 287.938 41.841,283.125 39.279,283.125 39.498 M102.641 48.082 C 102.042 48.626,97.500 51.577,97.500 51.421 C 97.500 51.333,98.659 50.485,100.075 49.537 C 102.467 47.936,103.358 47.431,102.641 48.082 M300.234 49.752 C 301.480 50.587,302.500 51.339,302.500 51.425 C 302.500 51.599,297.836 48.534,297.344 48.037 C 296.874 47.562,297.657 48.027,300.234 49.752 M97.188 51.689 C 97.188 51.759,96.449 52.344,95.547 52.989 C 94.645 53.634,93.414 54.519,92.813 54.954 C 92.211 55.390,91.878 55.568,92.072 55.348 C 92.735 54.601,97.188 51.416,97.188 51.689 M307.344 54.875 L 308.281 55.694 307.188 54.928 C 304.189 52.828,302.813 51.803,302.813 51.669 C 302.813 51.473,306.162 53.843,307.344 54.875 M91.563 55.755 C 91.563 55.827,90.332 56.844,88.828 58.015 C 87.324 59.186,84.547 61.455,82.656 63.057 C 80.766 64.659,80.063 65.172,81.094 64.198 C 83.696 61.740,91.563 55.396,91.563 55.755 M315.938 61.597 C 317.914 63.254,319.813 64.932,320.156 65.326 C 320.500 65.721,319.234 64.716,317.344 63.094 C 315.453 61.472,312.676 59.186,311.172 58.015 C 309.668 56.844,308.438 55.819,308.438 55.737 C 308.438 55.510,311.935 58.243,315.938 61.597 M76.875 68.281 C 75.595 69.570,74.477 70.625,74.391 70.625 C 74.305 70.625,75.282 69.570,76.563 68.281 C 77.843 66.992,78.961 65.938,79.047 65.938 C 79.133 65.938,78.155 66.992,76.875 68.281 M323.445 68.359 L 325.781 70.781 323.359 68.445 C 321.110 66.276,320.795 65.938,321.023 65.938 C 321.071 65.938,322.161 67.027,323.445 68.359 M70.625 74.462 C 70.625 74.509,69.605 75.529,68.359 76.727 L 66.094 78.906 68.273 76.641 C 70.297 74.536,70.625 74.232,70.625 74.462 M331.719 76.563 C 332.913 77.766,333.819 78.750,333.733 78.750 C 333.647 78.750,332.600 77.766,331.406 76.563 C 330.212 75.359,329.306 74.375,329.392 74.375 C 329.478 74.375,330.525 75.359,331.719 76.563 M63.750 81.973 C 63.750 82.027,63.293 82.484,62.734 82.988 L 61.719 83.906 62.637 82.891 C 63.492 81.944,63.750 81.731,63.750 81.973 M337.363 82.891 L 338.281 83.906 337.266 82.988 C 336.319 82.133,336.106 81.875,336.348 81.875 C 336.402 81.875,336.859 82.332,337.363 82.891 M146.875 95.469 L 146.875 100.313 151.250 100.313 L 155.625 100.313 155.625 95.469 L 155.625 90.625 160.781 90.625 L 165.938 90.625 165.938 105.469 L 165.938 120.313 160.781 120.313 L 155.625 120.313 155.625 115.343 L 155.625 110.374 151.250 110.330 L 146.875 110.286 146.875 115.299 L 146.875 120.313 141.875 120.313 L 136.875 120.313 136.875 105.469 L 136.875 90.625 141.875 90.625 L 146.875 90.625 146.875 95.469 M197.188 95.625 L 197.188 100.625 192.891 100.625 L 188.594 100.625 188.680 110.469 L 188.767 120.313 183.602 120.313 L 178.438 120.313 178.438 110.469 L 178.438 100.625 174.219 100.625 L 170.000 100.625 170.000 95.625 L 170.000 90.625 183.594 90.625 L 197.188 90.625 197.188 95.625 M214.873 95.625 C 216.545 98.375,217.996 100.624,218.097 100.622 C 218.199 100.620,219.622 98.405,221.260 95.700 L 224.239 90.781 229.463 90.696 L 234.688 90.610 234.688 105.461 L 234.688 120.313 229.688 120.313 L 224.688 120.313 224.685 113.203 L 224.682 106.094 221.749 110.625 C 220.136 113.117,218.621 115.419,218.383 115.740 C 217.984 116.276,217.676 115.907,214.607 111.209 L 211.266 106.094 211.258 113.203 L 211.250 120.313 206.250 120.313 L 201.250 120.313 201.250 105.469 L 201.250 90.625 206.541 90.625 L 211.832 90.625 214.873 95.625 M249.618 100.469 L 249.531 110.313 256.484 110.313 L 263.438 110.313 263.438 115.313 L 263.438 120.313 251.406 120.313 L 239.375 120.313 239.375 105.469 L 239.375 90.625 244.540 90.625 L 249.705 90.625 249.618 100.469 M33.631 130.207 C 33.366 130.695,33.144 130.995,33.138 130.874 C 33.116 130.503,33.843 129.052,33.981 129.190 C 34.053 129.261,33.895 129.719,33.631 130.207 M366.853 130.781 C 366.853 130.953,366.652 130.742,366.406 130.313 C 366.161 129.883,365.960 129.391,365.960 129.219 C 365.960 129.047,366.161 129.258,366.406 129.688 C 366.652 130.117,366.853 130.609,366.853 130.781 M277.500 133.733 C 277.500 134.413,263.420 291.683,263.354 291.745 C 263.314 291.783,249.022 295.766,231.595 300.597 L 199.908 309.381 168.323 300.612 C 150.951 295.789,136.696 291.801,136.645 291.750 C 136.566 291.670,122.500 134.528,122.500 133.723 C 122.500 133.551,153.339 133.438,200.000 133.438 C 248.502 133.438,277.500 133.548,277.500 133.733 M31.441 135.747 C 30.796 137.291,30.555 137.180,31.168 135.622 C 31.438 134.932,31.717 134.425,31.786 134.494 C 31.855 134.563,31.700 135.127,31.441 135.747 M368.857 135.703 C 369.125 136.348,369.273 136.875,369.187 136.875 C 369.021 136.875,368.125 134.861,368.125 134.489 C 368.125 134.110,368.356 134.493,368.857 135.703 M30.573 138.141 C 30.390 138.665,30.182 139.036,30.111 138.966 C 29.957 138.811,30.546 137.188,30.757 137.188 C 30.839 137.188,30.755 137.617,30.573 138.141 M369.704 138.012 C 369.876 138.466,369.959 138.895,369.889 138.966 C 369.818 139.036,369.610 138.665,369.427 138.141 C 369.021 136.975,369.266 136.861,369.704 138.012 M27.159 148.409 C 26.948 149.114,26.717 149.634,26.647 149.564 C 26.577 149.493,26.692 148.859,26.903 148.153 C 27.115 147.448,27.345 146.928,27.415 146.999 C 27.486 147.069,27.370 147.704,27.159 148.409 M373.390 149.375 C 373.390 149.633,373.200 149.352,372.969 148.750 C 372.737 148.148,372.548 147.445,372.548 147.188 C 372.548 146.930,372.737 147.211,372.969 147.813 C 373.200 148.414,373.390 149.117,373.390 149.375 M26.384 151.071 C 26.269 151.529,26.115 151.844,26.041 151.770 C 25.967 151.697,26.001 151.262,26.116 150.804 C 26.231 150.346,26.385 150.031,26.459 150.105 C 26.533 150.178,26.499 150.613,26.384 151.071 M374.019 151.563 C 374.019 151.858,373.919 151.800,373.750 151.406 C 373.602 151.063,373.481 150.570,373.481 150.313 C 373.481 150.017,373.581 150.075,373.750 150.469 C 373.898 150.813,374.019 151.305,374.019 151.563 M23.299 160.799 C 23.181 161.426,23.147 162.001,23.224 162.078 C 23.300 162.154,23.459 161.704,23.576 161.076 C 23.694 160.449,23.728 159.874,23.651 159.797 C 23.575 159.721,23.416 160.171,23.299 160.799 M376.312 160.156 C 376.312 160.500,376.425 161.133,376.563 161.563 C 376.761 162.181,376.813 162.214,376.813 161.719 C 376.813 161.375,376.700 160.742,376.563 160.313 C 376.364 159.694,376.312 159.661,376.312 160.156 M22.500 164.531 C 22.286 165.664,22.175 166.654,22.252 166.731 C 22.329 166.808,22.564 165.942,22.773 164.805 C 22.983 163.668,23.095 162.678,23.021 162.605 C 22.948 162.532,22.714 163.399,22.500 164.531 M376.926 162.813 C 376.913 163.070,377.093 164.125,377.325 165.156 C 377.558 166.188,377.749 166.680,377.750 166.250 C 377.753 165.373,376.962 162.079,376.926 162.813 M151.250 166.056 C 151.250 166.293,152.445 179.442,153.906 195.276 C 155.367 211.110,156.563 224.205,156.563 224.375 C 156.563 224.578,168.124 224.658,190.156 224.608 L 223.750 224.531 223.735 225.313 C 223.726 225.742,223.267 231.363,222.714 237.803 L 221.709 249.512 210.847 252.615 L 199.985 255.719 189.184 252.658 C 183.244 250.974,178.329 249.441,178.263 249.251 C 178.198 249.062,177.858 246.094,177.509 242.656 C 177.160 239.219,176.798 235.949,176.704 235.391 L 176.534 234.375 166.929 234.375 L 157.323 234.375 158.808 249.574 C 159.625 257.933,160.333 264.805,160.381 264.844 C 160.429 264.883,169.388 267.310,180.290 270.236 L 200.111 275.557 219.665 270.245 C 230.420 267.324,239.270 264.886,239.332 264.828 C 239.394 264.769,240.476 252.093,241.735 236.658 C 242.994 221.222,244.110 207.785,244.215 206.797 L 244.406 205.000 209.410 205.000 L 174.413 205.000 174.226 203.672 C 173.871 201.164,172.245 185.781,172.326 185.698 C 172.370 185.652,189.085 185.618,209.470 185.622 L 246.533 185.630 246.692 184.612 C 246.857 183.553,248.137 167.133,248.129 166.172 C 248.125 165.653,245.609 165.625,199.688 165.625 C 158.741 165.625,151.250 165.692,151.250 166.056 M21.449 170.385 C 20.679 175.139,19.995 180.610,20.035 181.699 C 20.054 182.225,20.263 181.109,20.498 179.219 C 20.733 177.328,21.220 173.905,21.580 171.612 C 21.940 169.319,22.175 167.383,22.102 167.310 C 22.028 167.237,21.734 168.621,21.449 170.385 M377.849 167.521 C 377.829 167.790,377.969 168.845,378.159 169.864 C 378.350 170.884,378.830 174.180,379.225 177.188 C 379.620 180.195,379.956 182.216,379.972 181.677 C 380.029 179.709,377.966 165.951,377.849 167.521 M19.531 186.308 C 19.410 188.253,19.365 190.195,19.431 190.625 C 19.497 191.055,19.658 189.526,19.789 187.227 C 19.920 184.929,19.965 182.986,19.889 182.910 C 19.814 182.834,19.652 184.364,19.531 186.308 M380.232 186.875 C 380.321 189.195,380.446 191.152,380.510 191.224 C 380.705 191.445,380.565 186.833,380.311 184.688 C 380.156 183.376,380.128 184.151,380.232 186.875 M19.200 200.000 C 19.200 204.727,19.243 206.660,19.296 204.297 C 19.349 201.934,19.349 198.066,19.296 195.703 C 19.243 193.340,19.200 195.273,19.200 200.000 M380.762 200.000 C 380.762 204.727,380.806 206.660,380.859 204.297 C 380.912 201.934,380.912 198.066,380.859 195.703 C 380.806 193.340,380.762 195.273,380.762 200.000 M19.412 210.964 C 19.432 212.238,19.556 214.195,19.689 215.313 C 19.844 216.624,19.872 215.849,19.768 213.125 C 19.594 208.606,19.351 207.130,19.412 210.964 M380.211 212.773 C 380.080 215.071,380.035 217.014,380.111 217.090 C 380.303 217.282,380.716 210.330,380.569 209.375 C 380.503 208.945,380.342 210.474,380.211 212.773 M20.035 218.301 C 19.970 220.084,21.821 232.971,22.102 232.690 C 22.175 232.617,21.940 230.681,21.580 228.388 C 21.220 226.095,20.733 222.672,20.498 220.781 C 20.263 218.891,20.054 217.775,20.035 218.301 M379.441 220.902 C 379.220 222.859,378.954 225.109,378.850 225.902 C 378.747 226.695,378.738 227.273,378.830 227.188 C 379.079 226.957,380.064 218.894,379.945 218.059 C 379.889 217.666,379.663 218.945,379.441 220.902 M378.158 230.033 C 377.945 231.424,377.832 232.624,377.908 232.699 C 377.983 232.775,378.222 231.701,378.438 230.313 C 378.653 228.924,378.766 227.724,378.688 227.646 C 378.609 227.568,378.371 228.642,378.158 230.033 M22.250 233.750 C 22.247 234.627,23.038 237.921,23.074 237.188 C 23.087 236.930,22.907 235.875,22.675 234.844 C 22.442 233.813,22.251 233.320,22.250 233.750 M377.227 235.195 C 377.017 236.332,376.905 237.322,376.979 237.395 C 377.052 237.468,377.286 236.601,377.500 235.469 C 377.714 234.336,377.825 233.346,377.748 233.269 C 377.671 233.192,377.436 234.058,377.227 235.195 M23.187 238.281 C 23.187 238.625,23.300 239.258,23.438 239.688 C 23.636 240.306,23.688 240.339,23.688 239.844 C 23.688 239.500,23.575 238.867,23.438 238.438 C 23.239 237.819,23.187 237.786,23.187 238.281 M376.424 238.924 C 376.306 239.551,376.272 240.126,376.349 240.203 C 376.425 240.279,376.584 239.829,376.701 239.201 C 376.819 238.574,376.853 237.999,376.776 237.922 C 376.700 237.846,376.541 238.296,376.424 238.924 M26.519 249.688 C 26.519 249.983,26.419 249.925,26.250 249.531 C 26.102 249.188,25.981 248.695,25.981 248.438 C 25.981 248.142,26.081 248.200,26.250 248.594 C 26.398 248.938,26.519 249.430,26.519 249.688 M373.884 249.196 C 373.769 249.654,373.615 249.969,373.541 249.895 C 373.467 249.822,373.501 249.387,373.616 248.929 C 373.731 248.471,373.885 248.156,373.959 248.230 C 374.033 248.303,373.999 248.738,373.884 249.196 M27.452 252.813 C 27.452 253.070,27.263 252.789,27.031 252.188 C 26.800 251.586,26.610 250.883,26.610 250.625 C 26.610 250.367,26.800 250.648,27.031 251.250 C 27.263 251.852,27.452 252.555,27.452 252.813 M373.097 251.847 C 372.885 252.552,372.655 253.072,372.585 253.001 C 372.514 252.931,372.630 252.296,372.841 251.591 C 373.052 250.886,373.283 250.366,373.353 250.436 C 373.423 250.507,373.308 251.141,373.097 251.847 M30.603 261.946 C 30.796 262.501,30.826 262.817,30.669 262.649 C 30.335 262.293,29.889 260.938,30.105 260.938 C 30.185 260.938,30.410 261.391,30.603 261.946 M369.704 261.988 C 369.266 263.139,369.021 263.025,369.427 261.859 C 369.610 261.335,369.818 260.964,369.889 261.034 C 369.959 261.105,369.876 261.534,369.704 261.988 M31.441 264.253 C 31.700 264.873,31.855 265.437,31.786 265.506 C 31.717 265.575,31.438 265.068,31.168 264.378 C 30.555 262.820,30.796 262.709,31.441 264.253 M368.832 264.378 C 368.562 265.068,368.283 265.575,368.214 265.506 C 368.064 265.355,368.966 263.125,369.178 263.125 C 369.259 263.125,369.103 263.689,368.832 264.378 M34.040 270.781 C 34.040 270.953,33.839 270.742,33.594 270.313 C 33.348 269.883,33.147 269.391,33.147 269.219 C 33.147 269.047,33.348 269.258,33.594 269.688 C 33.839 270.117,34.040 270.609,34.040 270.781 M366.443 270.207 C 366.179 270.695,365.957 270.995,365.950 270.874 C 365.929 270.503,366.656 269.052,366.794 269.190 C 366.865 269.261,366.708 269.719,366.443 270.207 M62.988 317.266 L 63.906 318.281 62.891 317.363 C 61.944 316.508,61.731 316.250,61.973 316.250 C 62.027 316.250,62.484 316.707,62.988 317.266 M338.125 316.348 C 338.125 316.402,337.668 316.859,337.109 317.363 L 336.094 318.281 337.012 317.266 C 337.867 316.319,338.125 316.106,338.125 316.348 M68.594 323.438 C 69.788 324.641,70.694 325.625,70.608 325.625 C 70.522 325.625,69.475 324.641,68.281 323.438 C 67.087 322.234,66.181 321.250,66.267 321.250 C 66.353 321.250,67.400 322.234,68.594 323.438 M333.750 321.337 C 333.750 321.384,332.730 322.404,331.484 323.602 L 329.219 325.781 331.398 323.516 C 333.422 321.411,333.750 321.107,333.750 321.337 M76.883 331.797 L 79.219 334.219 76.797 331.883 C 74.547 329.713,74.232 329.375,74.461 329.375 C 74.508 329.375,75.598 330.465,76.883 331.797 M323.438 331.719 C 322.157 333.008,321.039 334.063,320.953 334.063 C 320.867 334.063,321.845 333.008,323.125 331.719 C 324.405 330.430,325.523 329.375,325.609 329.375 C 325.695 329.375,324.718 330.430,323.438 331.719 M88.828 341.985 C 90.332 343.156,91.563 344.181,91.563 344.263 C 91.563 344.658,81.042 336.049,79.844 334.674 C 79.500 334.279,80.766 335.284,82.656 336.906 C 84.547 338.528,87.324 340.814,88.828 341.985 M320.127 334.727 C 319.404 335.533,313.092 340.840,310.391 342.913 C 306.894 345.596,308.332 344.242,312.734 340.705 C 315.098 338.807,317.805 336.542,318.750 335.672 C 320.567 334.000,321.115 333.624,320.127 334.727 M95.547 347.011 C 96.449 347.656,97.188 348.250,97.188 348.331 C 97.188 348.527,93.838 346.157,92.656 345.125 L 91.719 344.306 92.813 345.072 C 93.414 345.493,94.645 346.366,95.547 347.011 M307.344 345.171 C 306.136 346.166,302.558 348.642,302.969 348.198 C 303.387 347.746,307.927 344.401,308.125 344.399 C 308.211 344.398,307.859 344.745,307.344 345.171 M102.656 351.963 C 103.126 352.438,102.343 351.973,99.766 350.248 C 98.520 349.413,97.500 348.661,97.500 348.575 C 97.500 348.401,102.164 351.466,102.656 351.963 M302.500 348.584 C 302.500 348.721,298.548 351.441,297.500 352.026 C 296.453 352.610,297.631 351.686,299.916 350.129 C 302.531 348.347,302.500 348.366,302.500 348.584 M105.625 354.171 C 105.625 354.270,106.855 355.079,108.359 355.969 C 112.062 358.159,116.875 360.721,116.875 360.502 C 116.875 360.404,116.137 359.951,115.234 359.496 C 113.578 358.661,107.628 355.287,106.328 354.446 C 105.941 354.195,105.625 354.072,105.625 354.171 M291.563 355.682 C 290.102 356.558,287.605 357.971,286.016 358.822 C 284.426 359.672,283.125 360.439,283.125 360.524 C 283.125 360.610,284.426 359.985,286.016 359.134 C 290.900 356.519,295.144 353.928,294.297 354.076 C 294.254 354.084,293.023 354.807,291.563 355.682 M117.188 360.780 C 117.188 360.989,121.601 363.191,121.740 363.052 C 121.802 362.990,120.803 362.419,119.520 361.784 C 118.237 361.150,117.188 360.698,117.188 360.780 M280.313 361.875 C 279.023 362.545,278.078 363.101,278.211 363.110 C 278.543 363.131,282.813 360.967,282.813 360.777 C 282.813 360.566,282.915 360.521,280.313 361.875 M123.779 364.058 C 126.146 365.280,133.778 368.514,133.932 368.360 C 134.000 368.292,132.897 367.764,131.481 367.186 C 130.065 366.609,127.445 365.459,125.660 364.631 C 122.062 362.962,121.076 362.661,123.779 364.058 M276.250 363.746 C 275.648 364.073,273.088 365.221,270.560 366.297 C 268.031 367.374,266.014 368.306,266.077 368.369 C 266.140 368.432,268.055 367.691,270.333 366.722 C 274.639 364.890,278.196 363.156,277.656 363.153 C 277.484 363.152,276.852 363.419,276.250 363.746 M135.625 369.112 C 137.459 369.935,148.871 373.756,149.420 373.731 C 149.653 373.721,147.383 372.898,144.375 371.902 C 141.367 370.906,137.940 369.720,136.760 369.265 C 134.242 368.295,133.613 368.210,135.625 369.112 M264.063 368.947 C 263.461 369.214,260.086 370.399,256.563 371.580 C 253.039 372.761,250.347 373.732,250.580 373.739 C 251.141 373.754,262.577 369.918,264.375 369.112 C 265.148 368.765,265.641 368.477,265.469 368.472 C 265.297 368.466,264.664 368.680,264.063 368.947 M150.034 373.888 C 150.468 374.322,165.293 377.839,166.479 377.790 C 166.783 377.777,164.922 377.302,162.344 376.735 C 159.766 376.168,156.011 375.264,154.000 374.727 C 150.341 373.749,149.775 373.630,150.034 373.888 M245.938 374.720 C 244.133 375.220,240.477 376.110,237.813 376.698 C 235.148 377.285,233.217 377.777,233.521 377.789 C 234.706 377.839,249.532 374.322,249.966 373.888 C 250.251 373.604,249.124 373.836,245.938 374.720 M167.214 377.938 C 167.418 378.133,175.417 379.378,176.269 379.347 C 176.688 379.331,174.992 378.985,172.500 378.578 C 167.890 377.825,166.982 377.715,167.214 377.938 M227.188 378.605 C 224.867 378.994,223.312 379.326,223.731 379.344 C 224.576 379.378,232.580 378.136,232.786 377.938 C 233.030 377.704,231.414 377.896,227.188 378.605 M178.594 379.702 C 179.453 379.836,180.719 379.938,181.406 379.929 C 182.495 379.914,182.434 379.881,180.938 379.674 C 179.992 379.544,178.727 379.442,178.125 379.448 C 177.249 379.456,177.342 379.507,178.594 379.702 M218.906 379.688 C 217.415 379.892,217.400 379.903,218.594 379.924 C 219.281 379.935,220.547 379.836,221.406 379.702 C 223.515 379.373,221.289 379.361,218.906 379.688 M183.677 380.226 C 184.239 380.296,185.083 380.295,185.552 380.223 C 186.022 380.152,185.563 380.095,184.531 380.097 C 183.500 380.099,183.116 380.157,183.677 380.226 M214.615 380.226 C 215.177 380.296,216.020 380.295,216.490 380.223 C 216.960 380.152,216.500 380.095,215.469 380.097 C 214.438 380.099,214.053 380.157,214.615 380.226 M189.375 380.668 C 191.008 380.778,195.789 380.868,200.000 380.868 C 204.211 380.868,208.992 380.778,210.625 380.668 C 212.258 380.558,207.477 380.469,200.000 380.469 C 192.523 380.469,187.742 380.558,189.375 380.668 " stroke="none" fill="#e44b23" fill-rule="evenodd"></path><path id="path1" d="M137.059 90.893 C 136.962 91.049,136.916 97.698,136.957 105.667 L 137.031 120.156 141.953 120.242 L 146.875 120.328 146.875 115.320 L 146.875 110.313 151.406 110.313 L 155.938 110.313 155.938 115.313 L 155.938 120.313 160.781 120.313 L 165.625 120.313 165.625 105.469 L 165.625 90.625 160.781 90.625 L 155.938 90.625 155.938 95.625 L 155.938 100.625 151.414 100.625 L 146.891 100.625 146.805 95.703 L 146.719 90.781 141.977 90.695 C 139.363 90.648,137.155 90.737,137.059 90.893 M170.000 95.640 L 170.000 100.655 174.297 100.606 L 178.594 100.557 178.676 110.435 L 178.759 120.313 183.594 120.313 L 188.429 120.313 188.511 110.435 L 188.594 100.557 192.891 100.606 L 197.188 100.655 197.188 95.640 L 197.188 90.625 183.594 90.625 L 170.000 90.625 170.000 95.640 M201.563 105.477 L 201.563 120.329 206.328 120.243 L 211.094 120.156 211.094 113.047 C 211.094 109.137,211.164 105.939,211.250 105.941 C 211.336 105.943,212.873 108.212,214.666 110.983 C 217.762 115.767,217.951 115.991,218.416 115.416 C 218.686 115.083,220.172 112.820,221.719 110.388 C 223.266 107.955,224.637 105.959,224.766 105.951 C 224.895 105.944,225.000 109.172,225.000 113.125 L 225.000 120.313 229.847 120.313 L 234.694 120.313 234.612 105.547 L 234.531 90.781 229.506 90.696 L 224.481 90.610 221.381 95.766 C 219.676 98.602,218.211 100.925,218.125 100.928 C 218.039 100.931,217.135 99.564,216.117 97.889 C 215.099 96.214,213.660 93.895,212.920 92.734 L 211.575 90.625 206.569 90.625 L 201.563 90.625 201.563 105.477 M239.688 105.469 L 239.688 120.313 251.406 120.313 L 263.125 120.313 263.125 115.469 L 263.125 110.625 256.250 110.625 L 249.375 110.625 249.375 100.625 L 249.375 90.625 244.531 90.625 L 239.688 90.625 239.688 105.469 M122.716 134.609 C 122.775 135.082,125.913 170.273,129.690 212.813 C 133.467 255.352,136.593 290.498,136.638 290.917 C 136.714 291.633,197.352 309.034,199.850 309.057 C 200.197 309.060,214.608 305.145,231.875 300.356 L 263.270 291.649 270.201 214.028 C 274.013 171.336,277.181 135.809,277.240 135.078 L 277.348 133.750 199.978 133.750 L 122.608 133.750 122.716 134.609 M248.284 167.109 C 248.072 168.907,246.875 184.095,246.875 184.990 C 246.875 185.625,246.870 185.625,209.688 185.625 C 180.149 185.625,172.499 185.705,172.495 186.016 C 172.492 186.230,172.938 190.590,173.488 195.703 L 174.486 205.000 209.430 205.000 L 244.375 205.000 244.379 205.703 C 244.384 206.617,239.629 264.818,239.541 264.925 C 239.504 264.969,230.615 267.415,219.789 270.359 L 200.104 275.713 180.146 270.347 C 169.170 267.395,160.171 264.950,160.148 264.912 C 160.126 264.875,159.509 258.586,158.777 250.938 C 158.046 243.289,157.369 236.434,157.275 235.703 L 157.103 234.375 166.942 234.375 L 176.782 234.375 177.477 241.328 C 177.860 245.152,178.276 248.550,178.403 248.879 C 178.587 249.358,180.764 250.086,189.270 252.515 L 199.908 255.553 210.553 252.542 C 216.408 250.886,221.280 249.449,221.380 249.350 C 221.480 249.250,221.980 244.187,222.492 238.100 C 223.004 232.012,223.483 226.504,223.557 225.859 L 223.691 224.688 190.132 224.688 L 156.574 224.688 156.426 223.984 C 156.344 223.598,155.144 210.766,153.759 195.469 C 152.375 180.172,151.167 167.199,151.076 166.641 L 150.909 165.625 199.684 165.625 L 248.459 165.625 248.284 167.109 " stroke="none" fill="#fbfbfb" fill-rule="evenodd"></path><path id="path2" d="M155.750 95.469 C 155.750 98.047,155.799 99.060,155.858 97.720 C 155.916 96.380,155.916 94.271,155.857 93.033 C 155.798 91.794,155.750 92.891,155.750 95.469 M165.769 105.469 C 165.769 113.547,165.810 116.896,165.859 112.912 C 165.908 108.928,165.909 102.319,165.859 98.225 C 165.810 94.131,165.769 97.391,165.769 105.469 M178.576 110.469 C 178.576 115.625,178.619 117.778,178.671 115.254 C 178.724 112.729,178.724 108.510,178.671 105.879 C 178.619 103.247,178.576 105.313,178.576 110.469 M155.750 115.469 C 155.750 118.047,155.799 119.060,155.858 117.720 C 155.916 116.380,155.916 114.271,155.857 113.033 C 155.798 111.794,155.750 112.891,155.750 115.469 " stroke="none" fill="#ec7454" fill-rule="evenodd"></path><path id="path3" d="M239.519 105.469 C 239.519 113.547,239.560 116.896,239.609 112.912 C 239.658 108.928,239.659 102.319,239.609 98.225 C 239.560 94.131,239.519 97.391,239.519 105.469 M149.155 100.545 C 150.495 100.604,152.604 100.603,153.842 100.544 C 155.081 100.485,153.984 100.437,151.406 100.437 C 148.828 100.438,147.815 100.486,149.155 100.545 M224.612 110.703 C 224.763 119.635,224.873 120.479,224.936 113.203 C 224.971 109.207,224.895 105.937,224.766 105.937 C 224.637 105.937,224.568 108.081,224.612 110.703 M256.320 110.544 L 263.109 110.637 263.208 115.475 L 263.306 120.313 263.294 115.391 L 263.281 110.469 256.406 110.460 L 249.531 110.451 256.320 110.544 " stroke="none" fill="#ed896f" fill-rule="evenodd"></path><path id="path4" d="M249.514 100.313 C 249.514 105.727,249.557 107.941,249.609 105.234 C 249.661 102.527,249.661 98.098,249.609 95.391 C 249.557 92.684,249.514 94.898,249.514 100.313 M201.394 105.469 C 201.394 113.375,201.435 116.565,201.484 112.557 C 201.534 108.549,201.534 102.080,201.484 98.182 C 201.434 94.283,201.394 97.563,201.394 105.469 M188.576 110.469 C 188.576 115.625,188.619 117.778,188.671 115.254 C 188.724 112.729,188.724 108.510,188.671 105.879 C 188.619 103.247,188.576 105.313,188.576 110.469 M161.484 133.672 C 182.668 133.716,217.332 133.716,238.516 133.672 C 259.699 133.628,242.367 133.591,200.000 133.591 C 157.633 133.591,140.301 133.628,161.484 133.672 " stroke="none" fill="#eb6b4a" fill-rule="evenodd"></path></g></svg>