<?xml version="1.0" standalone="no"?>
<!DOCTYPE svg PUBLIC "-//W3C//DTD SVG 20010904//EN"
 "http://www.w3.org/TR/2001/REC-SVG-20010904/DTD/svg10.dtd">
<svg version="1.0" xmlns="http://www.w3.org/2000/svg"
 width="1280.000000pt" height="1280.000000pt" viewBox="0 0 1280.000000 1280.000000"
 preserveAspectRatio="xMidYMid meet">
<metadata>
Created by potrace 1.16, written by Peter Selinger 2001-2019
</metadata>
<g transform="translate(0.000000,1280.000000) scale(0.100000,-0.100000)"
fill="#000000" stroke="none">
<path d="M5966 12154 c-507 -39 -996 -140 -1454 -299 -141 -49 -147 -50 -136
-33 4 7 3 8 -5 4 -6 -4 -9 -11 -6 -16 2 -4 -23 -18 -58 -31 -34 -12 -118 -47
-185 -76 -68 -29 -129 -50 -135 -46 -5 3 -7 1 -4 -4 8 -13 -20 -26 -35 -16 -7
4 -8 1 -3 -7 6 -10 4 -12 -11 -6 -10 4 -15 4 -12 0 7 -6 -168 -96 -189 -97 -7
0 -10 -4 -8 -8 7 -10 -25 -20 -38 -12 -7 3 -9 3 -5 -2 9 -9 -228 -145 -245
-141 -7 1 -8 1 -4 -2 4 -2 0 -10 -10 -18 -22 -17 -37 -18 -27 -2 4 7 3 8 -5 4
-6 -4 -8 -12 -5 -18 5 -8 1 -9 -10 -5 -9 4 -15 3 -12 -2 7 -11 -41 -44 -54
-36 -5 3 -14 -4 -20 -15 -6 -11 -16 -20 -23 -20 -8 0 -7 4 3 11 13 9 13 10 0
6 -8 -2 -15 -9 -15 -15 0 -7 -31 -32 -70 -58 -38 -25 -59 -36 -46 -25 13 12
19 21 13 21 -6 0 -21 -13 -34 -30 -30 -38 -119 -101 -131 -93 -6 3 -7 1 -4 -4
4 -6 -5 -19 -19 -28 -18 -11 -24 -12 -18 -4 4 8 -9 -3 -29 -24 -20 -22 -41
-36 -47 -32 -6 4 -9 2 -8 -3 4 -12 -122 -113 -132 -107 -4 3 -14 -3 -21 -13
-13 -16 -12 -16 6 -3 19 14 19 13 -1 -8 -11 -12 -27 -23 -36 -24 -8 -2 -27
-13 -44 -26 -28 -22 -15 -20 16 3 9 6 -11 -14 -45 -45 -39 -37 -63 -53 -67
-45 -8 11 -9 9 -12 -16 -1 -7 -8 -12 -15 -10 -7 1 -10 -1 -7 -6 3 -5 -24 -37
-59 -72 -36 -36 -65 -62 -65 -58 0 3 26 32 58 64 l57 57 -72 -63 c-40 -34 -78
-74 -85 -88 -7 -15 -17 -27 -23 -27 -15 0 -57 -40 -126 -120 l-61 -70 66 67
c36 37 66 64 66 60 0 -12 -134 -142 -146 -142 -6 0 -25 -19 -43 -42 l-33 -43
36 37 c64 67 38 30 -51 -72 -47 -55 -91 -100 -97 -100 -6 0 -17 -10 -25 -22
l-14 -23 24 20 c12 11 6 -1 -15 -27 -21 -27 -44 -48 -50 -48 -14 0 -38 -38
-31 -49 2 -5 -3 -15 -13 -22 -15 -13 -16 -12 -3 4 9 11 10 17 2 17 -6 0 -11
-4 -11 -9 0 -5 -8 -17 -17 -26 -9 -10 -17 -25 -18 -34 -2 -24 -66 -111 -82
-111 -12 0 -17 -12 -14 -36 1 -6 -6 -17 -14 -24 -13 -11 -14 -10 -9 6 6 18 5
17 -9 -1 -19 -23 -22 -39 -5 -29 7 4 8 3 4 -4 -4 -7 -12 -12 -18 -12 -12 0
-37 -30 -38 -44 0 -4 9 2 21 15 l20 24 -17 -27 c-9 -16 -23 -28 -30 -28 -8 0
-14 -5 -14 -11 0 -5 6 -7 13 -3 7 4 9 3 4 -2 -5 -5 -13 -10 -18 -10 -22 -3
-23 -5 -10 -13 11 -7 9 -13 -8 -30 -11 -11 -19 -21 -16 -21 3 0 -2 -11 -11
-25 -9 -14 -24 -25 -33 -25 -14 0 -14 -2 -1 -10 11 -7 11 -10 2 -10 -7 0 -11
-4 -7 -10 3 -5 -3 -18 -15 -30 -11 -11 -20 -23 -20 -27 0 -5 -4 -8 -9 -8 -5 0
-13 -4 -18 -9 -5 -5 -3 -6 5 -2 6 4 12 2 12 -3 0 -6 -8 -11 -17 -12 -13 0 -14
-2 -4 -6 10 -4 7 -11 -11 -27 -13 -11 -18 -17 -11 -12 10 6 12 4 7 -8 -3 -9
-10 -16 -16 -16 -5 0 -7 -4 -4 -8 3 -5 -4 -21 -15 -38 -11 -16 -19 -23 -19
-14 0 13 -1 13 -10 0 -6 -9 -5 -17 1 -21 6 -4 4 -9 -6 -13 -9 -3 -15 -12 -12
-19 6 -18 -12 -49 -25 -41 -7 4 -8 3 -4 -4 4 -7 2 -20 -4 -29 -11 -17 -11 -17
-6 0 12 38 -6 13 -44 -63 -37 -75 -56 -135 -25 -80 23 40 17 15 -8 -34 -13
-26 -27 -43 -32 -39 -4 5 -5 0 -2 -9 4 -10 2 -18 -4 -18 -6 0 -7 -5 -3 -12 4
-7 3 -8 -4 -4 -11 7 -32 -23 -32 -46 0 -10 3 -9 11 2 9 12 10 12 5 -3 -3 -10
-6 -21 -6 -23 0 -3 -5 -2 -12 2 -8 5 -9 2 -5 -9 4 -10 2 -16 -6 -14 -7 1 -12
-10 -12 -28 -1 -16 -7 -39 -14 -50 -10 -16 -11 -17 -7 -2 4 11 2 16 -5 12 -5
-4 -9 -17 -8 -28 0 -12 1 -29 0 -37 -1 -13 -2 -13 -12 0 -8 12 -10 10 -8 -10
1 -14 1 -32 0 -40 -1 -13 -2 -13 -12 0 -9 12 -10 10 -5 -9 5 -23 -17 -91 -29
-91 -3 0 -3 6 1 13 4 7 2 7 -7 -2 -10 -10 -11 -15 -2 -18 8 -3 9 -12 1 -34 -5
-16 -14 -27 -18 -24 -9 6 -23 -25 -15 -33 3 -3 5 1 5 8 0 7 2 11 5 8 3 -3 1
-17 -5 -32 -6 -18 -14 -25 -22 -20 -9 5 -9 2 1 -9 12 -15 9 -21 -11 -18 -5 0
-8 -4 -8 -9 0 -6 4 -10 10 -10 6 0 6 -9 1 -22 -5 -13 -14 -22 -20 -21 -6 2
-11 -2 -11 -7 0 -6 4 -10 9 -10 5 0 7 -9 4 -20 -3 -11 -10 -17 -16 -13 -6 4
-7 1 -2 -6 9 -15 -44 -203 -56 -196 -8 6 -22 -25 -14 -33 3 -3 5 1 5 8 0 7 2
11 5 8 3 -3 -7 -59 -24 -124 -82 -329 -138 -685 -158 -1019 -15 -232 -8 -791
12 -944 2 -20 9 -76 15 -126 30 -246 75 -495 131 -719 17 -65 27 -121 24 -124
-3 -3 -5 1 -5 8 0 7 -2 11 -5 8 -8 -8 6 -39 14 -33 12 7 65 -181 56 -196 -5
-7 -4 -10 2 -6 6 4 13 -2 16 -13 3 -11 1 -20 -4 -20 -5 0 -9 -5 -9 -10 0 -6 5
-9 11 -8 6 2 15 -7 20 -20 5 -13 5 -22 -1 -22 -6 0 -10 -5 -10 -10 0 -6 3 -9
8 -9 20 3 23 -3 11 -18 -10 -11 -10 -14 -1 -9 8 5 16 -2 22 -20 6 -15 8 -29 5
-32 -3 -3 -5 1 -5 8 0 7 -2 11 -5 8 -8 -8 6 -39 15 -33 4 3 13 -8 18 -24 8
-22 7 -31 -1 -34 -9 -3 -8 -8 2 -18 9 -9 11 -9 7 -1 -4 6 -4 12 -1 12 12 0 34
-68 29 -91 -4 -17 -3 -20 4 -11 13 18 23 -7 15 -40 -4 -18 -3 -20 6 -8 10 13
11 13 12 0 1 -8 0 -25 0 -37 -1 -11 3 -24 8 -28 7 -4 9 1 5 12 -4 15 -3 14 7
-2 7 -11 13 -33 14 -50 0 -18 5 -29 12 -28 8 2 10 -4 6 -14 -4 -10 -2 -14 4
-10 6 4 14 0 17 -9 9 -24 7 -31 -4 -14 -7 11 -10 11 -10 2 0 -23 21 -53 32
-46 7 4 8 3 4 -4 -4 -7 -3 -12 3 -12 6 0 8 -8 4 -17 -3 -10 -2 -15 2 -10 5 4
19 -13 32 -39 25 -49 31 -74 8 -34 -31 55 -12 -5 25 -80 38 -76 56 -101 44
-62 -5 16 -5 16 6 -1 6 -9 8 -22 4 -29 -4 -7 -3 -8 4 -4 13 8 31 -23 25 -41
-3 -7 3 -16 12 -19 10 -4 12 -9 6 -13 -6 -4 -7 -12 -1 -21 9 -13 10 -13 10 0
0 9 8 2 19 -14 11 -17 18 -33 15 -38 -3 -4 -1 -8 4 -8 6 0 13 -7 16 -16 5 -12
3 -14 -7 -8 -7 5 -2 -1 11 -12 18 -16 21 -23 11 -27 -10 -4 -9 -6 4 -6 9 -1
17 -6 17 -12 0 -5 -6 -7 -12 -3 -8 4 -10 3 -5 -2 5 -5 13 -9 18 -9 5 0 9 -3 9
-7 0 -5 9 -17 20 -28 12 -12 18 -25 15 -30 -4 -6 0 -10 7 -10 9 0 9 -3 -2 -10
-13 -8 -13 -10 1 -10 9 0 24 -11 33 -25 9 -14 14 -25 11 -25 -3 0 5 -10 16
-21 17 -17 19 -23 8 -30 -13 -8 -12 -10 10 -13 5 0 13 -5 18 -10 5 -5 3 -6 -4
-2 -7 4 -13 2 -13 -3 0 -6 6 -11 14 -11 7 0 21 -12 30 -28 l17 -27 -20 24
c-25 28 -27 20 -5 -14 9 -14 20 -23 24 -20 5 3 12 0 16 -6 4 -8 3 -9 -4 -5
-17 10 -14 -6 5 -29 14 -18 15 -19 9 -1 -5 16 -4 17 9 6 8 -7 15 -18 14 -24
-3 -24 2 -36 14 -36 16 0 80 -87 82 -111 1 -9 9 -24 18 -34 9 -9 17 -21 17
-26 0 -5 5 -9 11 -9 8 0 7 6 -2 17 -13 16 -12 17 3 4 10 -7 15 -17 13 -22 -7
-11 17 -49 31 -49 6 0 29 -21 50 -48 21 -26 27 -38 15 -27 l-24 20 14 -22 c8
-13 19 -23 25 -23 6 0 50 -45 97 -100 89 -102 115 -139 51 -72 l-36 37 33 -42
c18 -24 37 -43 43 -43 12 0 146 -131 146 -143 0 -3 -30 24 -66 61 l-66 67 61
-70 c68 -78 111 -119 126 -121 6 -1 16 -13 23 -27 7 -14 45 -53 85 -87 l72
-63 -57 57 c-32 32 -58 61 -58 64 0 4 29 -22 65 -58 35 -35 62 -67 59 -72 -3
-5 0 -7 7 -6 7 2 14 -3 15 -9 3 -26 4 -28 12 -17 4 8 28 -8 67 -45 34 -31 54
-51 45 -45 -31 23 -44 25 -16 3 17 -13 36 -24 44 -26 9 -1 25 -12 36 -24 20
-21 20 -22 1 -8 -18 13 -19 13 -6 -3 7 -10 17 -16 21 -13 10 6 136 -95 132
-107 -1 -5 2 -7 8 -3 6 4 27 -10 47 -32 20 -21 33 -32 29 -24 -6 8 0 7 18 -4
14 -9 23 -22 19 -28 -3 -5 -2 -7 4 -4 12 8 101 -55 131 -93 13 -17 28 -30 34
-30 6 0 0 9 -13 21 -13 11 8 0 46 -25 39 -26 70 -51 70 -58 0 -6 7 -13 15 -15
13 -4 13 -3 0 6 -10 7 -11 11 -3 11 7 0 17 -9 23 -20 6 -11 15 -18 20 -15 13
8 61 -25 54 -36 -3 -5 3 -6 12 -2 11 4 15 3 10 -5 -3 -6 -1 -14 5 -18 8 -4 9
-3 5 4 -10 16 5 15 27 -2 10 -8 14 -16 10 -18 -4 -3 -3 -3 4 -2 17 4 254 -132
245 -141 -4 -5 -2 -5 5 -2 13 8 45 -2 38 -12 -2 -4 1 -8 8 -8 21 -1 196 -91
189 -97 -3 -4 2 -4 12 0 15 6 17 4 11 -6 -5 -8 -4 -11 3 -7 15 10 43 -3 35
-16 -3 -5 -1 -7 4 -4 6 4 67 -17 135 -46 67 -29 151 -64 185 -76 35 -13 60
-27 58 -31 -3 -5 0 -12 6 -16 8 -4 9 -3 5 4 -11 17 -5 16 136 -33 593 -206
1244 -315 1888 -315 644 0 1295 109 1888 315 141 49 147 50 136 33 -4 -7 -3
-8 5 -4 6 4 9 11 6 16 -2 4 23 18 58 31 34 12 118 47 185 76 68 29 129 50 135
46 5 -3 7 -1 4 4 -8 13 20 26 35 16 7 -4 8 -1 3 7 -6 10 -4 12 11 6 10 -4 15
-4 12 0 -7 6 168 96 189 97 7 0 10 4 8 8 -7 10 25 20 38 12 7 -3 9 -3 5 2 -9
9 228 145 245 141 7 -1 8 -1 4 2 -4 2 0 10 10 18 22 17 37 18 27 2 -4 -7 -3
-8 5 -4 6 4 8 12 5 18 -5 8 -1 9 10 5 9 -4 15 -3 12 2 -7 11 41 44 54 36 5 -3
14 4 20 15 6 11 16 20 23 20 8 0 7 -4 -3 -11 -13 -9 -13 -10 0 -6 8 2 15 9 15
15 0 7 32 32 70 58 39 25 59 36 46 25 -13 -12 -19 -21 -13 -21 6 0 21 13 34
30 30 38 119 101 131 93 6 -3 7 -1 4 4 -4 6 5 19 19 28 18 11 24 12 18 4 -4
-8 9 3 29 24 20 22 41 36 47 32 6 -4 9 -2 8 3 -4 12 122 113 132 107 4 -3 14
3 21 13 13 16 12 16 -6 3 -19 -14 -19 -13 1 8 11 12 27 23 36 24 8 2 27 13 44
26 28 22 15 20 -16 -3 -9 -6 11 14 45 45 39 37 63 53 67 45 8 -11 9 -9 12 17
1 6 8 11 15 9 7 -1 10 1 7 6 -3 5 24 37 59 72 36 36 65 62 65 58 0 -3 -26 -32
-57 -63 l-58 -58 65 56 c62 53 110 101 110 112 0 3 1 4 3 3 5 -5 69 59 128
127 l61 70 -66 -67 c-36 -37 -66 -64 -66 -60 0 12 134 142 146 142 6 0 25 19
43 43 l33 42 -36 -37 c-64 -67 -38 -30 51 72 47 55 91 100 97 100 6 0 17 10
25 23 l14 22 -24 -20 c-12 -11 -6 1 15 28 21 26 44 47 50 47 14 0 38 38 31 49
-2 5 3 15 13 22 15 13 16 12 3 -3 -9 -12 -10 -18 -2 -18 6 0 11 4 11 9 0 5 8
17 17 26 9 10 17 25 18 34 2 24 66 111 82 111 12 0 17 12 14 36 -1 6 6 17 14
24 13 11 14 10 9 -6 -6 -18 -5 -17 9 1 19 23 22 39 5 29 -7 -4 -8 -3 -4 5 4 6
11 9 16 6 4 -3 15 6 24 20 22 34 20 42 -5 14 l-20 -24 17 28 c9 15 23 27 30
27 8 0 14 5 14 11 0 5 -6 7 -12 3 -8 -4 -10 -3 -5 2 5 5 13 10 18 10 22 3 23
5 10 13 -11 7 -9 13 8 30 11 11 19 21 16 21 -3 0 2 11 11 25 9 14 24 25 33 25
14 0 14 2 1 10 -11 7 -11 10 -2 10 7 0 11 4 7 10 -3 5 3 18 15 30 11 11 20 23
20 28 0 4 4 7 9 7 5 0 13 4 18 9 5 5 3 6 -4 2 -7 -4 -13 -2 -13 3 0 6 8 11 18
12 12 0 13 2 3 6 -10 4 -7 11 11 27 13 11 18 17 11 12 -10 -6 -12 -4 -7 8 3 9
10 16 16 16 5 0 7 4 4 8 -3 5 4 21 15 38 11 16 19 23 19 14 0 -13 1 -13 10 0
6 9 5 17 -1 21 -6 4 -4 9 6 13 9 3 15 12 12 19 -6 18 12 49 25 41 7 -4 8 -3 4
4 -4 7 -2 20 4 29 11 17 11 17 6 1 -12 -39 6 -14 44 62 37 75 56 135 25 80
-23 -40 -17 -15 8 34 13 26 27 43 32 39 4 -5 5 0 2 10 -4 9 -2 17 4 17 6 0 7
5 3 12 -4 7 -3 8 4 4 11 -7 32 23 32 46 0 10 -3 9 -11 -2 -9 -12 -10 -12 -5 3
3 10 6 21 6 23 0 3 5 2 12 -2 8 -5 9 -2 5 9 -4 10 -2 16 6 14 7 -1 12 10 12
28 1 17 7 39 14 50 10 16 11 17 7 2 -4 -11 -2 -16 5 -11 6 3 8 15 6 26 -3 11
-3 27 0 35 5 12 7 12 15 1 7 -9 8 -6 5 10 -8 33 2 58 15 40 7 -9 8 -6 4 11 -5
23 17 91 29 91 3 0 3 -6 -1 -13 -4 -7 -2 -7 7 2 10 10 11 15 2 18 -8 3 -7 16
4 49 15 44 30 63 17 22 -3 -13 -3 -19 2 -15 5 4 8 22 9 40 0 22 4 31 14 29 12
-3 12 0 1 12 -11 15 -7 20 13 17 4 0 7 3 7 9 0 5 -4 10 -10 10 -6 0 -6 9 -1
23 5 12 14 21 20 19 6 -1 11 2 11 8 0 5 -4 10 -9 10 -5 0 -7 9 -4 20 3 11 10
17 16 13 6 -4 7 -1 2 6 -9 15 44 203 56 196 8 -6 22 25 14 33 -3 3 -5 -1 -5
-8 0 -7 -2 -11 -5 -8 -3 3 7 59 24 124 56 224 101 473 131 719 6 50 13 106 15
126 26 205 26 913 0 1118 -2 20 -9 77 -15 126 -30 246 -75 495 -131 719 -17
65 -27 121 -24 124 3 3 5 -1 5 -8 0 -7 2 -11 5 -8 8 8 -6 39 -14 33 -12 -7
-65 181 -56 196 5 7 4 10 -2 6 -6 -4 -13 2 -16 13 -3 11 -1 20 4 20 5 0 9 5 9
10 0 6 -5 9 -11 8 -6 -2 -15 7 -20 20 -5 13 -5 22 1 22 6 0 10 5 10 10 0 6 -3
9 -7 9 -21 -3 -24 3 -12 18 10 11 10 14 1 9 -8 -5 -16 2 -22 20 -6 15 -8 29
-5 32 3 3 5 -1 5 -8 0 -7 2 -11 5 -8 8 8 -6 39 -15 33 -4 -3 -13 8 -18 24 -8
22 -7 31 1 34 9 3 8 8 -2 18 -9 9 -11 9 -7 2 4 -7 4 -13 1 -13 -12 0 -34 68
-29 91 4 17 3 20 -4 11 -13 -18 -23 7 -15 40 3 16 2 19 -5 10 -8 -11 -10 -11
-15 1 -3 8 -3 24 0 35 2 11 0 23 -6 26 -7 5 -9 0 -5 -11 4 -15 3 -14 -7 2 -7
11 -13 34 -14 50 0 18 -5 29 -12 28 -8 -2 -10 4 -6 14 4 10 2 14 -4 10 -6 -4
-14 0 -17 9 -9 24 -7 31 4 14 7 -11 10 -11 10 -2 0 23 -21 53 -32 46 -7 -4 -8
-3 -4 4 4 7 3 12 -3 12 -6 0 -8 8 -4 18 3 9 2 14 -2 9 -5 -4 -19 13 -32 39
-25 49 -31 74 -8 34 31 -55 12 5 -25 80 -38 76 -56 101 -44 63 5 -17 5 -17 -6
0 -6 9 -8 22 -4 29 4 7 3 8 -4 4 -13 -8 -31 23 -25 41 3 7 -3 16 -12 19 -10 4
-12 9 -6 13 6 4 7 12 1 21 -9 13 -10 13 -10 0 0 -9 -8 -2 -19 14 -11 17 -18
33 -15 38 3 4 1 8 -4 8 -6 0 -13 7 -16 16 -5 12 -3 14 7 8 7 -5 2 1 -11 12
-18 16 -21 23 -11 27 10 4 9 6 -3 6 -10 1 -18 6 -18 12 0 5 6 7 13 3 7 -4 9
-3 4 2 -5 5 -13 9 -18 9 -5 0 -9 3 -9 8 0 4 -9 16 -20 27 -12 12 -18 25 -15
30 4 6 0 10 -7 10 -9 0 -9 3 2 10 13 8 13 10 -1 10 -9 0 -24 11 -33 25 -9 14
-14 25 -11 25 3 0 -5 10 -16 21 -17 17 -19 23 -8 30 13 8 12 10 -10 13 -5 0
-13 5 -18 10 -5 5 -3 6 5 2 6 -4 12 -2 12 3 0 6 -6 11 -14 11 -7 0 -21 12 -30
28 l-17 27 20 -24 c25 -28 27 -20 5 14 -9 14 -20 23 -24 20 -5 -3 -12 0 -16 6
-4 8 -3 9 4 5 17 -10 14 6 -5 29 -14 18 -15 19 -9 1 5 -16 4 -17 -9 -6 -8 7
-15 18 -14 24 3 24 -2 36 -14 36 -16 0 -80 87 -82 111 -1 9 -9 24 -18 34 -9 9
-17 21 -17 26 0 5 -5 9 -11 9 -8 0 -7 -6 2 -17 13 -16 12 -17 -3 -4 -10 7 -15
17 -13 22 7 11 -17 49 -31 49 -6 0 -29 21 -50 48 -21 26 -27 38 -15 27 l24
-20 -14 23 c-8 12 -19 22 -25 22 -6 0 -50 45 -97 100 -89 102 -115 139 -51 72
l36 -37 -33 43 c-18 23 -37 42 -43 42 -12 0 -146 131 -146 143 0 3 30 -24 66
-61 l66 -67 -61 70 c-69 79 -124 131 -131 125 -3 -2 -11 7 -18 22 -7 14 -45
54 -85 88 l-72 63 58 -57 c31 -32 57 -61 57 -64 0 -4 -29 22 -65 58 -35 35
-62 67 -59 72 3 5 0 7 -7 6 -7 -2 -14 3 -15 10 -3 25 -4 27 -12 16 -4 -8 -28
8 -67 45 -34 31 -54 51 -45 45 31 -23 44 -25 16 -3 -17 13 -36 24 -44 26 -9 1
-25 12 -36 24 -20 21 -20 22 -1 8 18 -13 19 -13 6 3 -7 10 -17 16 -21 13 -10
-6 -136 95 -132 107 1 5 -2 7 -8 3 -6 -4 -27 10 -47 32 -20 21 -33 32 -29 24
6 -8 0 -7 -18 4 -14 9 -23 22 -19 28 3 5 2 7 -4 4 -12 -8 -101 55 -131 93 -13
17 -28 30 -34 30 -6 0 0 -9 13 -21 13 -11 -7 0 -46 25 -38 26 -70 51 -70 58 0
6 -7 13 -15 15 -13 4 -13 3 0 -6 10 -7 11 -11 3 -11 -7 0 -17 9 -23 20 -6 11
-15 18 -20 15 -13 -8 -61 25 -54 36 3 5 -3 6 -12 2 -11 -4 -15 -3 -10 5 3 6 1
14 -5 18 -8 4 -9 3 -5 -4 10 -16 -5 -15 -27 2 -10 8 -14 16 -10 18 4 3 3 3 -4
2 -17 -4 -254 132 -245 141 4 5 2 5 -5 2 -13 -8 -45 2 -38 12 2 4 -1 8 -8 8
-21 1 -196 91 -189 97 3 4 -2 4 -12 0 -15 -6 -17 -4 -11 6 5 8 4 11 -3 7 -15
-10 -43 3 -35 16 3 5 1 7 -4 4 -6 -4 -67 17 -135 46 -67 29 -151 64 -185 76
-35 13 -60 27 -58 31 3 5 0 12 -6 16 -8 4 -9 3 -5 -4 11 -17 5 -16 -136 33
-370 129 -771 221 -1188 274 -314 40 -805 51 -1134 25z m-1266 -2409 l0 -155
143 0 142 0 -3 155 -3 155 166 0 165 0 0 -475 0 -475 -165 0 -165 0 0 160 0
160 -140 0 -140 0 0 -160 0 -160 -160 0 -160 0 0 475 0 475 160 0 160 0 0
-155z m1610 -5 l0 -160 -137 0 -138 0 3 -315 3 -315 -166 0 -165 0 0 315 0
315 -135 0 -135 0 0 160 0 160 435 0 435 0 0 -160z m570 -8 l98 -162 99 162
100 163 166 3 167 2 0 -475 0 -475 -160 0 -160 0 0 228 0 227 -101 -155 c-56
-85 -104 -159 -108 -163 -5 -4 -55 65 -112 154 l-104 162 -3 -227 -2 -227
-158 3 -157 3 -3 460 c-1 253 0 466 3 473 3 10 43 12 171 10 l166 -3 98 -163z
m1101 -149 l0 -313 224 0 225 0 0 -160 0 -160 -385 0 -385 0 0 475 0 475 160
-2 161 -3 0 -312z m899 -1059 c0 -17 -452 -5059 -453 -5060 -1 -1 -458 -128
-1016 -283 l-1014 -281 -1011 281 c-556 155 -1012 282 -1013 283 -2 2 -453
5041 -453 5060 0 3 1116 6 2480 6 1364 0 2480 -3 2480 -6z"/>
<path d="M4840 7481 c0 -11 38 -432 85 -938 47 -505 85 -921 85 -925 0 -5 484
-8 1076 -8 l1077 0 -6 -57 c-4 -32 -18 -202 -32 -378 -15 -176 -28 -329 -30
-341 -4 -18 -49 -33 -351 -118 l-347 -98 -346 99 -346 99 -23 219 c-13 121
-25 230 -28 243 l-4 22 -308 0 -308 0 3 -32 c2 -18 23 -237 48 -487 24 -249
46 -455 47 -456 2 -2 288 -79 637 -173 l635 -170 625 170 c344 93 628 172 630
174 3 3 158 1841 161 1907 0 4 -504 7 -1119 7 l-1120 0 -6 43 c-3 23 -17 148
-30 277 -14 129 -27 250 -30 268 l-6 32 1190 0 1191 0 4 23 c5 24 46 558 46
595 l0 22 -1550 0 c-1517 0 -1550 0 -1550 -19z"/>
</g>
</svg>
