<svg id="svg" version="1.1" xmlns="http://www.w3.org/2000/svg" xmlns:xlink="http://www.w3.org/1999/xlink" width="400" height="312.5" viewBox="0, 0, 400,312.5"><g id="svgg"><path id="path0" d="M202.427 8.664 C 202.989 8.734,203.833 8.732,204.302 8.661 C 204.772 8.589,204.313 8.533,203.281 8.534 C 202.250 8.536,201.866 8.594,202.427 8.664 M191.250 9.063 C 189.553 9.271,189.549 9.273,190.938 9.290 C 191.711 9.300,193.188 9.202,194.219 9.075 L 196.094 8.842 194.531 8.847 C 193.672 8.850,192.195 8.947,191.250 9.063 M210.651 8.863 C 210.723 8.925,211.836 9.051,213.125 9.143 C 214.498 9.241,215.080 9.210,214.531 9.067 C 213.584 8.821,210.410 8.654,210.651 8.863 M194.531 9.411 C 176.660 10.463,159.152 14.916,142.373 22.678 C 139.640 23.942,137.249 24.889,137.061 24.782 C 136.873 24.675,136.818 24.697,136.939 24.831 C 137.060 24.966,134.950 26.336,132.251 27.877 C 129.552 29.418,127.210 30.808,127.047 30.965 C 126.647 31.349,126.165 31.329,126.406 30.938 C 126.721 30.429,126.362 30.581,125.898 31.154 C 125.528 31.609,125.534 31.649,125.938 31.439 C 126.195 31.305,126.055 31.486,125.625 31.841 C 125.195 32.196,124.703 32.487,124.531 32.488 C 124.359 32.489,124.430 32.341,124.688 32.159 C 125.104 31.864,125.104 31.843,124.688 31.968 C 124.430 32.046,124.253 32.263,124.294 32.452 C 124.379 32.841,123.235 33.542,122.875 33.320 C 122.745 33.240,122.291 33.461,121.866 33.812 L 121.094 34.449 122.031 33.926 L 122.969 33.403 122.031 34.200 C 121.029 35.052,120.445 35.248,120.813 34.609 C 120.944 34.382,120.919 34.328,120.753 34.479 C 120.597 34.622,120.469 34.892,120.469 35.078 C 120.469 35.264,120.273 35.482,120.035 35.561 C 119.771 35.649,119.686 35.567,119.819 35.353 C 120.153 34.812,119.818 34.934,119.335 35.529 C 118.965 35.985,118.971 36.020,119.375 35.781 C 119.779 35.543,119.785 35.578,119.415 36.034 C 118.921 36.643,118.284 36.756,118.635 36.172 C 118.795 35.906,118.701 35.919,118.341 36.210 C 117.725 36.710,117.634 37.019,118.203 36.677 C 118.456 36.526,118.438 36.635,118.153 36.985 C 117.911 37.284,117.526 37.457,117.298 37.369 C 117.070 37.282,116.558 37.522,116.161 37.902 C 115.763 38.282,115.656 38.439,115.922 38.251 C 118.521 36.408,117.281 37.583,113.438 40.604 C 110.410 42.983,110.332 42.853,113.288 40.355 L 114.531 39.304 113.281 40.178 C 111.522 41.408,109.832 42.897,109.909 43.150 C 109.946 43.267,109.667 43.626,109.290 43.947 C 108.614 44.523,108.611 44.523,109.068 43.906 C 109.499 43.325,109.492 43.312,108.977 43.716 C 108.672 43.956,108.496 44.226,108.587 44.316 C 108.798 44.527,107.813 45.625,107.413 45.625 C 107.247 45.625,107.297 45.379,107.524 45.078 C 107.751 44.777,107.276 45.158,106.469 45.924 C 105.661 46.691,105.000 47.386,105.000 47.470 C 105.000 47.554,105.527 47.139,106.172 46.548 C 106.865 45.912,106.721 46.132,105.818 47.086 C 104.979 47.973,104.129 48.636,103.928 48.559 C 103.728 48.482,103.219 48.797,102.798 49.260 C 102.376 49.722,102.242 49.981,102.500 49.834 C 102.903 49.605,102.909 49.641,102.543 50.093 C 102.308 50.382,101.989 50.539,101.832 50.442 C 101.675 50.345,101.586 50.446,101.633 50.666 C 101.680 50.885,101.508 51.072,101.250 51.080 C 100.992 51.087,100.779 51.234,100.776 51.406 C 100.769 51.924,100.287 52.521,100.014 52.352 C 99.651 52.128,98.968 53.032,99.208 53.420 C 99.331 53.620,99.202 53.664,98.868 53.536 C 98.469 53.383,98.377 53.454,98.514 53.810 C 98.636 54.128,98.100 54.862,96.934 55.974 C 95.964 56.899,95.518 57.234,95.944 56.719 L 96.719 55.781 95.869 56.530 C 95.402 56.942,95.100 57.409,95.199 57.569 C 95.431 57.944,94.111 59.362,93.203 59.713 C 92.816 59.862,92.500 60.137,92.500 60.323 C 92.500 60.509,92.676 60.574,92.891 60.466 C 93.105 60.358,92.648 60.865,91.875 61.593 C 91.102 62.320,90.750 62.716,91.094 62.473 C 91.670 62.066,91.685 62.074,91.290 62.578 C 91.054 62.879,90.632 63.127,90.352 63.130 C 89.973 63.133,89.945 63.199,90.242 63.387 C 90.542 63.578,90.466 63.788,89.935 64.242 C 89.235 64.839,89.233 64.839,89.693 64.219 C 90.123 63.639,90.117 63.625,89.605 64.026 C 89.302 64.264,89.091 64.686,89.136 64.964 C 89.182 65.241,89.043 65.434,88.828 65.391 C 88.613 65.348,88.473 65.482,88.516 65.689 C 88.559 65.896,88.412 66.072,88.190 66.080 C 87.969 66.087,87.480 66.578,87.105 67.171 C 86.730 67.763,86.595 68.142,86.805 68.012 C 87.016 67.882,87.188 67.858,87.188 67.958 C 87.188 68.058,86.801 68.294,86.328 68.482 C 85.850 68.673,85.641 68.888,85.857 68.969 C 86.239 69.111,84.607 71.875,84.141 71.875 C 84.029 71.875,84.106 71.706,84.312 71.500 C 84.519 71.294,84.687 70.981,84.688 70.805 C 84.688 70.630,84.468 70.799,84.201 71.181 C 83.933 71.563,83.795 72.007,83.893 72.166 C 83.992 72.326,83.908 72.559,83.707 72.683 C 83.457 72.838,83.425 72.770,83.605 72.470 C 83.831 72.096,83.790 72.096,83.326 72.472 C 82.899 72.819,82.869 72.969,83.188 73.171 C 83.570 73.413,83.300 73.572,82.696 73.462 C 82.546 73.434,82.506 73.629,82.608 73.893 C 82.723 74.192,82.619 74.375,82.334 74.375 C 82.082 74.375,81.875 74.524,81.875 74.706 C 81.875 74.888,82.037 74.937,82.236 74.814 C 82.461 74.675,82.512 74.728,82.370 74.957 C 82.246 75.158,82.023 75.248,81.875 75.156 C 81.727 75.065,81.517 75.133,81.409 75.307 C 81.301 75.482,81.370 75.625,81.563 75.625 C 81.755 75.625,81.824 75.768,81.716 75.943 C 81.608 76.117,81.406 76.190,81.267 76.104 C 81.128 76.018,80.650 76.498,80.205 77.170 C 79.643 78.020,79.512 78.439,79.776 78.547 C 80.004 78.639,79.950 78.711,79.643 78.725 C 79.052 78.754,78.575 79.687,79.150 79.689 C 79.360 79.690,79.158 80.006,78.701 80.392 C 77.731 81.213,77.078 82.383,77.348 82.819 C 77.452 82.987,77.282 83.127,76.972 83.130 C 76.492 83.134,76.478 83.181,76.875 83.438 C 77.264 83.689,77.237 83.742,76.719 83.750 C 76.267 83.757,76.207 83.831,76.501 84.018 C 76.812 84.215,76.716 84.455,76.096 85.029 C 75.068 85.981,73.967 88.050,74.186 88.620 C 74.278 88.860,74.182 89.022,73.973 88.981 C 73.764 88.940,73.588 89.188,73.580 89.531 C 73.565 90.227,72.144 93.810,71.957 93.624 C 71.892 93.558,72.053 92.992,72.314 92.366 C 72.576 91.739,72.665 91.304,72.512 91.399 C 72.358 91.494,72.062 92.097,71.853 92.739 C 71.644 93.381,71.283 94.184,71.049 94.523 C 70.816 94.862,70.631 95.284,70.638 95.460 C 70.644 95.637,70.860 95.395,71.116 94.922 C 71.925 93.431,71.874 93.989,71.030 95.859 C 70.099 97.925,69.842 98.297,70.114 97.188 C 70.219 96.758,69.964 97.109,69.547 97.969 C 68.645 99.826,68.520 100.625,69.375 99.063 C 70.137 97.671,70.137 98.199,69.375 99.844 C 69.057 100.531,68.784 100.883,68.768 100.625 C 68.730 99.988,68.135 100.869,68.135 101.563 C 68.135 101.979,68.168 101.979,68.437 101.563 C 68.604 101.305,68.740 101.234,68.740 101.406 C 68.740 101.881,68.246 102.560,67.942 102.503 C 67.793 102.476,67.615 102.624,67.545 102.833 C 67.473 103.050,67.569 103.119,67.772 102.994 C 67.966 102.874,68.123 102.819,68.120 102.872 C 68.096 103.336,64.397 114.105,64.383 113.750 C 64.368 113.339,64.329 113.338,64.074 113.742 C 63.887 114.037,63.903 114.276,64.117 114.409 C 64.353 114.554,64.347 114.879,64.097 115.511 C 63.818 116.217,63.773 116.248,63.885 115.658 C 64.091 114.578,63.523 115.277,63.278 116.406 C 63.115 117.157,63.147 117.251,63.439 116.875 C 63.738 116.492,63.771 116.549,63.625 117.188 C 63.527 117.617,63.444 118.153,63.442 118.378 C 63.439 118.603,63.307 118.706,63.147 118.607 C 62.987 118.508,62.754 118.592,62.630 118.793 C 62.488 119.022,62.539 119.075,62.764 118.936 C 63.251 118.636,63.216 118.999,62.399 122.750 C 62.014 124.521,61.590 125.861,61.458 125.729 C 61.325 125.596,61.309 125.729,61.423 126.023 C 61.536 126.318,61.408 127.790,61.140 129.295 C 60.871 130.800,60.477 133.508,60.265 135.313 C 60.050 137.136,59.801 138.282,59.705 137.891 C 59.122 135.532,59.130 159.364,59.714 165.625 C 59.947 168.117,60.141 170.883,60.147 171.771 C 60.152 172.659,60.221 173.320,60.301 173.241 C 60.381 173.161,60.688 174.474,60.984 176.157 C 61.877 181.240,61.997 182.300,61.654 182.088 C 61.460 181.968,61.402 182.216,61.501 182.735 C 61.633 183.427,61.697 183.476,61.861 183.009 C 61.992 182.636,62.243 183.226,62.596 184.737 C 63.169 187.184,63.250 188.050,62.813 187.031 L 62.544 186.406 62.544 187.031 C 62.544 187.375,62.665 187.938,62.812 188.281 L 63.081 188.906 63.131 188.281 C 63.164 187.877,63.292 188.040,63.493 188.741 C 63.704 189.477,63.700 189.860,63.482 189.933 C 63.305 189.992,63.242 190.254,63.342 190.515 C 63.465 190.835,63.595 190.876,63.740 190.642 C 63.858 190.450,64.197 191.164,64.493 192.228 C 64.836 193.464,64.918 194.233,64.719 194.355 C 64.523 194.477,64.516 194.718,64.699 195.008 C 64.955 195.412,64.994 195.411,65.017 195.000 C 65.050 194.424,65.573 195.548,65.598 196.250 C 65.614 196.667,65.582 196.667,65.312 196.250 C 64.943 195.679,64.943 196.172,65.312 197.031 C 65.493 197.452,65.590 197.503,65.608 197.188 C 65.630 196.792,65.678 196.787,65.913 197.159 C 66.067 197.401,66.138 198.034,66.072 198.565 C 65.998 199.167,66.051 199.374,66.214 199.114 C 66.424 198.779,66.513 198.794,66.665 199.193 C 66.771 199.469,66.695 199.688,66.493 199.688 C 66.283 199.688,66.335 199.852,66.615 200.078 C 67.261 200.598,67.550 201.494,67.120 201.637 C 66.876 201.718,66.888 201.930,67.161 202.360 C 67.540 202.957,67.543 202.956,67.349 202.344 C 67.222 201.945,67.257 201.832,67.446 202.031 C 67.609 202.203,67.838 202.695,67.954 203.125 C 68.122 203.745,68.094 203.810,67.816 203.438 C 67.523 203.044,67.485 203.069,67.580 203.594 C 67.642 203.938,67.848 204.188,68.038 204.150 C 68.228 204.112,68.521 204.463,68.691 204.931 C 68.860 205.399,69.107 206.050,69.240 206.379 C 69.410 206.800,69.373 206.910,69.116 206.752 C 68.674 206.479,68.647 206.857,69.062 207.500 C 69.332 207.917,69.366 207.917,69.375 207.500 C 69.384 207.083,69.418 207.083,69.687 207.500 C 70.083 208.112,70.083 208.526,69.688 208.281 C 69.267 208.021,69.291 208.184,69.859 209.417 C 70.340 210.462,70.342 210.463,70.146 209.532 C 69.900 208.359,70.145 208.585,70.787 210.123 C 71.059 210.774,71.134 211.215,70.954 211.104 C 70.495 210.820,70.562 211.265,71.118 212.188 L 71.589 212.969 71.409 212.188 C 71.266 211.570,71.359 211.636,71.851 212.500 C 72.578 213.776,72.654 214.187,72.109 213.879 C 71.895 213.757,72.030 213.961,72.411 214.331 C 72.841 214.749,73.028 215.201,72.905 215.522 C 72.781 215.847,72.831 215.963,73.039 215.834 C 73.222 215.721,73.455 215.846,73.557 216.112 C 73.664 216.388,73.611 216.513,73.434 216.404 C 72.983 216.126,73.046 216.383,73.812 217.960 C 74.190 218.738,74.691 219.375,74.924 219.375 C 75.158 219.375,75.262 219.516,75.156 219.688 C 75.050 219.859,75.147 220.002,75.372 220.005 C 75.669 220.008,75.681 220.073,75.417 220.241 C 75.150 220.411,75.182 220.638,75.537 221.096 C 75.928 221.599,75.985 221.614,75.833 221.172 C 75.480 220.146,75.871 220.622,76.727 222.260 C 77.204 223.173,77.385 223.759,77.135 223.588 C 76.890 223.419,77.047 223.613,77.485 224.019 C 77.923 224.424,78.105 224.662,77.891 224.547 C 77.414 224.292,77.395 224.532,77.828 225.342 C 78.009 225.679,78.264 225.888,78.396 225.807 C 78.528 225.726,78.892 226.094,79.206 226.626 C 79.520 227.157,79.617 227.493,79.420 227.372 C 78.975 227.096,78.965 227.359,79.391 228.154 C 79.571 228.492,79.843 228.691,79.994 228.597 C 80.145 228.504,80.358 228.570,80.466 228.745 C 80.574 228.920,80.511 229.063,80.327 229.063 C 80.142 229.062,80.362 229.623,80.815 230.307 C 81.268 230.992,81.753 231.482,81.892 231.396 C 82.031 231.310,82.233 231.383,82.341 231.557 C 82.449 231.732,82.380 231.875,82.188 231.875 C 81.995 231.875,81.926 232.018,82.034 232.193 C 82.142 232.367,82.383 232.416,82.570 232.301 C 82.772 232.176,82.819 232.236,82.686 232.451 C 82.564 232.649,82.683 233.124,82.951 233.506 C 83.218 233.889,83.437 234.083,83.438 233.938 C 83.438 233.792,83.648 233.849,83.906 234.063 C 84.454 234.517,84.544 235.141,84.014 234.814 C 83.789 234.675,83.738 234.728,83.880 234.957 C 84.004 235.158,84.227 235.248,84.375 235.156 C 84.523 235.065,84.733 235.133,84.841 235.307 C 84.949 235.482,84.853 235.634,84.628 235.645 C 84.403 235.656,84.567 235.804,84.992 235.973 C 85.624 236.225,85.682 236.336,85.305 236.574 C 84.909 236.824,84.916 236.866,85.352 236.870 C 85.632 236.873,86.036 237.086,86.250 237.344 C 86.485 237.627,86.510 237.812,86.314 237.812 C 86.136 237.812,85.919 237.637,85.832 237.422 C 85.733 237.176,85.665 237.162,85.650 237.384 C 85.624 237.745,86.221 238.363,86.641 238.411 C 86.770 238.426,86.894 238.543,86.917 238.672 C 86.940 238.801,87.236 239.100,87.574 239.337 C 87.994 239.631,88.075 239.838,87.830 239.989 C 87.578 240.145,87.633 240.343,88.014 240.653 C 88.365 240.937,88.474 240.955,88.323 240.703 C 87.806 239.843,88.428 240.395,89.556 241.797 C 90.213 242.613,90.419 243.000,90.014 242.656 L 89.278 242.031 89.830 242.888 C 90.133 243.359,90.490 243.677,90.624 243.595 C 90.757 243.512,91.058 243.681,91.293 243.970 C 91.645 244.404,91.646 244.451,91.297 244.241 C 90.600 243.821,91.363 244.976,92.830 246.563 C 93.546 247.336,93.945 247.688,93.718 247.344 C 93.464 246.959,93.683 247.064,94.285 247.614 C 94.824 248.106,95.203 248.673,95.126 248.872 C 95.049 249.072,95.587 249.794,96.321 250.477 L 97.655 251.719 96.565 250.469 C 95.806 249.598,96.019 249.737,97.268 250.927 C 99.255 252.818,99.387 253.005,98.359 252.466 C 97.666 252.102,97.665 252.106,98.232 252.746 C 98.578 253.136,99.016 253.321,99.326 253.210 C 99.611 253.109,99.740 253.139,99.614 253.279 C 99.488 253.418,99.629 253.732,99.927 253.977 C 100.225 254.221,100.271 254.319,100.030 254.194 C 99.739 254.043,99.667 254.089,99.817 254.332 C 99.941 254.533,100.164 254.623,100.313 254.531 C 100.597 254.356,101.081 254.940,101.089 255.469 C 101.092 255.641,101.262 255.781,101.469 255.781 C 101.675 255.781,102.027 255.978,102.250 256.218 C 102.586 256.578,102.580 256.611,102.217 256.404 C 101.921 256.235,101.852 256.272,102.005 256.519 C 102.129 256.721,102.362 256.804,102.522 256.705 C 102.682 256.606,102.951 256.885,103.118 257.325 C 103.456 258.213,103.841 258.444,103.540 257.578 C 103.436 257.277,104.277 257.935,105.410 259.039 C 106.543 260.143,107.404 261.152,107.324 261.283 C 107.243 261.413,107.342 261.621,107.543 261.745 C 107.772 261.887,107.825 261.836,107.686 261.611 C 107.220 260.857,108.047 261.293,108.926 262.264 L 109.844 263.279 108.906 262.499 L 107.969 261.719 108.717 262.568 C 109.129 263.036,109.591 263.341,109.745 263.246 C 109.898 263.151,110.548 263.542,111.188 264.115 C 111.829 264.688,113.438 265.982,114.765 266.992 C 116.163 268.057,117.092 268.976,116.975 269.180 C 116.865 269.373,116.886 269.431,117.022 269.308 C 117.388 268.978,118.491 269.661,118.242 270.064 C 118.112 270.274,118.172 270.320,118.395 270.182 C 118.717 269.983,121.875 271.988,121.875 272.392 C 121.875 272.475,121.453 272.242,120.937 271.875 C 120.422 271.508,120.000 271.275,120.000 271.358 C 120.000 271.565,122.996 273.750,123.280 273.750 C 123.405 273.750,123.175 273.460,122.769 273.106 L 122.031 272.463 122.891 272.986 C 123.363 273.274,123.750 273.682,123.750 273.892 C 123.750 274.102,124.137 274.469,124.609 274.705 C 126.013 275.409,126.156 275.401,125.078 274.680 C 124.520 274.307,124.063 273.928,124.063 273.840 C 124.063 273.751,124.437 273.924,124.895 274.224 C 125.353 274.523,126.196 275.046,126.769 275.384 C 127.343 275.722,127.739 276.116,127.651 276.259 C 127.562 276.402,127.654 276.621,127.856 276.745 C 128.097 276.895,128.137 276.835,127.974 276.570 C 127.807 276.301,127.868 276.221,128.160 276.327 C 128.398 276.413,128.560 276.638,128.519 276.825 C 128.476 277.021,128.663 277.081,128.961 276.967 C 129.282 276.844,129.400 276.894,129.273 277.099 C 129.157 277.287,129.304 277.411,129.613 277.387 C 129.913 277.363,130.118 277.529,130.070 277.758 C 130.023 277.985,130.134 278.079,130.317 277.966 C 130.500 277.853,132.015 278.538,133.684 279.489 C 135.353 280.440,136.964 281.310,137.264 281.423 C 137.564 281.536,137.718 281.776,137.606 281.956 C 137.492 282.141,137.552 282.192,137.745 282.073 C 138.200 281.792,142.205 283.782,141.965 284.169 C 141.859 284.340,141.942 284.370,142.156 284.238 C 142.593 283.968,147.236 285.919,147.013 286.279 C 146.932 286.411,147.029 286.621,147.231 286.745 C 147.476 286.897,147.512 286.835,147.341 286.558 C 147.165 286.273,147.223 286.195,147.527 286.307 C 152.151 288.012,153.396 288.564,153.227 288.838 C 153.111 289.025,153.182 289.064,153.397 288.931 C 153.600 288.806,155.696 289.341,158.055 290.119 C 187.546 299.855,218.905 299.854,248.508 290.114 C 250.867 289.338,252.963 288.806,253.165 288.931 C 253.381 289.064,253.451 289.025,253.335 288.837 C 253.218 288.648,254.358 288.048,256.096 287.383 C 259.375 286.128,259.508 286.095,259.189 286.611 C 259.046 286.841,259.104 286.886,259.348 286.736 C 259.557 286.606,259.647 286.417,259.546 286.317 C 259.268 286.039,263.813 284.020,264.297 284.206 C 264.530 284.295,264.650 284.255,264.565 284.117 C 264.342 283.757,268.403 281.820,268.847 282.075 C 269.052 282.192,269.113 282.171,268.983 282.028 C 268.692 281.707,273.446 279.027,273.974 279.213 C 274.184 279.287,274.452 279.191,274.570 279.001 C 274.699 278.790,274.642 278.741,274.423 278.876 C 274.225 278.999,274.063 279.024,274.063 278.933 C 274.063 278.628,275.951 277.784,276.238 277.961 C 276.393 278.057,276.621 277.971,276.745 277.769 C 276.895 277.527,276.824 277.480,276.533 277.631 C 276.291 277.756,276.371 277.634,276.710 277.360 C 277.049 277.086,277.504 276.930,277.722 277.013 C 277.939 277.097,278.084 277.012,278.043 276.825 C 278.002 276.638,278.164 276.413,278.403 276.327 C 278.702 276.218,278.759 276.303,278.587 276.600 C 278.440 276.855,278.454 276.925,278.622 276.771 C 278.778 276.628,278.910 276.346,278.914 276.146 C 278.918 275.945,279.163 275.801,279.457 275.824 C 279.761 275.848,279.905 275.724,279.789 275.537 C 279.664 275.335,279.776 275.279,280.075 275.394 C 280.344 275.498,280.824 275.373,281.142 275.118 C 281.680 274.684,281.672 274.676,281.016 274.994 C 279.781 275.592,280.259 275.099,281.953 274.026 C 282.855 273.455,284.527 272.316,285.669 271.494 C 287.756 269.991,288.351 269.694,287.939 270.361 C 287.800 270.586,287.853 270.637,288.082 270.495 C 288.283 270.371,288.371 270.145,288.278 269.994 C 288.123 269.744,289.390 268.850,289.635 269.036 C 289.693 269.079,289.833 269.010,289.948 268.882 C 290.063 268.754,289.945 268.770,289.688 268.916 C 289.279 269.148,289.276 269.112,289.659 268.640 C 289.902 268.341,290.259 268.158,290.454 268.232 C 290.648 268.307,291.075 268.173,291.401 267.934 C 291.727 267.695,291.855 267.500,291.685 267.500 C 291.514 267.500,291.238 267.605,291.072 267.734 C 290.905 267.863,291.032 267.723,291.354 267.424 C 291.676 267.124,292.088 266.970,292.268 267.081 C 292.449 267.193,292.506 267.137,292.395 266.958 C 292.284 266.779,292.720 266.243,293.362 265.768 C 294.005 265.293,294.967 264.497,295.500 263.999 C 296.033 263.501,296.616 263.136,296.797 263.187 C 296.977 263.239,297.148 263.141,297.175 262.969 C 297.245 262.531,298.485 261.250,298.839 261.250 C 299.000 261.250,298.800 261.540,298.394 261.894 L 297.656 262.537 298.525 262.007 C 299.003 261.716,299.316 261.399,299.219 261.303 C 299.012 261.096,303.136 256.875,303.546 256.875 C 303.700 256.875,303.634 257.121,303.398 257.422 C 303.011 257.915,303.021 257.928,303.506 257.548 C 303.801 257.317,304.012 256.965,303.974 256.767 C 303.937 256.569,304.092 256.445,304.320 256.492 C 304.548 256.539,304.659 256.457,304.567 256.309 C 304.476 256.160,304.993 255.489,305.716 254.816 L 307.030 253.594 305.937 254.844 L 304.844 256.094 305.991 255.040 C 306.728 254.364,307.072 253.813,306.953 253.502 C 306.815 253.142,306.905 253.070,307.302 253.222 C 307.652 253.356,307.806 253.288,307.747 253.025 C 307.668 252.675,310.430 249.425,313.783 245.923 C 315.243 244.398,314.055 245.851,311.088 249.219 C 309.725 250.766,308.941 251.750,309.345 251.406 C 310.283 250.609,315.913 244.162,315.391 244.484 C 314.772 244.865,314.931 244.424,315.842 243.230 C 316.305 242.623,316.973 242.014,317.326 241.877 C 317.680 241.741,318.233 241.157,318.556 240.580 L 319.142 239.531 318.131 240.625 C 317.248 241.579,317.270 241.519,318.300 240.156 C 319.796 238.178,320.172 237.784,319.715 238.672 C 319.140 239.789,319.529 239.490,320.439 238.114 C 320.898 237.421,321.195 236.727,321.100 236.573 C 321.005 236.419,321.092 236.191,321.293 236.067 C 321.543 235.912,321.575 235.980,321.395 236.280 C 321.169 236.654,321.208 236.655,321.659 236.290 C 322.271 235.793,322.375 235.181,321.797 235.473 C 321.582 235.582,321.650 235.471,321.948 235.227 C 322.246 234.982,322.419 234.710,322.331 234.623 C 322.244 234.536,322.390 234.284,322.656 234.063 C 323.069 233.720,323.109 233.748,322.934 234.253 C 322.744 234.799,322.765 234.797,323.213 234.221 C 323.568 233.763,323.600 233.536,323.333 233.366 C 322.978 233.141,323.047 233.089,323.802 233.008 C 324.003 232.986,324.232 232.773,324.311 232.535 C 324.408 232.245,324.322 232.183,324.055 232.349 C 323.790 232.512,323.730 232.472,323.880 232.231 C 324.004 232.029,324.230 231.941,324.381 232.035 C 324.532 232.128,324.804 231.929,324.984 231.592 C 325.411 230.795,325.400 230.534,324.952 230.811 C 324.728 230.949,324.676 230.897,324.814 230.673 C 324.937 230.475,325.224 230.312,325.454 230.312 C 325.927 230.313,326.341 229.463,326.076 229.034 C 325.980 228.878,326.120 228.750,326.388 228.750 C 326.656 228.750,326.875 228.601,326.875 228.419 C 326.875 228.237,326.699 228.189,326.484 228.313 C 326.257 228.444,326.203 228.419,326.354 228.253 C 326.497 228.097,326.767 227.969,326.953 227.969 C 327.139 227.969,327.357 227.773,327.436 227.535 C 327.530 227.254,327.446 227.184,327.197 227.338 C 326.898 227.523,326.892 227.428,327.167 226.913 C 327.362 226.548,327.666 226.250,327.842 226.250 C 328.018 226.250,328.075 226.109,327.969 225.938 C 327.863 225.766,327.944 225.625,328.150 225.625 C 328.565 225.625,329.353 224.707,329.358 224.219 C 329.360 224.047,329.071 224.258,328.717 224.688 L 328.073 225.469 328.635 224.453 C 328.944 223.895,329.308 223.437,329.442 223.438 C 329.577 223.438,329.652 223.268,329.609 223.061 C 329.566 222.854,329.726 222.678,329.964 222.670 C 330.202 222.663,330.519 222.305,330.667 221.875 C 330.924 221.134,330.914 221.125,330.469 221.700 C 330.211 222.034,330.004 222.175,330.010 222.013 C 330.028 221.484,330.837 220.629,331.096 220.864 C 331.236 220.990,331.262 220.849,331.155 220.551 C 331.033 220.212,331.103 220.036,331.339 220.082 C 331.552 220.124,331.708 219.847,331.694 219.453 C 331.680 219.066,331.835 218.750,332.037 218.750 C 332.474 218.750,333.584 216.427,333.337 216.028 C 333.243 215.876,333.311 215.547,333.488 215.298 C 333.740 214.941,333.769 214.978,333.622 215.469 C 333.439 216.084,333.443 216.085,333.905 215.487 C 334.231 215.067,334.270 214.816,334.032 214.669 C 333.809 214.531,333.947 214.206,334.422 213.745 C 334.826 213.353,334.980 213.132,334.766 213.254 C 334.551 213.375,334.375 213.325,334.375 213.143 C 334.375 212.961,334.492 212.813,334.635 212.813 C 334.779 212.813,334.900 212.637,334.906 212.422 C 334.924 211.703,336.524 208.437,336.858 208.438 C 337.039 208.438,337.188 208.289,337.188 208.107 C 337.188 207.925,337.052 207.860,336.886 207.962 C 336.719 208.065,336.820 207.511,337.109 206.731 C 337.408 205.924,337.842 205.302,338.114 205.288 C 338.378 205.274,338.437 205.198,338.245 205.119 C 338.016 205.025,338.373 203.609,339.284 201.003 C 340.831 196.578,343.132 188.690,343.744 185.716 C 343.963 184.650,344.230 183.787,344.337 183.800 C 344.889 183.868,345.111 183.712,344.771 183.496 C 344.490 183.318,344.460 182.874,344.659 181.860 C 344.809 181.095,344.949 180.680,344.971 180.938 C 345.039 181.760,345.619 180.587,345.589 179.688 L 345.563 178.906 345.313 179.688 C 345.175 180.117,345.054 180.258,345.044 180.000 C 345.010 179.154,346.425 170.592,346.574 170.740 C 346.653 170.820,346.723 170.159,346.727 169.271 C 346.732 168.383,346.919 164.422,347.142 160.469 C 347.608 152.226,347.283 143.023,346.239 134.915 C 345.533 129.438,345.545 129.601,345.881 129.809 C 346.022 129.896,346.067 129.517,345.982 128.968 C 345.833 128.008,345.819 127.999,345.628 128.750 C 345.452 129.446,345.407 129.394,345.218 128.281 C 344.943 126.653,344.995 125.882,345.313 126.875 L 345.563 127.656 345.563 126.875 C 345.563 126.445,345.450 125.742,345.313 125.313 L 345.062 124.531 344.994 125.313 C 344.915 126.217,344.464 124.832,344.434 123.594 L 344.419 122.969 344.688 123.594 C 345.018 124.362,345.085 123.631,344.787 122.517 C 344.608 121.849,344.557 121.825,344.382 122.325 C 344.245 122.715,344.055 122.311,343.787 121.058 C 343.570 120.046,342.972 117.705,342.458 115.854 C 341.944 114.004,341.606 112.231,341.706 111.915 C 341.806 111.599,341.744 111.004,341.568 110.592 C 341.286 109.936,341.266 109.978,341.406 110.938 C 341.570 112.061,341.074 111.291,340.817 110.023 C 340.762 109.752,340.574 109.180,340.398 108.750 C 340.172 108.196,340.181 107.902,340.430 107.739 C 340.677 107.578,340.662 107.508,340.381 107.505 C 339.828 107.498,339.353 106.158,339.802 105.872 C 340.049 105.716,340.025 105.533,339.717 105.247 C 339.360 104.915,339.328 104.921,339.534 105.283 C 339.703 105.579,339.665 105.648,339.418 105.495 C 339.217 105.371,339.127 105.148,339.219 105.000 C 339.310 104.852,339.242 104.642,339.068 104.534 C 338.893 104.426,338.752 104.171,338.755 103.966 C 338.758 103.742,338.880 103.781,339.063 104.063 C 339.323 104.466,339.366 104.458,339.370 104.002 C 339.373 103.711,339.120 103.289,338.809 103.065 C 338.074 102.535,337.043 100.000,337.562 100.000 C 337.770 100.000,337.706 99.829,337.418 99.609 C 337.135 99.395,336.616 98.539,336.264 97.708 C 335.503 95.911,335.463 95.609,336.094 96.425 C 336.538 96.999,336.548 96.990,336.280 96.250 C 336.125 95.820,335.857 95.499,335.685 95.537 C 335.513 95.575,335.290 95.391,335.189 95.130 C 335.074 94.830,335.136 94.734,335.357 94.871 C 335.569 95.002,335.644 94.917,335.548 94.653 C 335.462 94.414,335.246 94.249,335.069 94.287 C 334.892 94.325,334.665 94.141,334.564 93.880 C 334.461 93.610,334.515 93.487,334.691 93.596 C 334.861 93.701,335.000 93.559,335.000 93.281 C 335.000 93.003,334.866 92.858,334.703 92.959 C 334.540 93.060,334.245 92.840,334.047 92.471 C 333.763 91.940,333.770 91.851,334.084 92.045 C 334.369 92.221,334.422 92.136,334.272 91.744 C 334.157 91.444,334.060 91.105,334.058 90.990 C 334.055 90.875,333.939 90.961,333.799 91.181 C 333.616 91.470,333.444 91.356,333.177 90.770 C 332.909 90.183,332.906 90.021,333.163 90.180 C 333.382 90.315,333.458 90.233,333.361 89.965 C 333.274 89.727,333.050 89.565,332.863 89.606 C 332.676 89.647,332.600 89.479,332.694 89.234 C 332.788 88.989,332.717 88.533,332.536 88.222 C 332.283 87.787,332.203 87.765,332.192 88.125 C 332.180 88.536,332.142 88.537,331.887 88.133 C 331.700 87.838,331.715 87.599,331.929 87.467 C 332.133 87.340,331.873 86.853,331.256 86.208 C 330.298 85.207,329.185 83.438,329.513 83.438 C 329.598 83.437,329.877 83.824,330.134 84.297 C 330.390 84.770,330.601 84.945,330.603 84.688 C 330.606 84.101,329.884 83.125,329.448 83.125 C 329.268 83.125,329.190 82.860,329.275 82.535 C 329.360 82.211,329.253 81.836,329.037 81.703 C 328.752 81.527,328.702 81.625,328.854 82.058 C 329.058 82.638,329.050 82.638,328.595 82.050 C 328.227 81.575,328.210 81.389,328.516 81.195 C 328.792 81.020,328.740 80.946,328.341 80.942 C 328.030 80.940,327.863 80.797,327.969 80.625 C 328.075 80.453,328.018 80.313,327.842 80.313 C 327.666 80.313,327.362 80.014,327.167 79.650 C 326.918 79.184,326.915 79.050,327.156 79.199 C 327.656 79.508,327.559 79.005,326.979 78.281 L 326.478 77.656 326.677 78.281 L 326.877 78.906 326.384 78.281 C 326.113 77.938,325.754 77.375,325.585 77.031 C 325.283 76.417,325.286 76.416,325.764 77.013 C 326.478 77.904,326.357 77.439,325.473 75.891 C 325.045 75.143,324.693 74.715,324.691 74.940 C 324.689 75.165,324.560 75.271,324.404 75.174 C 324.249 75.078,324.188 74.744,324.270 74.431 C 324.352 74.116,324.173 73.664,323.868 73.416 C 323.407 73.042,323.361 73.040,323.582 73.408 C 323.767 73.715,323.732 73.776,323.464 73.610 C 323.254 73.481,323.157 73.179,323.249 72.941 C 323.340 72.703,323.315 72.522,323.192 72.541 C 322.616 72.627,322.383 72.465,322.749 72.233 C 323.068 72.031,323.039 71.882,322.611 71.535 C 322.260 71.250,322.151 71.232,322.302 71.484 C 322.644 72.054,322.335 71.962,321.835 71.346 C 321.471 70.898,321.472 70.857,321.837 71.077 C 322.136 71.257,322.224 71.203,322.124 70.903 C 322.044 70.664,321.810 70.469,321.603 70.469 C 321.121 70.469,320.610 69.652,320.850 69.264 C 320.951 69.100,320.881 69.060,320.695 69.176 C 320.508 69.291,320.267 69.242,320.159 69.068 C 320.051 68.893,320.135 68.750,320.346 68.750 C 320.764 68.750,320.438 68.306,319.974 68.242 C 319.278 68.147,319.245 68.098,319.688 67.813 C 320.095 67.549,320.090 67.509,319.648 67.505 C 319.368 67.502,318.946 67.254,318.710 66.953 C 318.315 66.450,318.331 66.441,318.906 66.842 C 319.250 67.082,318.969 66.750,318.281 66.103 C 317.594 65.457,317.277 65.102,317.578 65.315 C 318.361 65.869,318.255 65.211,317.446 64.502 C 317.016 64.125,316.864 64.078,317.031 64.375 C 317.198 64.672,317.046 64.625,316.616 64.248 C 315.858 63.583,315.671 63.140,316.406 63.750 C 316.668 63.967,316.875 64.001,316.875 63.827 C 316.875 63.430,316.090 62.765,315.875 62.979 C 315.787 63.068,315.518 62.899,315.279 62.604 C 314.914 62.154,314.913 62.109,315.275 62.327 C 315.573 62.507,315.661 62.453,315.561 62.153 C 315.482 61.914,315.288 61.717,315.130 61.714 C 314.623 61.705,314.047 61.215,314.219 60.938 C 314.310 60.789,314.221 60.566,314.019 60.442 C 313.777 60.292,313.730 60.364,313.882 60.655 C 314.007 60.896,313.819 60.763,313.463 60.358 C 313.107 59.953,312.882 59.515,312.963 59.384 C 313.044 59.253,312.797 58.881,312.415 58.557 L 311.719 57.969 312.342 58.750 L 312.964 59.531 312.104 58.771 C 311.471 58.211,311.347 57.944,311.637 57.760 C 311.981 57.541,311.777 57.386,311.224 57.446 C 311.123 57.457,310.143 56.559,309.045 55.451 C 307.948 54.344,307.141 53.438,307.252 53.438 C 307.364 53.438,307.676 53.658,307.946 53.929 C 308.217 54.199,308.438 54.298,308.438 54.148 C 308.438 53.999,307.842 53.321,307.114 52.642 C 306.174 51.764,306.015 51.678,306.566 52.344 L 307.341 53.281 306.338 52.374 C 305.786 51.875,305.410 51.344,305.503 51.194 C 305.596 51.045,305.492 50.961,305.272 51.008 C 305.052 51.055,304.866 50.930,304.858 50.729 C 304.850 50.529,304.716 50.247,304.559 50.104 C 304.390 49.949,304.382 50.033,304.541 50.313 C 304.771 50.717,304.735 50.722,304.279 50.352 C 303.988 50.116,303.750 49.738,303.750 49.511 C 303.750 49.285,303.588 48.999,303.389 48.876 C 303.166 48.738,303.113 48.791,303.251 49.014 C 303.854 49.989,302.677 49.063,299.844 46.333 C 298.125 44.677,297.009 43.524,297.365 43.770 C 297.720 44.017,297.447 43.700,296.758 43.065 C 296.069 42.431,295.402 41.976,295.276 42.054 C 295.149 42.132,294.648 41.825,294.163 41.372 C 293.678 40.918,293.563 40.740,293.906 40.977 C 294.475 41.367,294.494 41.359,294.118 40.878 C 293.890 40.587,293.526 40.418,293.308 40.502 C 293.091 40.585,292.714 40.401,292.472 40.092 C 292.061 39.569,292.073 39.562,292.656 40.000 C 293.235 40.434,293.250 40.429,292.855 39.925 C 292.621 39.626,292.319 39.450,292.185 39.533 C 292.050 39.616,291.609 39.393,291.204 39.037 C 290.800 38.681,290.680 38.495,290.938 38.624 C 291.251 38.780,291.209 38.632,290.811 38.179 C 290.484 37.805,290.070 37.500,289.892 37.500 C 289.714 37.500,289.841 37.706,290.175 37.959 C 290.508 38.211,290.670 38.422,290.533 38.428 C 290.397 38.433,289.518 37.858,288.580 37.150 C 286.760 35.776,286.206 35.106,287.869 36.290 C 288.416 36.679,288.779 36.862,288.676 36.695 C 288.573 36.529,287.809 35.913,286.979 35.326 C 285.848 34.527,285.626 34.442,286.094 34.989 C 286.671 35.663,286.618 35.653,285.396 34.853 C 284.668 34.376,284.139 33.879,284.221 33.747 C 284.302 33.616,284.127 33.527,283.832 33.551 C 283.538 33.574,283.293 33.430,283.289 33.229 C 283.285 33.029,283.153 32.747,282.997 32.604 C 282.829 32.450,282.815 32.520,282.962 32.775 C 283.133 33.070,283.075 33.160,282.778 33.061 C 282.539 32.982,282.344 32.729,282.344 32.500 C 282.344 32.271,282.133 32.026,281.875 31.955 C 281.458 31.842,281.458 31.864,281.875 32.159 C 282.133 32.341,282.203 32.489,282.031 32.488 C 281.859 32.487,281.367 32.196,280.938 31.841 C 280.508 31.486,280.332 31.287,280.547 31.398 C 281.108 31.687,281.028 31.400,280.409 30.898 C 279.960 30.534,279.919 30.534,280.140 30.900 C 280.319 31.198,280.266 31.286,279.965 31.186 C 279.727 31.107,279.531 30.889,279.531 30.703 C 279.531 30.517,279.403 30.247,279.247 30.104 C 279.081 29.953,279.056 30.007,279.187 30.234 C 279.311 30.449,279.341 30.625,279.255 30.625 C 278.741 30.625,269.443 25.032,269.624 24.831 C 269.745 24.697,269.674 24.685,269.466 24.804 C 269.258 24.923,268.133 24.543,266.966 23.959 C 245.273 13.105,219.551 7.938,194.531 9.411 M185.156 9.688 L 183.906 9.911 185.000 9.951 C 185.602 9.973,186.305 9.854,186.563 9.688 C 187.074 9.357,187.002 9.357,185.156 9.688 M227.214 10.736 C 227.285 10.798,227.836 10.938,228.438 11.048 C 229.207 11.190,229.392 11.158,229.063 10.942 C 228.639 10.664,226.904 10.471,227.214 10.736 M161.406 14.688 C 161.012 14.857,160.955 14.956,161.250 14.956 C 161.508 14.956,162.000 14.835,162.344 14.688 C 162.738 14.518,162.795 14.419,162.500 14.419 C 162.242 14.419,161.750 14.540,161.406 14.688 M244.219 14.688 C 244.563 14.835,245.055 14.956,245.313 14.956 C 245.608 14.956,245.550 14.857,245.156 14.688 C 244.813 14.540,244.320 14.419,244.063 14.419 C 243.767 14.419,243.825 14.518,244.219 14.688 M152.188 17.813 C 151.771 18.082,151.771 18.115,152.188 18.115 C 152.445 18.115,152.867 17.979,153.125 17.813 C 153.542 17.543,153.542 17.510,153.125 17.510 C 152.867 17.510,152.445 17.646,152.188 17.813 M148.500 19.277 C 147.074 19.887,145.958 20.437,146.021 20.500 C 146.134 20.613,151.263 18.528,151.530 18.261 C 151.863 17.928,150.907 18.249,148.500 19.277 M255.063 18.268 C 255.342 18.578,260.413 20.629,260.553 20.489 C 260.610 20.431,259.585 19.938,258.274 19.392 C 255.220 18.121,254.796 17.972,255.063 18.268 M140.000 23.125 C 139.398 23.454,139.047 23.724,139.219 23.724 C 139.391 23.724,140.023 23.454,140.625 23.125 C 141.227 22.796,141.578 22.526,141.406 22.526 C 141.234 22.526,140.602 22.796,140.000 23.125 M265.313 22.654 C 265.313 22.865,268.476 24.441,268.616 24.301 C 268.680 24.237,267.963 23.807,267.023 23.345 C 266.082 22.884,265.313 22.573,265.313 22.654 M130.269 28.456 L 129.531 29.100 130.469 28.551 C 131.703 27.828,131.721 27.813,131.337 27.813 C 131.155 27.813,130.675 28.102,130.269 28.456 M276.089 28.430 C 276.331 28.821,278.438 30.011,278.435 29.755 C 278.434 29.632,277.869 29.226,277.181 28.852 C 276.493 28.479,276.002 28.289,276.089 28.430 M298.438 44.652 C 298.438 44.804,298.824 45.176,299.297 45.478 L 300.156 46.028 299.399 45.201 C 298.580 44.308,298.438 44.227,298.438 44.652 M301.071 47.107 C 301.574 47.663,302.055 48.050,302.139 47.965 C 302.223 47.881,302.233 47.777,302.161 47.734 C 302.090 47.691,301.609 47.305,301.094 46.876 L 300.156 46.096 301.071 47.107 M309.688 55.781 C 310.271 56.383,310.818 56.875,310.904 56.875 C 310.990 56.875,310.583 56.383,310.000 55.781 C 309.417 55.180,308.870 54.688,308.784 54.688 C 308.698 54.688,309.104 55.180,309.688 55.781 M240.156 80.887 C 247.238 81.929,252.947 83.315,258.672 85.379 L 261.250 86.309 261.250 93.936 C 261.250 98.130,261.162 101.563,261.054 101.563 C 260.946 101.563,260.102 101.130,259.179 100.602 L 257.500 99.642 257.500 100.446 C 257.500 101.476,257.769 101.545,253.511 99.421 C 229.800 87.595,209.930 93.483,209.906 112.344 C 209.891 123.625,213.748 126.824,232.737 131.280 C 258.152 137.243,266.593 145.680,267.098 165.625 C 267.583 184.764,259.256 196.111,241.875 199.993 C 228.756 202.924,208.293 200.461,194.297 194.267 L 192.500 193.472 192.500 185.311 C 192.500 178.865,192.582 177.200,192.891 177.387 C 193.105 177.517,193.906 178.017,194.671 178.499 C 196.364 179.566,196.495 179.574,196.620 178.616 L 196.719 177.858 198.750 179.103 C 223.587 194.331,248.053 189.357,248.987 168.890 C 249.603 155.376,243.973 150.247,223.438 145.617 C 200.693 140.488,192.183 131.693,192.189 113.318 C 192.196 88.567,210.098 76.463,240.156 80.887 M169.375 82.188 C 169.375 82.361,170.211 82.500,171.258 82.500 L 173.142 82.500 173.051 141.953 L 172.960 201.406 172.231 205.305 C 168.435 225.599,159.513 232.175,137.728 230.732 L 134.675 230.530 134.760 223.937 L 134.844 217.344 139.375 217.153 C 149.524 216.725,152.944 213.257,155.052 201.250 C 155.308 199.793,155.442 182.628,155.527 140.547 L 155.645 81.875 162.510 81.875 C 166.878 81.875,169.375 81.989,169.375 82.188 M66.017 107.231 C 65.807 107.786,65.700 108.304,65.778 108.382 C 65.964 108.569,66.611 106.863,66.490 106.502 C 66.439 106.348,66.226 106.677,66.017 107.231 M342.544 114.688 C 342.544 114.945,342.665 115.438,342.813 115.781 C 342.982 116.175,343.081 116.233,343.081 115.938 C 343.081 115.680,342.960 115.188,342.813 114.844 C 342.643 114.450,342.544 114.392,342.544 114.688 M59.531 135.938 C 59.414 136.307,59.388 136.680,59.474 136.766 C 59.560 136.852,59.726 136.620,59.844 136.250 C 59.961 135.880,59.987 135.508,59.901 135.422 C 59.815 135.336,59.649 135.568,59.531 135.938 M58.931 142.368 C 58.811 143.852,58.777 145.132,58.857 145.212 C 58.937 145.291,59.104 144.145,59.227 142.664 C 59.350 141.184,59.383 139.904,59.301 139.821 C 59.218 139.738,59.051 140.885,58.931 142.368 M347.537 147.057 C 347.557 148.074,347.684 149.328,347.819 149.844 C 347.961 150.383,347.993 149.653,347.896 148.125 C 347.698 145.024,347.484 144.385,347.537 147.057 M58.534 153.281 C 58.536 154.313,58.594 154.697,58.664 154.135 C 58.734 153.573,58.732 152.730,58.661 152.260 C 58.589 151.790,58.533 152.250,58.534 153.281 M347.859 156.459 C 347.834 156.831,347.721 157.394,347.610 157.709 C 347.455 158.149,347.496 158.200,347.791 157.929 C 348.002 157.735,348.114 157.172,348.040 156.679 C 347.946 156.046,347.892 155.981,347.859 156.459 M347.589 159.844 C 347.592 160.703,347.652 161.018,347.724 160.543 C 347.796 160.068,347.794 159.364,347.720 158.980 C 347.646 158.596,347.587 158.984,347.589 159.844 M58.956 164.438 C 59.219 165.819,59.375 165.938,59.375 164.758 C 59.375 164.224,59.236 163.701,59.067 163.597 C 58.875 163.478,58.833 163.793,58.956 164.438 M347.273 166.563 C 347.273 167.336,347.334 167.652,347.408 167.266 C 347.483 166.879,347.483 166.246,347.408 165.859 C 347.334 165.473,347.273 165.789,347.273 166.563 M345.625 177.656 C 345.625 178.086,345.679 178.438,345.745 178.438 C 345.811 178.438,345.932 178.086,346.014 177.656 C 346.096 177.227,346.042 176.875,345.894 176.875 C 345.746 176.875,345.625 177.227,345.625 177.656 M61.919 184.375 C 61.919 184.633,62.040 185.125,62.188 185.469 C 62.357 185.863,62.456 185.920,62.456 185.625 C 62.456 185.367,62.335 184.875,62.188 184.531 C 62.018 184.137,61.919 184.080,61.919 184.375 M63.884 192.344 C 64.007 192.859,64.241 193.419,64.406 193.587 C 64.570 193.755,64.539 193.403,64.337 192.805 C 63.864 191.406,63.598 191.134,63.884 192.344 M342.054 193.304 C 341.939 193.762,341.905 194.197,341.979 194.270 C 342.052 194.344,342.206 194.029,342.321 193.571 C 342.436 193.113,342.470 192.678,342.396 192.605 C 342.323 192.531,342.169 192.846,342.054 193.304 M340.634 197.946 C 340.141 199.242,340.276 199.671,340.798 198.468 C 341.052 197.884,341.191 197.337,341.107 197.253 C 341.024 197.169,340.810 197.481,340.634 197.946 M335.990 210.297 C 335.807 210.821,335.724 211.250,335.805 211.250 C 336.016 211.250,336.606 209.627,336.451 209.472 C 336.380 209.401,336.173 209.772,335.990 210.297 M316.098 243.350 L 315.550 244.219 316.273 243.524 C 316.671 243.142,316.918 242.751,316.822 242.655 C 316.726 242.559,316.400 242.872,316.098 243.350 M92.676 245.703 L 93.594 246.719 92.578 245.801 C 91.631 244.945,91.419 244.688,91.660 244.688 C 91.714 244.688,92.171 245.145,92.676 245.703 M105.625 259.844 C 106.208 260.445,106.755 260.938,106.841 260.938 C 106.927 260.938,106.521 260.445,105.938 259.844 C 105.354 259.242,104.807 258.750,104.721 258.750 C 104.635 258.750,105.042 259.242,105.625 259.844 M300.758 259.768 L 299.844 260.779 300.781 259.999 C 301.297 259.570,301.777 259.184,301.849 259.141 C 301.921 259.098,301.910 258.994,301.826 258.910 C 301.742 258.825,301.262 259.212,300.758 259.768 M110.939 264.482 C 111.368 264.970,112.000 265.515,112.344 265.692 C 113.002 266.031,112.982 266.011,111.251 264.529 L 110.159 263.594 110.939 264.482 M294.441 265.179 C 293.533 265.940,292.904 266.563,293.044 266.563 C 293.184 266.563,293.998 265.936,294.852 265.170 C 296.853 263.378,296.585 263.383,294.441 265.179 M285.375 272.035 C 284.309 272.810,283.438 273.522,283.438 273.617 C 283.438 273.779,285.138 272.608,286.875 271.250 C 288.388 270.067,287.289 270.642,285.375 272.035 M133.438 279.974 C 134.190 280.587,134.688 280.788,134.688 280.477 C 134.688 280.395,134.230 280.106,133.672 279.833 L 132.656 279.337 133.438 279.974 M272.734 279.866 C 271.566 280.500,271.637 280.764,272.813 280.156 C 273.328 279.890,273.750 279.605,273.750 279.523 C 273.750 279.322,273.716 279.333,272.734 279.866 M266.250 283.281 C 265.477 283.695,264.984 284.034,265.156 284.034 C 265.328 284.034,266.102 283.695,266.875 283.281 C 267.648 282.867,268.141 282.528,267.969 282.528 C 267.797 282.528,267.023 282.867,266.250 283.281 M140.313 283.594 C 140.742 283.839,141.234 284.040,141.406 284.040 C 141.578 284.040,141.367 283.839,140.938 283.594 C 140.508 283.348,140.016 283.147,139.844 283.147 C 139.672 283.147,139.883 283.348,140.313 283.594 M142.813 284.611 C 142.813 284.750,143.234 285.022,143.750 285.217 C 144.266 285.411,144.688 285.516,144.688 285.450 C 144.688 285.383,144.266 285.110,143.750 284.844 C 143.234 284.577,142.813 284.472,142.813 284.611 M160.469 291.563 C 160.813 291.710,161.305 291.831,161.563 291.831 C 161.858 291.831,161.800 291.732,161.406 291.563 C 161.063 291.415,160.570 291.294,160.313 291.294 C 160.017 291.294,160.075 291.393,160.469 291.563 M245.156 291.563 C 244.762 291.732,244.705 291.831,245.000 291.831 C 245.258 291.831,245.750 291.710,246.094 291.563 C 246.488 291.393,246.545 291.294,246.250 291.294 C 245.992 291.294,245.500 291.415,245.156 291.563 M162.656 292.188 C 163.000 292.335,163.492 292.456,163.750 292.456 C 164.045 292.456,163.988 292.357,163.594 292.188 C 163.250 292.040,162.758 291.919,162.500 291.919 C 162.205 291.919,162.262 292.018,162.656 292.188 M242.969 292.188 C 242.575 292.357,242.517 292.456,242.813 292.456 C 243.070 292.456,243.563 292.335,243.906 292.188 C 244.300 292.018,244.358 291.919,244.063 291.919 C 243.805 291.919,243.313 292.040,242.969 292.188 M164.844 292.813 C 165.188 292.960,165.680 293.081,165.938 293.081 C 166.233 293.081,166.175 292.982,165.781 292.813 C 165.438 292.665,164.945 292.544,164.688 292.544 C 164.392 292.544,164.450 292.643,164.844 292.813 M169.688 294.063 C 170.117 294.200,170.750 294.313,171.094 294.313 C 171.589 294.313,171.556 294.261,170.938 294.063 C 170.508 293.925,169.875 293.812,169.531 293.812 C 169.036 293.812,169.069 293.864,169.688 294.063 M235.625 294.063 C 235.006 294.261,234.974 294.313,235.469 294.313 C 235.813 294.313,236.445 294.200,236.875 294.063 C 237.494 293.864,237.526 293.812,237.031 293.812 C 236.688 293.812,236.055 293.925,235.625 294.063 M175.313 295.313 C 175.742 295.450,176.445 295.560,176.875 295.557 C 177.577 295.552,177.561 295.527,176.719 295.313 C 175.397 294.976,174.262 294.976,175.313 295.313 M229.844 295.313 C 229.002 295.527,228.986 295.552,229.688 295.557 C 230.117 295.560,230.820 295.450,231.250 295.313 C 232.300 294.976,231.166 294.976,229.844 295.313 M178.750 295.938 C 179.180 296.075,179.883 296.188,180.313 296.188 L 181.094 296.188 180.313 295.938 C 179.883 295.800,179.180 295.687,178.750 295.687 L 177.969 295.687 178.750 295.938 M226.250 295.938 L 225.469 296.188 226.250 296.188 C 226.680 296.188,227.383 296.075,227.813 295.938 L 228.594 295.687 227.813 295.687 C 227.383 295.687,226.680 295.800,226.250 295.938 M186.563 296.998 C 186.563 297.066,187.113 297.174,187.786 297.239 C 188.459 297.303,188.943 297.247,188.862 297.115 C 188.713 296.875,186.563 296.766,186.563 296.998 M217.701 297.115 C 217.619 297.247,218.103 297.303,218.776 297.239 C 219.449 297.174,220.000 297.066,220.000 296.998 C 220.000 296.766,217.849 296.875,217.701 297.115 M190.082 297.412 C 190.557 297.484,191.261 297.482,191.645 297.407 C 192.029 297.333,191.641 297.275,190.781 297.277 C 189.922 297.279,189.607 297.340,190.082 297.412 M215.082 297.412 C 215.557 297.484,216.261 297.482,216.645 297.407 C 217.029 297.333,216.641 297.275,215.781 297.277 C 214.922 297.279,214.607 297.340,215.082 297.412 M195.339 297.614 C 195.410 297.677,196.594 297.805,197.969 297.900 C 199.449 298.001,200.086 297.970,199.531 297.823 C 198.592 297.573,195.094 297.400,195.339 297.614 M206.875 297.848 C 206.445 297.977,207.219 298.003,208.594 297.906 C 209.969 297.808,211.161 297.668,211.243 297.595 C 211.489 297.376,207.718 297.593,206.875 297.848 " stroke="none" fill="#04dcdc" fill-rule="evenodd"></path><path id="path1" d="M220.625 80.448 C 200.975 83.291,190.117 97.813,192.480 118.091 C 194.316 133.847,202.488 140.796,225.241 145.951 C 238.675 148.995,244.239 152.027,247.118 157.875 C 249.869 163.464,249.763 172.353,246.879 177.754 C 239.796 191.023,216.279 191.632,195.507 179.086 C 194.063 178.214,192.794 177.500,192.686 177.500 C 192.578 177.500,192.527 181.108,192.573 185.519 L 192.656 193.538 196.683 195.070 C 224.810 205.778,250.804 201.352,259.498 184.375 C 265.217 173.209,264.678 156.488,258.284 146.717 C 253.288 139.082,245.831 134.925,230.781 131.385 C 215.452 127.780,211.355 126.060,208.616 122.084 C 206.233 118.624,205.304 112.531,206.371 107.369 C 209.632 91.603,231.025 88.018,253.822 99.417 C 255.495 100.253,256.972 100.938,257.104 100.938 C 257.339 100.938,257.288 86.741,257.050 86.061 C 256.749 85.198,245.968 82.147,238.906 80.926 C 234.013 80.080,224.831 79.840,220.625 80.448 M155.546 141.016 C 155.460 194.837,155.407 200.085,154.920 202.684 C 152.859 213.695,148.421 217.468,137.500 217.494 L 134.844 217.500 134.844 224.063 L 134.844 230.625 138.906 230.623 C 158.652 230.614,167.384 221.121,169.063 197.838 C 169.246 195.306,169.371 171.119,169.372 137.891 L 169.375 82.188 162.508 82.188 L 155.641 82.188 155.546 141.016 " stroke="none" fill="#fbfbfb" fill-rule="evenodd"></path><path id="path2" d="M246.406 82.341 C 248.641 82.919,252.016 83.930,253.906 84.587 L 257.344 85.781 257.428 92.715 L 257.512 99.648 259.185 100.605 C 260.105 101.132,260.946 101.563,261.054 101.563 C 261.162 101.563,261.250 98.130,261.250 93.936 L 261.250 86.309 258.672 85.379 C 255.235 84.140,249.922 82.657,246.137 81.882 C 241.661 80.964,241.763 81.139,246.406 82.341 M169.291 141.484 C 169.182 206.145,169.280 202.672,167.347 210.112 C 163.929 223.268,156.067 229.791,142.656 230.599 L 138.594 230.844 143.438 230.890 C 160.673 231.056,168.758 223.872,172.231 205.305 L 172.960 201.406 173.051 141.953 L 173.142 82.500 171.266 82.500 L 169.391 82.500 169.291 141.484 M72.857 90.511 C 72.481 91.349,72.489 91.373,72.983 90.890 C 73.273 90.606,73.453 90.203,73.384 89.995 C 73.314 89.787,73.077 90.019,72.857 90.511 M224.346 93.136 C 212.583 94.511,206.139 101.199,206.139 112.031 C 206.139 123.235,209.866 126.307,228.901 130.793 C 238.336 133.017,240.070 133.515,243.430 134.964 C 257.287 140.938,263.438 150.652,263.438 166.563 C 263.438 188.258,251.595 199.679,227.813 200.919 L 223.281 201.155 228.215 201.203 C 254.446 201.454,267.699 189.328,267.098 165.625 C 266.593 145.680,258.152 137.243,232.737 131.280 C 213.748 126.824,209.891 123.625,209.906 112.344 C 209.920 101.241,216.371 94.819,228.917 93.421 C 230.630 93.230,232.090 93.015,232.161 92.943 C 232.373 92.731,226.583 92.874,224.346 93.136 M196.563 178.729 C 196.563 180.731,213.328 187.607,217.904 187.481 C 218.283 187.471,217.544 187.180,216.260 186.836 C 211.151 185.464,204.232 182.433,199.147 179.339 C 197.984 178.630,196.926 177.989,196.797 177.913 C 196.668 177.838,196.563 178.205,196.563 178.729 M72.232 214.801 C 72.452 215.293,72.689 215.526,72.759 215.317 C 72.828 215.109,72.648 214.706,72.358 214.422 C 71.864 213.939,71.856 213.963,72.232 214.801 " stroke="none" fill="#3b9292" fill-rule="evenodd"></path><path id="path3" d="M158.984 82.108 C 160.918 82.163,164.082 82.163,166.016 82.108 C 167.949 82.053,166.367 82.009,162.500 82.009 C 158.633 82.009,157.051 82.053,158.984 82.108 M243.733 181.797 L 242.656 182.969 243.828 181.892 C 244.919 180.889,245.144 180.625,244.905 180.625 C 244.853 180.625,244.325 181.152,243.733 181.797 M136.495 217.418 C 137.403 217.482,138.809 217.481,139.620 217.417 C 140.430 217.353,139.688 217.301,137.969 217.302 C 136.250 217.302,135.587 217.355,136.495 217.418 M134.819 224.063 C 134.819 227.586,134.865 229.027,134.921 227.266 C 134.976 225.504,134.976 222.621,134.921 220.859 C 134.865 219.098,134.819 220.539,134.819 224.063 " stroke="none" fill="#62cdcd" fill-rule="evenodd"></path><path id="path4" d="M257.187 92.749 L 257.343 99.844 257.428 92.991 C 257.474 89.221,257.404 86.029,257.272 85.896 C 257.140 85.764,257.101 88.848,257.187 92.749 M210.608 98.984 L 209.531 100.156 210.703 99.079 C 211.794 98.077,212.019 97.813,211.780 97.813 C 211.728 97.813,211.200 98.340,210.608 98.984 M169.148 196.563 C 169.148 197.336,169.209 197.652,169.283 197.266 C 169.358 196.879,169.358 196.246,169.283 195.859 C 169.209 195.473,169.148 195.789,169.148 196.563 M228.828 200.840 C 229.129 200.919,229.621 200.919,229.922 200.840 C 230.223 200.762,229.977 200.698,229.375 200.698 C 228.773 200.698,228.527 200.762,228.828 200.840 " stroke="none" fill="#88bcbc" fill-rule="evenodd"></path></g></svg>