<?xml version="1.0" standalone="no"?>
<!DOCTYPE svg PUBLIC "-//W3C//DTD SVG 20010904//EN"
 "http://www.w3.org/TR/2001/REC-SVG-20010904/DTD/svg10.dtd">
<svg version="1.0" xmlns="http://www.w3.org/2000/svg"
 width="1280.000000pt" height="1000.000000pt" viewBox="0 0 1280.000000 1000.000000"
 preserveAspectRatio="xMidYMid meet">
<metadata>
Created by potrace 1.16, written by Peter Selinger 2001-2019
</metadata>
<g transform="translate(0.000000,1000.000000) scale(0.100000,-0.100000)"
fill="#000000" stroke="none">
<path d="M5420 5512 c0 -1980 1 -1956 -50 -2181 -70 -312 -208 -514 -425 -621
-112 -55 -216 -80 -375 -90 -133 -8 -132 -8 46 -4 150 3 197 8 280 29 371 93
548 344 625 885 10 63 13 560 16 1958 l4 1872 -61 0 -60 0 0 -1848z m107 -29
c-4 -1938 -3 -1910 -48 -2133 -78 -387 -265 -614 -570 -691 -83 -21 -120 -20
-52 1 21 7 72 30 113 52 285 151 426 454 459 989 7 103 11 809 11 1902 l0
1737 45 0 46 0 -4 -1857z"/>
<path d="M8088 7309 l152 -51 0 -221 0 -222 60 -33 60 -33 -2 243 -3 243 -120
41 c-118 40 -272 84 -291 84 -5 -1 60 -24 144 -51z m211 -65 l40 -16 3 -228 3
-228 -47 24 -48 24 0 220 c0 121 2 220 5 220 2 0 23 -7 44 -16z"/>
<path d="M7215 7020 c-273 -23 -471 -136 -558 -320 -45 -96 -57 -156 -57 -288
0 -263 90 -396 329 -486 78 -30 278 -86 300 -85 9 0 -22 11 -68 24 -114 32
-260 104 -316 156 -156 144 -182 490 -51 712 85 147 265 246 506 281 104 15
63 18 -85 6z m-100 -34 c-207 -65 -358 -225 -400 -424 -32 -149 -10 -357 49
-456 28 -47 93 -112 150 -150 52 -35 40 -33 -48 9 -182 86 -256 217 -256 450
0 302 143 488 435 565 79 21 132 26 70 6z"/>
<path d="M7540 5766 c406 -107 647 -279 785 -559 141 -288 150 -730 20 -1037
-117 -280 -354 -469 -690 -553 -95 -24 -194 -38 -332 -47 l-128 -9 160 4 c282
7 479 47 658 133 274 132 432 333 505 646 23 99 26 131 26 306 0 144 -4 217
-17 277 -49 243 -158 431 -332 569 -90 73 -275 169 -400 208 -108 34 -306 86
-325 85 -8 0 23 -11 70 -23z m434 -145 c302 -146 478 -373 542 -698 22 -109
25 -390 5 -508 -70 -424 -328 -692 -769 -796 -99 -24 -120 -20 -30 5 210 58
418 199 534 361 170 239 235 625 164 975 -62 303 -229 528 -505 677 -90 49
-56 40 59 -16z"/>
<path d="M6290 4281 c0 -25 9 -33 98 -79 53 -28 149 -71 212 -96 110 -43 297
-97 330 -95 8 0 -23 11 -70 24 -47 13 -107 33 -135 45 -27 12 -60 22 -73 22
-13 0 -20 3 -17 6 3 3 -52 35 -122 71 -71 37 -149 81 -175 98 l-48 32 0 -28z"/>
</g>
</svg>
