<svg id="svg" version="1.1" xmlns="http://www.w3.org/2000/svg" xmlns:xlink="http://www.w3.org/1999/xlink" width="400" height="400" viewBox="0, 0, 400,400"><g id="svgg"><path id="path0" d="M262.500 4.672 C 256.250 6.009,246.351 10.765,240.039 15.465 C 238.750 16.424,236.201 18.320,234.375 19.677 C 224.236 27.213,211.654 42.047,206.832 52.148 C 198.293 70.037,194.633 85.459,197.278 92.415 C 199.953 99.450,228.405 91.252,243.359 79.138 C 261.251 64.645,273.722 44.597,278.131 23.242 C 280.537 11.592,280.141 6.319,276.742 4.721 C 274.455 3.646,267.408 3.622,262.500 4.672 M275.868 6.262 C 278.198 7.344,278.327 13.550,276.229 23.543 C 270.650 50.102,251.808 74.799,228.320 86.339 C 215.038 92.864,200.009 95.291,198.845 91.098 C 196.801 83.740,200.938 67.977,209.265 51.391 C 218.400 33.196,245.043 10.575,262.023 6.598 C 266.696 5.503,273.858 5.329,275.868 6.262 M265.234 94.962 C 250.654 96.231,241.583 98.895,224.805 106.835 C 207.725 114.918,203.832 114.764,181.055 105.103 C 161.854 96.959,156.222 95.703,138.923 95.703 C 119.225 95.704,110.805 98.019,94.610 107.888 C 70.303 122.699,53.220 147.309,44.931 179.458 C 40.048 198.394,39.030 223.840,42.234 246.875 C 46.148 275.022,54.889 300.589,68.020 322.299 C 70.413 326.255,73.425 331.338,74.715 333.594 C 90.875 361.867,112.340 384.528,132.419 394.514 C 142.344 399.450,152.136 398.283,172.428 389.748 C 188.025 383.187,188.672 382.934,193.583 381.445 C 203.562 378.420,217.158 378.074,226.367 380.609 C 234.861 382.948,246.457 386.894,250.586 388.851 C 266.108 396.209,270.583 396.788,282.163 392.937 C 289.773 390.406,300.679 383.740,306.055 378.334 C 315.600 368.734,318.802 364.785,326.956 352.549 C 330.675 346.969,334.547 341.344,335.561 340.049 C 342.395 331.318,347.638 320.140,353.338 302.148 C 356.619 291.793,356.647 287.749,353.449 286.100 C 333.306 275.711,312.498 247.801,308.769 226.172 C 307.939 221.355,307.546 202.346,308.153 196.381 C 310.107 177.191,319.970 158.115,333.001 148.320 C 337.700 144.789,345.961 137.213,346.419 136.015 C 348.288 131.131,347.902 130.408,338.157 120.547 C 316.347 98.476,298.162 92.096,265.234 94.962 M292.773 97.056 C 309.682 99.610,321.822 106.404,337.055 121.836 C 347.857 132.780,347.891 133.110,338.994 140.971 C 336.225 143.417,332.593 146.436,330.922 147.680 C 320.739 155.261,310.744 172.607,307.593 188.167 C 304.956 201.192,305.752 224.783,309.172 234.976 C 315.920 255.085,331.224 274.312,349.721 285.920 C 355.229 289.376,355.316 290.045,351.736 301.436 C 346.886 316.868,341.526 328.890,336.352 335.938 C 334.854 337.979,330.282 344.605,326.193 350.664 C 318.800 361.617,314.837 366.776,310.948 370.508 C 309.829 371.582,308.130 373.468,307.174 374.699 C 302.552 380.649,288.682 389.319,279.559 391.962 C 269.619 394.841,266.535 394.324,250.977 387.174 C 238.926 381.636,222.512 377.265,213.672 377.240 C 199.435 377.199,195.181 378.278,173.274 387.491 C 154.358 395.445,146.993 396.972,138.096 394.782 C 132.104 393.307,119.104 385.051,110.256 377.100 C 102.474 370.109,83.534 345.562,77.138 334.180 C 76.534 333.105,73.703 328.339,70.846 323.587 C 61.583 308.182,52.455 287.035,49.282 273.633 C 40.030 234.556,39.772 200.901,48.513 173.438 C 58.442 142.239,74.468 121.268,99.023 107.340 C 111.834 100.074,117.507 98.394,131.933 97.597 C 151.591 96.510,159.605 98.038,180.596 106.875 C 196.697 113.652,201.464 114.816,209.962 114.041 C 214.824 113.598,215.024 113.529,223.767 109.299 C 247.797 97.672,270.355 93.670,292.773 97.056 " stroke="none" fill="#969696" fill-rule="evenodd"></path><path id="path1" d="M263.281 6.466 C 247.071 9.942,221.562 30.267,211.232 47.936 C 205.140 58.356,198.010 78.895,198.512 84.575 L 198.633 85.947 235.352 61.431 L 272.070 36.914 273.381 33.398 C 276.240 25.731,278.467 11.800,277.366 8.465 C 276.499 5.840,270.302 4.961,263.281 6.466 M264.844 96.935 C 250.461 98.272,241.104 101.134,223.633 109.543 C 208.344 116.901,203.129 116.580,180.129 106.859 C 159.543 98.158,147.874 96.202,127.359 98.016 C 107.000 99.816,85.646 112.700,69.324 133.030 C 60.489 144.035,54.881 154.928,49.033 172.449 C 37.617 206.651,40.997 257.616,57.221 295.898 C 58.222 298.262,59.444 301.250,59.936 302.539 C 61.530 306.714,65.612 314.472,70.365 322.359 C 72.920 326.600,76.000 331.786,77.208 333.883 C 84.367 346.308,100.877 367.880,109.423 375.977 C 115.392 381.632,130.986 392.490,132.598 392.114 C 133.439 391.918,326.526 266.635,326.545 266.273 C 326.555 266.093,325.804 265.038,324.876 263.929 C 317.260 254.828,309.605 239.557,307.401 229.073 C 305.249 218.833,305.287 198.336,307.478 187.695 C 310.574 172.654,320.516 155.286,330.192 148.015 C 331.955 146.690,335.907 143.392,338.973 140.686 C 347.464 133.193,347.452 132.923,338.183 123.268 C 316.523 100.704,297.562 93.896,264.844 96.935 " stroke="none" fill="#f2f2f2" fill-rule="evenodd"></path><path id="path2" d="M235.156 61.584 L 198.633 85.957 198.762 88.570 C 198.946 92.311,199.081 92.462,202.559 92.788 C 204.186 92.940,206.254 92.946,207.153 92.801 C 208.053 92.655,209.009 92.516,209.277 92.492 C 209.546 92.468,209.678 92.360,209.570 92.252 C 209.463 92.145,220.932 84.353,235.058 74.937 L 260.742 57.817 262.620 54.983 C 265.981 49.910,272.305 37.742,271.803 37.316 C 271.735 37.258,255.244 48.179,235.156 61.584 M235.058 75.286 C 221.361 84.438,210.239 92.010,210.342 92.112 C 210.444 92.215,210.788 92.083,211.106 91.819 C 211.424 91.555,211.872 91.455,212.102 91.597 C 212.332 91.739,212.471 91.644,212.412 91.386 C 212.353 91.129,212.549 90.829,212.847 90.721 C 213.221 90.585,213.293 90.692,213.078 91.063 C 212.893 91.381,212.911 91.468,213.121 91.276 C 213.317 91.097,213.477 90.760,213.477 90.527 C 213.477 90.295,213.721 90.023,214.019 89.923 C 214.390 89.800,214.463 89.913,214.250 90.281 C 214.065 90.600,214.083 90.687,214.293 90.495 C 214.488 90.316,214.648 89.979,214.648 89.746 C 214.648 89.513,214.893 89.242,215.191 89.142 C 215.562 89.018,215.635 89.131,215.421 89.500 C 215.237 89.818,215.255 89.906,215.465 89.714 C 215.660 89.535,215.820 89.198,215.820 88.965 C 215.820 88.732,216.065 88.460,216.363 88.361 C 216.734 88.237,216.807 88.350,216.593 88.719 C 216.409 89.037,216.427 89.124,216.637 88.932 C 216.832 88.753,216.992 88.416,216.992 88.184 C 216.992 87.951,217.236 87.679,217.535 87.580 C 217.906 87.456,217.979 87.569,217.765 87.938 C 217.581 88.256,217.599 88.343,217.808 88.151 C 218.004 87.972,218.164 87.635,218.164 87.402 C 218.164 87.170,218.408 86.898,218.707 86.798 C 219.078 86.675,219.151 86.788,218.937 87.156 C 218.753 87.475,218.770 87.562,218.980 87.370 C 219.176 87.191,219.336 86.854,219.336 86.621 C 219.336 86.388,219.580 86.117,219.879 86.017 C 220.250 85.893,220.323 86.006,220.109 86.375 C 219.925 86.693,219.942 86.781,220.152 86.589 C 220.348 86.410,220.508 86.073,220.508 85.840 C 220.508 85.607,220.752 85.335,221.050 85.236 C 221.422 85.112,221.494 85.225,221.281 85.594 C 221.096 85.912,221.114 85.999,221.324 85.807 C 221.520 85.628,221.680 85.291,221.680 85.059 C 221.680 84.826,221.924 84.554,222.222 84.455 C 222.594 84.331,222.666 84.444,222.453 84.813 C 222.268 85.131,222.286 85.218,222.496 85.026 C 222.692 84.847,222.852 84.510,222.852 84.277 C 222.852 84.045,223.096 83.773,223.394 83.673 C 223.765 83.550,223.838 83.663,223.625 84.031 C 223.440 84.350,223.458 84.437,223.668 84.245 C 223.863 84.066,224.023 83.729,224.023 83.496 C 224.023 83.263,224.268 82.992,224.566 82.892 C 224.937 82.768,225.010 82.881,224.796 83.250 C 224.612 83.568,224.630 83.656,224.840 83.464 C 225.035 83.285,225.195 82.948,225.195 82.715 C 225.195 82.482,225.440 82.210,225.738 82.111 C 226.109 81.987,226.182 82.100,225.968 82.469 C 225.784 82.787,225.802 82.874,226.012 82.682 C 226.207 82.503,226.367 82.166,226.367 81.934 C 226.367 81.701,226.611 81.429,226.910 81.330 C 227.281 81.206,227.354 81.319,227.140 81.688 C 226.956 82.006,226.974 82.093,227.183 81.901 C 227.379 81.722,227.539 81.385,227.539 81.152 C 227.539 80.920,227.783 80.648,228.082 80.548 C 228.453 80.425,228.526 80.538,228.312 80.906 C 228.128 81.225,228.145 81.312,228.355 81.120 C 228.551 80.941,228.711 80.604,228.711 80.371 C 228.711 80.138,228.955 79.867,229.254 79.767 C 229.625 79.643,229.698 79.756,229.484 80.125 C 229.300 80.443,229.317 80.531,229.527 80.339 C 229.723 80.160,229.883 79.823,229.883 79.590 C 229.883 79.357,230.127 79.085,230.425 78.986 C 230.797 78.862,230.869 78.975,230.656 79.344 C 230.471 79.662,230.489 79.749,230.699 79.557 C 230.895 79.378,231.055 79.041,231.055 78.809 C 231.055 78.576,231.299 78.304,231.597 78.205 C 231.969 78.081,232.041 78.194,231.828 78.563 C 231.643 78.881,231.661 78.968,231.871 78.776 C 232.067 78.597,232.227 78.260,232.227 78.027 C 232.227 77.795,232.471 77.523,232.769 77.423 C 233.140 77.300,233.213 77.413,233.000 77.781 C 232.815 78.100,232.833 78.187,233.043 77.995 C 233.238 77.816,233.398 77.479,233.398 77.246 C 233.398 77.013,233.643 76.742,233.941 76.642 C 234.312 76.518,234.385 76.631,234.171 77.000 C 233.987 77.318,234.005 77.406,234.215 77.214 C 234.410 77.035,234.570 76.698,234.570 76.465 C 234.570 76.232,234.815 75.960,235.113 75.861 C 235.484 75.737,235.557 75.850,235.343 76.219 C 235.159 76.537,235.177 76.624,235.387 76.432 C 235.582 76.253,235.742 75.916,235.742 75.684 C 235.742 75.451,235.986 75.179,236.285 75.080 C 236.656 74.956,236.729 75.069,236.515 75.438 C 236.331 75.756,236.349 75.843,236.558 75.651 C 236.754 75.472,236.914 75.135,236.914 74.902 C 236.914 74.670,237.158 74.398,237.457 74.298 C 237.828 74.175,237.901 74.288,237.687 74.656 C 237.503 74.975,237.520 75.062,237.730 74.870 C 237.926 74.691,238.086 74.354,238.086 74.121 C 238.086 73.888,238.330 73.617,238.629 73.517 C 239.000 73.393,239.073 73.506,238.859 73.875 C 238.675 74.193,238.692 74.281,238.902 74.089 C 239.098 73.910,239.258 73.573,239.258 73.340 C 239.258 73.107,239.502 72.835,239.800 72.736 C 240.172 72.612,240.244 72.725,240.031 73.094 C 239.846 73.412,239.864 73.499,240.074 73.307 C 240.270 73.128,240.430 72.791,240.430 72.559 C 240.430 72.326,240.674 72.054,240.972 71.955 C 241.344 71.831,241.416 71.944,241.203 72.313 C 241.018 72.631,241.036 72.718,241.246 72.526 C 241.442 72.347,241.602 72.010,241.602 71.777 C 241.602 71.545,241.846 71.273,242.144 71.173 C 242.515 71.050,242.588 71.163,242.375 71.531 C 242.190 71.850,242.208 71.937,242.418 71.745 C 242.613 71.566,242.773 71.229,242.773 70.996 C 242.773 70.763,243.018 70.492,243.316 70.392 C 243.687 70.268,243.760 70.381,243.546 70.750 C 243.362 71.068,243.380 71.156,243.590 70.964 C 243.785 70.785,243.945 70.448,243.945 70.215 C 243.945 69.982,244.190 69.710,244.488 69.611 C 244.859 69.487,244.932 69.600,244.718 69.969 C 244.534 70.287,244.552 70.374,244.762 70.182 C 244.957 70.003,245.117 69.666,245.117 69.434 C 245.117 69.201,245.361 68.929,245.660 68.830 C 246.031 68.706,246.104 68.819,245.890 69.188 C 245.706 69.506,245.724 69.593,245.933 69.401 C 246.129 69.222,246.289 68.885,246.289 68.652 C 246.289 68.420,246.533 68.148,246.832 68.048 C 247.203 67.925,247.276 68.038,247.062 68.406 C 246.878 68.725,246.895 68.812,247.105 68.620 C 247.301 68.441,247.461 68.104,247.461 67.871 C 247.461 67.638,247.705 67.367,248.004 67.267 C 248.375 67.143,248.448 67.256,248.234 67.625 C 248.050 67.943,248.067 68.031,248.277 67.839 C 248.473 67.660,248.633 67.323,248.633 67.090 C 248.633 66.857,248.877 66.585,249.175 66.486 C 249.547 66.362,249.619 66.475,249.406 66.844 C 249.221 67.162,249.239 67.249,249.449 67.057 C 249.645 66.878,249.805 66.541,249.805 66.309 C 249.805 66.076,250.049 65.804,250.347 65.705 C 250.719 65.581,250.791 65.694,250.578 66.063 C 250.393 66.381,250.411 66.468,250.621 66.276 C 250.817 66.097,250.977 65.760,250.977 65.527 C 250.977 65.295,251.221 65.023,251.519 64.923 C 251.890 64.800,251.963 64.913,251.750 65.281 C 251.565 65.600,251.583 65.687,251.793 65.495 C 251.988 65.316,252.148 64.979,252.148 64.746 C 252.148 64.513,252.393 64.242,252.691 64.142 C 253.062 64.018,253.135 64.131,252.921 64.500 C 252.737 64.818,252.755 64.906,252.965 64.714 C 253.160 64.535,253.320 64.198,253.320 63.965 C 253.320 63.732,253.565 63.460,253.863 63.361 C 254.234 63.237,254.307 63.350,254.093 63.719 C 253.909 64.037,253.927 64.124,254.137 63.932 C 254.332 63.753,254.492 63.416,254.492 63.184 C 254.492 62.951,254.736 62.679,255.035 62.580 C 255.406 62.456,255.479 62.569,255.265 62.938 C 255.081 63.256,255.099 63.343,255.308 63.151 C 255.504 62.972,255.664 62.635,255.664 62.402 C 255.664 62.170,255.908 61.898,256.207 61.798 C 256.578 61.675,256.651 61.788,256.437 62.156 C 256.253 62.475,256.270 62.562,256.480 62.370 C 256.676 62.191,256.836 61.854,256.836 61.621 C 256.836 61.388,257.080 61.117,257.379 61.017 C 257.750 60.893,257.823 61.006,257.609 61.375 C 257.425 61.693,257.442 61.781,257.652 61.589 C 257.848 61.410,258.008 61.131,258.008 60.970 C 258.008 60.809,258.535 60.214,259.180 59.648 C 259.824 59.082,260.264 58.625,260.156 58.633 C 260.049 58.640,248.755 66.135,235.058 75.286 M251.017 68.815 C 251.204 69.118,250.613 69.306,249.873 69.177 C 249.696 69.146,249.663 69.301,249.799 69.522 C 250.025 69.888,249.499 70.097,248.701 69.958 C 248.524 69.928,248.491 70.083,248.627 70.303 C 248.863 70.685,248.297 70.886,247.461 70.717 C 247.246 70.673,247.202 70.770,247.364 70.931 C 247.748 71.316,225.760 85.970,225.261 85.662 C 225.049 85.531,225.003 85.627,225.158 85.877 C 225.411 86.287,224.924 86.509,224.092 86.365 C 223.915 86.334,223.881 86.489,224.017 86.709 C 224.244 87.075,223.718 87.285,222.920 87.146 C 222.743 87.115,222.710 87.270,222.846 87.490 C 223.072 87.856,222.546 88.066,221.748 87.927 C 221.571 87.896,221.538 88.051,221.674 88.272 C 221.900 88.638,221.374 88.847,220.576 88.708 C 220.399 88.678,220.362 88.827,220.494 89.041 C 220.947 89.773,229.065 86.093,235.263 82.345 C 241.261 78.719,253.180 68.490,251.408 68.490 C 251.082 68.490,250.906 68.636,251.017 68.815 M326.310 266.565 C 326.078 266.800,282.371 295.205,229.183 329.688 L 132.477 392.383 133.914 393.127 C 142.053 397.340,152.212 396.064,170.117 388.579 C 175.273 386.424,181.538 383.807,184.039 382.764 C 200.566 375.867,215.538 375.099,232.260 380.290 C 243.414 383.753,247.172 385.104,253.125 387.787 C 256.455 389.289,260.408 391.003,261.909 391.597 C 267.158 393.674,264.078 395.191,293.882 375.857 L 320.380 358.667 326.499 349.547 C 329.864 344.530,333.520 339.284,334.624 337.889 C 340.690 330.221,345.388 320.224,350.960 303.120 C 355.044 290.583,354.984 289.279,350.195 286.455 C 345.005 283.395,332.222 273.080,330.975 270.947 C 329.992 269.266,326.698 266.171,326.310 266.565 M293.566 376.700 L 268.186 393.164 270.274 393.284 C 274.580 393.531,274.940 393.344,293.975 380.972 C 311.111 369.835,311.995 369.202,314.583 366.211 C 317.894 362.385,319.298 360.572,319.097 360.381 C 319.014 360.301,307.524 367.645,293.566 376.700 M294.655 383.111 C 288.815 386.914,284.086 390.075,284.146 390.135 C 284.531 390.520,290.965 386.994,295.932 383.676 C 300.863 380.382,306.182 376.212,305.469 376.199 C 305.361 376.197,300.495 379.308,294.655 383.111 " stroke="none" fill="#e4e4e4" fill-rule="evenodd"></path><path id="path3" d="M254.083 66.113 L 252.539 67.773 254.199 66.229 C 255.112 65.380,255.859 64.633,255.859 64.569 C 255.859 64.274,255.519 64.569,254.083 66.113 M248.426 72.168 L 245.898 74.805 248.535 72.277 C 250.984 69.929,251.350 69.531,251.063 69.531 C 251.003 69.531,249.816 70.718,248.426 72.168 M204.594 93.245 C 205.080 93.338,205.783 93.335,206.157 93.237 C 206.530 93.139,206.133 93.063,205.273 93.067 C 204.414 93.072,204.108 93.152,204.594 93.245 M276.643 96.383 C 278.084 96.458,280.545 96.458,282.112 96.384 C 283.679 96.310,282.500 96.248,279.492 96.248 C 276.484 96.247,275.202 96.308,276.643 96.383 M136.621 97.556 C 138.179 97.630,140.728 97.630,142.285 97.556 C 143.843 97.482,142.568 97.421,139.453 97.421 C 136.338 97.421,135.063 97.482,136.621 97.556 M204.004 114.332 C 204.380 114.430,204.995 114.430,205.371 114.332 C 205.747 114.234,205.439 114.153,204.688 114.153 C 203.936 114.153,203.628 114.234,204.004 114.332 M207.910 114.332 C 208.286 114.430,208.901 114.430,209.277 114.332 C 209.653 114.234,209.346 114.153,208.594 114.153 C 207.842 114.153,207.534 114.234,207.910 114.332 M334.375 119.336 C 336.192 121.162,337.766 122.656,337.873 122.656 C 337.981 122.656,336.582 121.162,334.766 119.336 C 332.949 117.510,331.375 116.016,331.267 116.016 C 331.160 116.016,332.558 117.510,334.375 119.336 M78.899 122.168 L 75.195 125.977 79.004 122.273 C 82.541 118.834,82.990 118.359,82.707 118.359 C 82.649 118.359,80.935 120.073,78.899 122.168 M342.188 127.466 C 342.188 127.533,342.759 128.104,343.457 128.736 L 344.727 129.883 343.579 128.613 C 342.510 127.430,342.188 127.164,342.188 127.466 M305.966 200.781 C 305.966 201.748,306.042 202.144,306.135 201.660 C 306.228 201.177,306.228 200.386,306.135 199.902 C 306.042 199.419,305.966 199.814,305.966 200.781 M306.016 211.523 C 306.016 214.746,306.077 216.012,306.150 214.338 C 306.223 212.663,306.223 210.026,306.149 208.478 C 306.075 206.930,306.015 208.301,306.016 211.523 M42.286 227.539 C 42.290 228.398,42.370 228.704,42.464 228.218 C 42.557 227.732,42.554 227.029,42.456 226.656 C 42.358 226.282,42.282 226.680,42.286 227.539 M354.013 291.406 C 354.013 292.373,354.089 292.769,354.182 292.285 C 354.275 291.802,354.275 291.011,354.182 290.527 C 354.089 290.044,354.013 290.439,354.013 291.406 M313.260 367.871 L 311.914 369.336 313.379 367.990 C 314.185 367.249,314.844 366.590,314.844 366.525 C 314.844 366.227,314.513 366.508,313.260 367.871 M108.008 375.000 C 109.500 376.504,110.809 377.734,110.917 377.734 C 111.024 377.734,109.891 376.504,108.398 375.000 C 106.906 373.496,105.597 372.266,105.490 372.266 C 105.382 372.266,106.515 373.496,108.008 375.000 M305.057 376.855 L 303.711 378.320 305.176 376.974 C 306.539 375.721,306.820 375.391,306.522 375.391 C 306.457 375.391,305.797 376.050,305.057 376.855 M208.887 377.229 C 209.370 377.322,210.161 377.322,210.645 377.229 C 211.128 377.136,210.732 377.060,209.766 377.060 C 208.799 377.060,208.403 377.136,208.887 377.229 M216.509 377.233 C 217.103 377.323,217.982 377.321,218.462 377.228 C 218.943 377.135,218.457 377.062,217.383 377.065 C 216.309 377.068,215.916 377.144,216.509 377.233 M269.043 393.642 C 269.741 393.729,270.884 393.729,271.582 393.642 C 272.280 393.555,271.709 393.484,270.313 393.484 C 268.916 393.484,268.345 393.555,269.043 393.642 M144.238 395.597 C 145.044 395.681,146.362 395.681,147.168 395.597 C 147.974 395.513,147.314 395.444,145.703 395.444 C 144.092 395.444,143.433 395.513,144.238 395.597 " stroke="none" fill="#c4c4c4" fill-rule="evenodd"></path><path id="path4" d="M234.667 75.157 C 207.126 93.561,208.742 92.448,209.554 92.448 C 209.867 92.448,210.213 92.214,210.322 91.927 C 210.432 91.641,210.714 91.406,210.948 91.406 C 211.183 91.406,211.266 91.582,211.133 91.797 C 210.861 92.236,211.442 92.334,211.857 91.919 C 212.005 91.772,212.429 91.607,212.801 91.553 C 215.824 91.116,219.141 90.220,219.141 89.841 C 219.141 89.675,219.448 89.564,219.824 89.594 C 220.204 89.624,220.460 89.418,220.400 89.131 C 220.341 88.847,220.440 88.705,220.620 88.816 C 221.004 89.053,223.147 87.731,222.855 87.438 C 222.746 87.329,222.878 87.240,223.149 87.240 C 224.889 87.240,253.754 67.108,253.229 66.259 C 253.106 66.059,253.163 65.993,253.358 66.113 C 253.552 66.233,254.414 65.621,255.273 64.753 C 256.133 63.885,256.572 63.310,256.250 63.475 C 255.928 63.640,256.279 63.231,257.031 62.567 C 257.783 61.903,258.247 61.353,258.062 61.344 C 257.877 61.335,258.141 60.976,258.648 60.546 C 259.281 60.009,259.356 59.839,258.887 60.002 C 257.809 60.377,258.086 59.917,259.473 59.029 C 260.171 58.582,260.566 58.225,260.352 58.236 C 260.137 58.247,248.579 65.861,234.667 75.157 M257.617 60.771 C 257.188 61.096,256.836 61.515,256.836 61.703 C 256.836 61.891,256.676 62.191,256.480 62.370 C 256.270 62.562,256.253 62.475,256.437 62.156 C 256.651 61.788,256.578 61.675,256.207 61.798 C 255.908 61.898,255.664 62.170,255.664 62.402 C 255.664 62.635,255.504 62.972,255.308 63.151 C 255.099 63.343,255.081 63.256,255.265 62.938 C 255.479 62.569,255.406 62.456,255.035 62.580 C 254.736 62.679,254.492 62.951,254.492 63.184 C 254.492 63.416,254.332 63.753,254.137 63.932 C 253.927 64.124,253.909 64.037,254.093 63.719 C 254.307 63.350,254.234 63.237,253.863 63.361 C 253.565 63.460,253.320 63.732,253.320 63.965 C 253.320 64.198,253.160 64.535,252.965 64.714 C 252.755 64.906,252.737 64.818,252.921 64.500 C 253.135 64.131,253.062 64.018,252.691 64.142 C 252.393 64.242,252.148 64.513,252.148 64.746 C 252.148 64.979,251.988 65.316,251.793 65.495 C 251.583 65.687,251.565 65.600,251.750 65.281 C 251.963 64.913,251.890 64.800,251.519 64.923 C 251.221 65.023,250.977 65.295,250.977 65.527 C 250.977 65.760,250.817 66.097,250.621 66.276 C 250.411 66.468,250.393 66.381,250.578 66.063 C 250.791 65.694,250.719 65.581,250.347 65.705 C 250.049 65.804,249.805 66.076,249.805 66.309 C 249.805 66.541,249.645 66.878,249.449 67.057 C 249.239 67.249,249.221 67.162,249.406 66.844 C 249.619 66.475,249.547 66.362,249.175 66.486 C 248.877 66.585,248.633 66.857,248.633 67.090 C 248.633 67.323,248.473 67.660,248.277 67.839 C 248.067 68.031,248.050 67.943,248.234 67.625 C 248.448 67.256,248.375 67.143,248.004 67.267 C 247.705 67.367,247.461 67.638,247.461 67.871 C 247.461 68.104,247.301 68.441,247.105 68.620 C 246.895 68.812,246.878 68.725,247.062 68.406 C 247.276 68.038,247.203 67.925,246.832 68.048 C 246.533 68.148,246.289 68.420,246.289 68.652 C 246.289 68.885,246.129 69.222,245.933 69.401 C 245.724 69.593,245.706 69.506,245.890 69.188 C 246.104 68.819,246.031 68.706,245.660 68.830 C 245.361 68.929,245.117 69.201,245.117 69.434 C 245.117 69.666,244.957 70.003,244.762 70.182 C 244.552 70.374,244.534 70.287,244.718 69.969 C 244.932 69.600,244.859 69.487,244.488 69.611 C 244.190 69.710,243.945 69.982,243.945 70.215 C 243.945 70.448,243.785 70.785,243.590 70.964 C 243.380 71.156,243.362 71.068,243.546 70.750 C 243.760 70.381,243.687 70.268,243.316 70.392 C 243.018 70.492,242.773 70.763,242.773 70.996 C 242.773 71.229,242.613 71.566,242.418 71.745 C 242.208 71.937,242.190 71.850,242.375 71.531 C 242.588 71.163,242.515 71.050,242.144 71.173 C 241.846 71.273,241.602 71.545,241.602 71.777 C 241.602 72.010,241.442 72.347,241.246 72.526 C 241.036 72.718,241.018 72.631,241.203 72.313 C 241.416 71.944,241.344 71.831,240.972 71.955 C 240.674 72.054,240.430 72.326,240.430 72.559 C 240.430 72.791,240.270 73.128,240.074 73.307 C 239.864 73.499,239.846 73.412,240.031 73.094 C 240.244 72.725,240.172 72.612,239.800 72.736 C 239.502 72.835,239.258 73.107,239.258 73.340 C 239.258 73.573,239.098 73.910,238.902 74.089 C 238.692 74.281,238.675 74.193,238.859 73.875 C 239.073 73.506,239.000 73.393,238.629 73.517 C 238.330 73.617,238.086 73.888,238.086 74.121 C 238.086 74.354,237.926 74.691,237.730 74.870 C 237.520 75.062,237.503 74.975,237.687 74.656 C 237.901 74.288,237.828 74.175,237.457 74.298 C 237.158 74.398,236.914 74.670,236.914 74.902 C 236.914 75.135,236.754 75.472,236.558 75.651 C 236.349 75.843,236.331 75.756,236.515 75.438 C 236.729 75.069,236.656 74.956,236.285 75.080 C 235.986 75.179,235.742 75.451,235.742 75.684 C 235.742 75.916,235.582 76.253,235.387 76.432 C 235.177 76.624,235.159 76.537,235.343 76.219 C 235.557 75.850,235.484 75.737,235.113 75.861 C 234.815 75.960,234.570 76.232,234.570 76.465 C 234.570 76.698,234.410 77.035,234.215 77.214 C 234.005 77.406,233.987 77.318,234.171 77.000 C 234.385 76.631,234.312 76.518,233.941 76.642 C 233.643 76.742,233.398 77.013,233.398 77.246 C 233.398 77.479,233.238 77.816,233.043 77.995 C 232.833 78.187,232.815 78.100,233.000 77.781 C 233.213 77.413,233.140 77.300,232.769 77.423 C 232.471 77.523,232.227 77.795,232.227 78.027 C 232.227 78.260,232.067 78.597,231.871 78.776 C 231.661 78.968,231.643 78.881,231.828 78.563 C 232.041 78.194,231.969 78.081,231.597 78.205 C 231.299 78.304,231.055 78.576,231.055 78.809 C 231.055 79.041,230.895 79.378,230.699 79.557 C 230.489 79.749,230.471 79.662,230.656 79.344 C 230.869 78.975,230.797 78.862,230.425 78.986 C 230.127 79.085,229.883 79.357,229.883 79.590 C 229.883 79.823,229.723 80.160,229.527 80.339 C 229.317 80.531,229.300 80.443,229.484 80.125 C 229.698 79.756,229.625 79.643,229.254 79.767 C 228.955 79.867,228.711 80.138,228.711 80.371 C 228.711 80.604,228.551 80.941,228.355 81.120 C 228.145 81.312,228.128 81.225,228.312 80.906 C 228.526 80.538,228.453 80.425,228.082 80.548 C 227.783 80.648,227.539 80.920,227.539 81.152 C 227.539 81.385,227.379 81.722,227.183 81.901 C 226.974 82.093,226.956 82.006,227.140 81.688 C 227.354 81.319,227.281 81.206,226.910 81.330 C 226.611 81.429,226.367 81.701,226.367 81.934 C 226.367 82.166,226.207 82.503,226.012 82.682 C 225.802 82.874,225.784 82.787,225.968 82.469 C 226.182 82.100,226.109 81.987,225.738 82.111 C 225.440 82.210,225.195 82.482,225.195 82.715 C 225.195 82.948,225.035 83.285,224.840 83.464 C 224.630 83.656,224.612 83.568,224.796 83.250 C 225.010 82.881,224.937 82.768,224.566 82.892 C 224.268 82.992,224.023 83.263,224.023 83.496 C 224.023 83.729,223.863 84.066,223.668 84.245 C 223.458 84.437,223.440 84.350,223.625 84.031 C 223.838 83.663,223.765 83.550,223.394 83.673 C 223.096 83.773,222.852 84.045,222.852 84.277 C 222.852 84.510,222.692 84.847,222.496 85.026 C 222.286 85.218,222.268 85.131,222.453 84.813 C 222.666 84.444,222.594 84.331,222.222 84.455 C 221.924 84.554,221.680 84.826,221.680 85.059 C 221.680 85.291,221.520 85.628,221.324 85.807 C 221.114 85.999,221.096 85.912,221.281 85.594 C 221.494 85.225,221.422 85.112,221.050 85.236 C 220.752 85.335,220.508 85.607,220.508 85.840 C 220.508 86.073,220.348 86.410,220.152 86.589 C 219.942 86.781,219.925 86.693,220.109 86.375 C 220.323 86.006,220.250 85.893,219.879 86.017 C 219.580 86.117,219.336 86.388,219.336 86.621 C 219.336 86.854,219.176 87.191,218.980 87.370 C 218.770 87.562,218.753 87.475,218.937 87.156 C 219.151 86.788,219.078 86.675,218.707 86.798 C 218.408 86.898,218.164 87.170,218.164 87.402 C 218.164 87.635,218.004 87.972,217.808 88.151 C 217.599 88.343,217.581 88.256,217.765 87.938 C 217.979 87.569,217.906 87.456,217.535 87.580 C 217.236 87.679,216.992 87.951,216.992 88.184 C 216.992 88.416,216.832 88.753,216.637 88.932 C 216.427 89.124,216.409 89.037,216.593 88.719 C 216.807 88.350,216.734 88.237,216.363 88.361 C 216.065 88.460,215.820 88.732,215.820 88.965 C 215.820 89.198,215.660 89.535,215.465 89.714 C 215.255 89.906,215.237 89.818,215.421 89.500 C 215.635 89.131,215.562 89.018,215.191 89.142 C 214.893 89.242,214.648 89.513,214.648 89.746 C 214.648 89.979,214.488 90.316,214.293 90.495 C 214.083 90.687,214.065 90.600,214.250 90.281 C 214.463 89.913,214.390 89.800,214.019 89.923 C 213.721 90.023,213.477 90.295,213.477 90.527 C 213.477 90.760,213.317 91.097,213.121 91.276 C 212.914 91.465,212.883 91.397,213.046 91.113 C 213.403 90.494,212.806 90.476,212.194 91.087 C 211.940 91.341,211.641 91.458,211.529 91.347 C 211.300 91.118,257.404 60.217,258.008 60.195 C 258.223 60.187,258.047 60.447,257.617 60.771 M332.813 272.852 C 333.979 274.033,335.022 275.000,335.130 275.000 C 335.237 275.000,334.370 274.033,333.203 272.852 C 332.036 271.670,330.993 270.703,330.886 270.703 C 330.779 270.703,331.646 271.670,332.813 272.852 M293.945 375.821 C 279.766 385.057,267.813 392.780,267.383 392.983 C 266.615 393.345,266.616 393.350,267.411 393.258 C 267.857 393.206,279.608 385.781,293.525 376.758 C 307.442 367.734,318.952 360.384,319.102 360.423 C 319.253 360.463,319.588 360.155,319.847 359.740 C 320.666 358.429,320.250 358.687,293.945 375.821 M294.227 380.756 C 284.499 387.102,276.602 392.358,276.679 392.434 C 277.878 393.633,303.892 378.458,306.751 374.892 C 307.134 374.414,308.538 372.925,309.872 371.582 C 311.206 370.239,312.211 369.158,312.106 369.179 C 312.000 369.200,303.955 374.409,294.227 380.756 " stroke="none" fill="#e4e4dc" fill-rule="evenodd"></path></g></svg>